<?xml version="1.0" encoding="utf-8"?>
<!-- Generator: Adobe Illustrator 26.3.1, SVG Export Plug-In . SVG Version: 6.00 Build 0)  -->
<svg version="1.1" id="레이어_1" xmlns="http://www.w3.org/2000/svg" xmlns:xlink="http://www.w3.org/1999/xlink" x="0px"
	 y="0px" viewBox="0 0 750 500" style="enable-background:new 0 0 750 500;" xml:space="preserve">
<style type="text/css">
	.st0{clip-path:url(#SVGID_00000092428850329183419240000011070694100091157891_);}
	.st1{opacity:0.2;fill:url(#SVGID_00000020396747866863340250000008960204178659494022_);enable-background:new    ;}
	.st2{opacity:0.2;fill:url(#SVGID_00000147194649766159841780000001735271011131562904_);enable-background:new    ;}
	.st3{fill:#E9EEF5;}
	.st4{fill:none;stroke:#D8D8D8;stroke-miterlimit:10;}
</style>
<g id="레이어_2_00000115491223860951780400000016776603860021927859_">
	<g id="레이어_1-2">
		<g id="레이어_2-2">
			<g id="OBJECTS">
				<g>
					<defs>
						<rect id="SVGID_1_" width="750" height="500"/>
					</defs>
					<clipPath id="SVGID_00000163039496204875674940000011218622940864614580_">
						<use xlink:href="#SVGID_1_"  style="overflow:visible;"/>
					</clipPath>
					<g style="clip-path:url(#SVGID_00000163039496204875674940000011218622940864614580_);">
						
							<linearGradient id="SVGID_00000107584845653695274120000012719082764008738467_" gradientUnits="userSpaceOnUse" x1="359.9625" y1="-370.8054" x2="721.3108" y2="-370.8054" gradientTransform="matrix(0.82 -0.57 0.57 0.82 438.47 580.34)">
							<stop  offset="0" style="stop-color:#D1D5DE"/>
							<stop  offset="1" style="stop-color:#DBDBDB"/>
						</linearGradient>
						
							<path style="opacity:0.2;fill:url(#SVGID_00000107584845653695274120000012719082764008738467_);enable-background:new    ;" d="
							M823.5-70.4c-13.1-9.5-21.4-24.2-28.2-38.9s-12.4-30.1-21.8-43.3c-15.7-21.8-40.2-35.5-67-37.5c-26.8-1.6-52.9,8.9-71.2,28.6
							c-11.2,12.4-19,28.1-32.4,38.1c-13.7,10.3-31.4,13.4-47,20.5c-37.2,16.8-61,57.8-60.1,98.6S521,75,555.7,96.4
							s78.7,25.8,118,14.7s73.7-36.7,98.2-69.3c12-16,21.8-33.6,34.5-49s29.2-28.9,48.9-32.7L869-66.5
							C855.5-57.7,836.6-60.9,823.5-70.4z"/>
						
							<linearGradient id="SVGID_00000091718022764883988140000015288357559304677760_" gradientUnits="userSpaceOnUse" x1="-227.98" y1="-209.4546" x2="169.44" y2="-209.4546" gradientTransform="matrix(1 0 0 1 227.98 277.2)">
							<stop  offset="0" style="stop-color:#D1D5DE"/>
							<stop  offset="1" style="stop-color:#DBDBDB"/>
						</linearGradient>
						
							<path style="opacity:0.2;fill:url(#SVGID_00000091718022764883988140000015288357559304677760_);enable-background:new    ;" d="
							M397.4,0c-3.5,18.4-11.9,35.4-24.2,49.5c-24.8,28.3-66,44.8-106.3,42.5c-4.3-0.2-8.6-0.7-12.9-1.2
							c-22.7-2.7-45.8-7.6-66.1,0.8c-17.3,7.1-28.3,22.4-43.9,32.1c-20.4,12.7-47.8,14.8-71.5,8S28.7,110,14,92.2
							C8.9,86,4.4,79.5,0,72.9V0H397.4z"/>
						<path class="st3" d="M586.2,0c-6.1,4.6-13,8.1-20.3,10.4c-13.7,4.3-29.2,5.1-41.6,11.5c-16.4,8.4-24,24.5-28.1,39.9
							s-6,31.6-15.3,45.4c-19.3,28.6-67.3,38.5-105.4,28.1c-25.3-6.9-46.5-20.9-63.6-37.8c-8.4-8.4-15.9-17.5-22.6-27.4
							c-14.7-21.6-25.4-45.3-45.6-63.8c-2.5-2.3-5.1-4.4-7.9-6.3H586.2z"/>
						<circle class="st3" cx="195.4" cy="155.8" r="34.1"/>
						<circle class="st3" cx="536" cy="127.6" r="11.7"/>
						<path class="st3" d="M581.7,115.9c0,3.2-2.6,5.8-5.8,5.8c-3.2,0-5.9-2.6-5.9-5.8s2.6-5.8,5.9-5.8l0,0l0,0
							C579.1,110.1,581.7,112.7,581.7,115.9z"/>
						<circle class="st3" cx="60.3" cy="295.2" r="11.7"/>
						<path class="st3" d="M84.5,332.3c-3.2,0-5.9-2.5-5.9-5.8c0-3.2,2.5-5.9,5.8-5.9s5.9,2.5,5.9,5.8c0,0,0,0,0,0l0,0
							C90.3,329.6,87.7,332.2,84.5,332.3C84.5,332.3,84.5,332.3,84.5,332.3z"/>
						<path class="st4" d="M88.7-12.2c41.6-0.1,82.8,19.1,109.5,50.9c23.2,27.6,35.2,62.8,55.1,92.8s53.5,56.4,89,49.8
							c24.3-4.5,43.7-23.9,55.1-45.9s16.4-46.6,22.5-70.6s13.9-48.3,29.8-67.3c20.1-24.1,52.7-37.1,83.9-33.4"/>
						<path class="st4" d="M102.6-13.7c39.5,0.2,77,17.6,102.7,47.7c21.8,25.8,33,58.9,51.6,87s50.2,52.9,83.4,46.7
							c22.8-4.2,40.9-22.4,51.7-43s15.4-43.7,21.1-66.1s13-45.3,27.9-63.1c18.8-22.6,49.4-34.8,78.6-31.3"/>
						<path class="st4" d="M116.5-15.2c36.9,0.2,71.9,16.5,95.8,44.5c20.3,24.1,30.8,54.9,48.2,81.2s46.8,49.3,77.8,43.6
							c21.3-4,38.2-20.9,48.2-40.1s14.3-40.7,19.7-61.7s12.2-42.3,26-58.9c18.1-21.3,45.6-32.2,73.4-29.2"/>
						<path class="st4" d="M130.5-16.7c34.3,0.2,66.8,15.3,89,41.3c18.8,22.4,28.5,51,44.7,75.4s43.5,45.8,72.3,40.4
							c19.8-3.7,35.5-19.4,44.8-37.3s13.3-37.8,18.3-57.3s11.3-39.2,24.2-54.7c16.8-19.8,42.3-29.9,68.1-27.2"/>
						<path class="st4" d="M144.4-18.2C176-18.1,206-4.1,226.5,19.9c17.4,20.7,26.4,47.1,41.3,69.6c14.9,22.5,40.1,42.3,66.7,37.3
							c18.2-3.4,32.7-17.9,41.3-34.4s12.3-34.9,16.9-52.9S403.1,3.3,415-10.9c15.5-18.2,39.1-27.6,62.9-25.1"/>
						<path class="st4" d="M613-28.4c2.5,18,18.4,31.6,35.4,38s35.6,7.2,53.6,10s36.6,8.4,48.9,21.8c21.9,23.9,15.5,60.9,18.9,93.1
							c5.2,48.7,38,93.5,83,113"/>
						<path class="st4" d="M603.7-20.3c2.5,18,18.4,31.6,35.4,38s35.5,7.2,53.5,10s36.6,8.4,48.9,21.8
							c21.9,23.9,15.5,60.9,18.9,93.1c5.2,48.7,38,93.5,83,113"/>
						<path class="st4" d="M594.3-12.2c2.5,18,18.4,31.6,35.4,38s35.6,7.2,53.5,10s36.6,8.4,48.9,21.8
							c21.9,23.9,15.5,60.9,18.9,93.1c5.2,48.7,38,93.5,83,113"/>
						<path class="st4" d="M584.9-4c2.5,18,18.4,31.6,35.4,38s35.5,7.2,53.5,10s36.6,8.4,48.9,21.8c21.9,23.9,15.4,60.9,18.9,93.1
							c5.2,48.7,38,93.5,83,113"/>
					</g>
				</g>
			</g>
		</g>
	</g>
</g>
</svg>
