<?xml version="1.0" encoding="UTF-8"?><svg id="_레이어_2" xmlns="http://www.w3.org/2000/svg" xmlns:xlink="http://www.w3.org/1999/xlink" viewBox="0 0 750 559.7"><defs><style>.cls-1{fill:none;}.cls-2{clip-path:url(#clippath);}.cls-3{fill:#0199b0;}</style><clipPath id="clippath"><rect class="cls-1" y="0" width="750" height="559.7"/></clipPath></defs><g id="_레이어_2-2"><g id="_레이어_1-2"><g id="_레이어_2-2"><g id="_레이어_1-2-2"><g class="cls-2"><path class="cls-3" d="M45.13,21.39c.81-1,1.63-1.91,2.47-2.84-.12,1.52-.45,3.01-1,4.43-1.43-.59-2.9-1.08-4.39-1.48,.53-.72,1.07-1.44,1.62-2.15,.32,.51,.93,1.53,1.25,2m-14-.57c-.23-1.05,.2-1.43,1.28-1.13,.2,1-.23,1.43-1.28,1.13m3.55-1.13c.69,.69,1.38,1.38,2.08,2.06-.5,1.59,.87,2.46,1.86,3.41-1.23,.26-2.45,.52-3.67,.82-.24-.36-.75-1.07-1-1.42-.48,.44-.95,.89-1.42,1.34-.97-.06-1.94,.04-2.88,.27,2.13,.77,4.26,2,6.6,1.83,2.89-.27,5.54,1,8.14,2.1,1.26-.55,2.64-.74,4-.54,.19-.44,.57-1.32,.77-1.76,.86,.18,1.64,.63,2.22,1.29l-.3,.44-.37,.65c.99-.44,1.95-.94,2.87-1.51,.49,.86,1,1.73,1.49,2.6l2.24-.39c0,.46-.07,1.34-.09,1.79,.89-.48,1.79-1,2.68-1.47l2.53,2-2,.23c.17,.59,.36,1.18,.53,1.77l1.8-1.1c-.06-.75-.11-1.5-.17-2.25,.82-.52,1.63-1.07,2.44-1.61-1-.54-2-1.08-2.95-1.64-.25,.86-.51,1.7-.79,2.54-.2-1.4-.33-2.8-.52-4.2,.91,1.71,2.85,2.08,4.49,2.75l2.37-.36c-.24,.83-.48,1.67-.73,2.5-1.1,.08-2.18,.23-3.26,.45l2.4,1c-.23,1.39-.07,2.82,.44,4.14,1.19-.13,2.38-.26,3.57-.41,.33-.94,.68-1.87,1.06-2.79,.28,1.47,.51,3,.72,4.44l2.72,1.46c-.26,.71-.53,1.41-.79,2.1,1.91,2,5.28,3.48,4.32,6.85,1.92,.91,4,1.78,6,.61-1,2.96-1.18,6.14-.52,9.2l1.82-.11-1.83-1.87c1.52,.22,3.55,1,3.1,3,.09,1.51-1.65,1.77-2.64,2.47,1.74,.87,3.89,2.2,3.53,4.48-.3,2.67,1.16,5.07,1.19,7.7,.12,4.34,.47,8.79-.71,13,.79,.82,1.6,1.64,2.43,2.44-.37,3.58,.4,7.11,.64,10.67,.18,1.9-1.08,3.51-1.46,5.31,0,2.56,.58,5.1,.34,7.66-.41,4.35,.21,8.82-1.13,13.05,.25,.52,.48,1.06,.69,1.61,.08,4.5,.53,9-.46,13.48,.86,3.51,1.83,7.32,.33,10.8,.56,4.44-.26,8.94,0,13.42l-1.41,.89c1,2,.27,4-.85,5.86l2.51,1.51c-.28,1.86-.34,3.89-1.71,5.35,.25,1.2,.91,2.28,1.85,3.07-.37,.77-.67,1.58-.88,2.41-.12,4.05-.76,8.07-.72,12.12-.49,5.32-3.85,10.93-1.21,16.15,0,1,.1,2,.14,3l-1.85,1.42,1.43,1.81c-.38,1.43-.79,2.86-1.23,4.28h2c-1,2.51-.57,5.92-3.55,7.13,.11,1.78,.82,3.47,2,4.81-.93,.2-1.87,.41-2.79,.63,.16,1.43,0,3.07,1.25,4.09-.38,.66-.75,1.33-1.12,2,.94,1.38,2.35,2.63,2.58,4.37-.69,2.31-1.74,4.5-3.11,6.48-.09,1.08-.17,2.17-.23,3.27,1.11,.39,2.23,.82,3.33,1.28l-3.26,1.05c0,1.39,0,2.79,.07,4.2,1.07,2.18,1.62,4.57,1.63,7l-1.47,.45c.04,3.14,.43,6.27,1.15,9.33,.63,2.56-.69,5.08-.26,7.65s-.66,5-1,7.56c1.11,1.77,0,3.64-.34,5.47-.63,2.53-.11,5.19-.62,7.75-1.75,2.65-.59,6.07-.93,9.07l1.08,1.42c-.58,.64-1.12,1.3-1.62,2,.42,4.94-.52,9.87-1.43,14.72,.38,1.17,.71,2.36,1,3.57l-2.43,.66,2.4,2.09-1.4,.81c.83,1.93,1.14,4.04,.9,6.13-2.23,1.78,2,3.77-.39,5.35,.15,1.31,.29,2.63,.4,3.95-1.1,1.54-.83,3.43-.54,5.18l-1,1.17c.35,.79,1.36,1.53,.82,2.46-.93,2.29-.65,4.78-.77,7.18-1.37,4.22-1.3,8.76-1.48,13.15-.07,1.37,.36,2.72,1.22,3.8-.62,.42-1.22,.86-1.8,1.33,.24,1.64,.58,3.27,1,4.87l-1.14,1.19c.52,1.86,.86,3.81-.12,5.58h2.37c-.38,.33-1.15,1-1.53,1.28,0,3.45-1.09,6.92-.13,10.34-1,1.78-1.28,3.87-.78,5.85-.4,5.48,.09,11,.43,16.5-.4,.45-.8,.9-1.2,1.37,.22,1.43,.6,3-.49,4.22,.83,.24,1.64,.53,2.45,.84,.35,1.08,.54,2.21,.79,3.34,1.51-.6,3-1.21,4.5-1.87-.11,1.11-.21,2.24-.28,3.37l3-1.34-2.37-1.63c.89-2.07,3.6,0,5.33-.27,2.83-.39,6.46,1.86,8.42-1.19l-.8,2.22c1.87-.92,3.92-1.43,6-1.5-.49-1.13-1.52-2.23-1.08-3.54,1.34-.89,2.72,.49,3.72,1.3,1.24-.2,2.49-.32,3.74-.35,.22-.3,.64-.9,.85-1.2l1.37,1.62c.65-.51,1.29-1,1.94-1.5,1.09,.24,2.19,.51,3.28,.84-.63,.83-1.3,1.65-2,2.47l2.34-.73c.05-1.16,.19-2.31,.42-3.44,2.5-.51,4.72-1.91,6.26-3.94,.24,1.87,.85,3.67,1.78,5.31,.84-.61,1.68-1.23,2.53-1.83,1.11,.64,2.37,.99,3.66,1,.16-1,.32-2,.49-3,3,.35,6.05,.91,9.08,1.42l-.2-2.45c1.05-.06,2.12-.1,3.18-.14,2.55-1,5.31-.65,8-.63,0,.7,.08,2.1,.1,2.8,.2-.49,.59-1.47,.78-2,2.79-.07,5.58,.17,8.32,.72l1.62,1.78c-.53,2,1.14,2.87,2.68,3.65,1.76-1.06,3.62-1.95,5.55-2.65,2.23-.15,4.46-.15,6.69,0,.23,.33,.68,1,.91,1.31,2-.38,4-.86,5.93-1.42,.14,.49,.42,1.48,.57,2,3.07-.48,5.85,1.09,8.72,1.91,2.22-.41,4.48-.58,6.73-.48,.59,1.24-1.69,1.58-2.37,2.35,.15,.54,.31,1.09,.47,1.65,.44-.61,.88-1.21,1.34-1.79,3,1.41,6.62,1,9.26,3.3l2.79-1,2.39,2-1.67,1.59c1.1,.91,2.23,1.78,3.36,2.67l.73-.49-2.29-1.32c.58-.9,1.19-1.78,1.84-2.64,3.29,.56,6.28,2.36,9.67,2.41-.2,1.16-.37,2.32-.53,3.49,1.4-.16,3.19-1.54,4.25,.12l-2.72,1.08c.51,1.47,1.47,2.73,2.75,3.61l-2.22-.1c-.65-1-1.37-2-2.11-3-.56,1.14-1.1,2.31-1.63,3.48,1.33,.19,2.66,.34,4,.6-.34,1.52-2.26,1.51-3.34,2.28,1.39,.22,2.84,.7,4.25,.23,.8-1.13,.54-2.75,1.51-3.79,1,.1,2.93,.57,2.24,1.94s-.14,2.85,.27,4.25c1.66,.03,3.28,.58,4.61,1.58-.57-.95-1.17-1.9-1.67-2.88,1.22,.44,2.25,1.28,2.92,2.39-.68,1.69-2.82,1.56-4.23,2.32,1.89-.09,3.77-.33,5.64-.57,.49,.79,1.01,1.56,1.58,2.3,1.29,.12,2.59,.12,3.88,0,.71,.61,1.44,1.22,2.13,1.89-.65,.57-1.39,1-2.07,1.58,.69,.9,1.38,1.82,2.06,2.74-1.57,.04-3.14,.17-4.7,.39l-1.21-.27c-1.39,.47-2.83,.75-4.29,.84-.23-1.3-.32-2.63-.28-3.95-1.03,.2-2.02,.58-2.91,1.14,.3,.83,.59,1.68,.89,2.54-1.3,1.21-2.09,3.48-4.19,3.25-2.08,.49-4.12-1.38-6.08-.07-.95,.49-1.73-.64-2.55-.92-.23-.91-.47-1.81-.71-2.7-.46,.82-.89,1.64-1.33,2.47l-1.73-1.18c-.68,.55-1.36,1.12-2,1.68-.3-.43-.9-1.31-1.21-1.74-.72,.6-1.44,1.2-2.14,1.83,1.45,.37,2.93,.6,4.42,.68-1.41,.54-2.91,2.38-4.46,1.27-2.47-1.55-5.15,.85-7.68,1.13-1.47-2.25-3.83-.12-5.71,.31v1.54c-.62,.67-1.21,1.38-1.87,2-1.88-.91-3.92-1.48-6-1.67-2.74,.13-4.4,2.82-7.07,3.05-1.83,.22-3.68,.28-5.53,.2,.26,.79,.52,1.57,.79,2.37l-.58,.42c-.5-.78-1-1.54-1.51-2.27-2.74,3.36-7.27,2-11,3-.31,.81-.65,1.63-1,2.43-.91,.07-1.83,.03-2.74-.1l-1.51,.74c-.79,1.42-1.73,2.76-2.79,4-1.28-.28-2.53-.54-3.8-.78-.82,1.1-1.65,2.19-2.49,3.27l-2.59-.42c-1.19,2.38-3.76,3.14-6.25,2.71l.29,1.12c-1.55-.7-3.09-1.37-4.63-2-1.21,1.22-2.37,2.46-3.52,3.73-3.61-.64-7.93,1.13-9.31,4.68l-2-.9c.35,.72,.71,1.46,1.08,2.2-1.12,.41-2.23,.85-3.33,1.31l-1.67-.58v2.18l-2,.63c-.06,.59-.21,1.77-.28,2.36-1.53-.25-3-.7-4.51-1.07-.27,.7-.53,1.42-.79,2.14-1.33,0-2.65,0-4,.07,0,.63,.08,1.9,.11,2.54-1.63-1.4-3.39-2.64-5.26-3.71-.24,1.43-.47,2.86-.68,4.3-4-.13-7.85,1.48-10.57,4.41l-2.24-.59c-1.95,.8-3.67,2.08-5,3.72-1.43,.06-2.87,.14-4.31,.22-.07,.49-.22,1.47-.3,2-1.68,.41-3.15,1.41-4.15,2.82-2.21,0-4.66-1.12-6.69,.17-1.78,1-3.57,2.17-5.73,1.71-.37,1.09-.74,2.19-1.12,3.29-2.63-.79-5.64-2.12-7.95,.14,.11-.7,.31-2.1,.41-2.8-1.48,.55-3.25,.87-3.81,2.61-1.35-.21-2.66-.57-3.93-1.07,.78,.92,1.52,1.89,2.2,2.89-4.26,0-5.94-4.1-7.83-7.15-1,.16-2,.34-3,.51-.26,1.06-.51,2.13-.76,3.21,1.55,.54,3.59,.4,4.7,1.84-1.39,.76-2.85,1.38-4.28,2.06-1.37-2.01-3.05-3.77-5-5.22-.24,.5-.71,1.49-.94,2,1.44,.52,2.92,1,4.42,1.33-.48,1.2-1.42,2.2-2.83,1.92-2.72-.21-4.89-2.2-7.53-2.79-.75-1.28-.96-2.81-.6-4.25-.98-.09-1.98,.05-2.89,.43v-3c-1.36,.62-2.63,1.38-4,2-.27-1.26-.52-2.52-.72-3.77-.86-.4-1.72-.8-2.57-1.18,.66-1,1.33-2,2-2.91-1.24,0-2.46,.09-3.69,.16l-.77-2.28c-1,.89-2,1.83-2.9,2.81,.92-2.76-1.75-4.65-2.83-6.9,1.13-1.61,2.24-3.23,3.4-4.8-1.17-.81-2.3-1.65-3.39-2.56,.84-1.2,1.4-2.56,1.64-4l-2.39,1.39c-.43-1.58-.59-3.22-.46-4.85,.64-4.84,.51-9.84,2.21-14.49-.08-.93-.13-1.85-.16-2.77l-1.33-.11c-.63-2.87-1.44-5.8-.82-8.75l-1.06-1.39,2-3.69-1.8-1.57c.35-1.61,.62-3.23,.8-4.86l1-1.46-.69-1.35c2.19-.92,2.32-3.19,2.69-5.19l-1-.72c1.08-.84,2.04-1.82,2.86-2.92l2-.1c.83-1.32,1.67-2.63,2.48-4h-3l1.44,2.06-2.07,1.68c-.25-.38-.75-1.15-1-1.53l-2-.55c.35-1.44,.71-2.88,1.08-4.31l-1.65-.34c.09-1.45,.07-2.91-.06-4.36,1.38-2.32,4-3.42,5.9-5.2,.8,.13,1.61,.3,2.4,.51-.11-.37-.32-1.11-.42-1.48-.97-.85-1.78-1.86-2.39-3,1.05-.39,2.23-.25,3.16,.37,0-.58-.06-1.15-.08-1.71l-2.05,.17c-.09-.92-.17-1.81-.25-2.72l2.38-1c.26-1.14,.59-2.27,1-3.37,1.53,.39,3.08,.66,4.65,.8l-1.95-.91c0-1.42-1.09-2.6-2.51-2.7,1-.45,2-.88,3-1.3-1.27,.33-2.6,.33-3.87,0,.75-2.13,2.43-3.82,3.07-6l-2.51-.67-1.71,1.68c.14-2-.21-4-.05-6,.74-1.5,1.61-2.94,2.61-4.28,1.98-.22,3.94-.67,5.82-1.34-1.7-.49-3.42,0-5.09,.35,0-.45-.05-1.33-.07-1.77l-2.62,1.29c.33-1.19,.73-2.33,1-3.52-1.6-.75-1.94,1.39-2.74,2.27-.31-.68-.64-1.34-1-2-.35,1.83-.44,3.71-.24,5.57-.75,.37-1.49,.76-2.23,1.17-.82-1-1.66-1.94-2.48-2.9,1.15-.1,2.31-.17,3.46-.23-.59-1.5-1.11-3.22-2.88-3.61l1.76-.16c1-2.08,2.4-3.94,4.12-5.48-.05-.44-.17-1.33-.24-1.78-1.89,.53-3.7,1.29-5.4,2.26v2.29c-1-2.32-1-5.51,1.4-7-.05,.55-.14,1.66-.18,2.21l2.15-1.15c-1.3-.87-1.83-2.33-2.39-3.7,.25-2.38,1-4.93,0-7.22l.77-.73c-.64-.76-1.28-1.51-1.93-2.26,.93-.56,1.86-1.1,2.79-1.64-.06,.68-.16,2-.2,2.68,1.63,1.93,3.18-.15,4.64-1.1l-1.58-2c.24-1.58,.49-3.15,.73-4.72-.81-1.07-1.51-2.19,.28-2.65-.13-.55-.25-1.1-.38-1.63,.43-.81,.69-1.69,.77-2.6-1.25-.49-2.55-.83-3.76-1.41-.81-1.13-1.52-2.33-2.13-3.59l1.81,.09-1-1.09c.44-1.48,.68-3.02,.73-4.56-.63-.74-1.3-1.45-2-2.13l2.45-.31c.06-1.11,.12-2.21,.2-3.3-1.12-1.05-2.92-1.93-2.67-3.75,.27-1.25,.67-2.47,1.19-3.64l-1.41-1c.71-1.77,1.46-3.52,2.13-5.3-.3-.31-.89-.91-1.18-1.22l1.29-1.13c-.66-1.14-.97-2.45-.89-3.76l1.91,1.67c.9-.34,1.8-.7,2.71-1-.06-1-.13-2-.18-3-.37-.73-.75-1.45-1.11-2.18-1.08,.17-2.16,.33-3.24,.46,.59-.91,1.49-1.57,2.54-1.85,.75-.95,1.47-1.92,2.19-2.88-1.34-.06-2.66-.11-4-.14-.14-1.75,.06-3.51,.58-5.19-1.57-1.08-.46-1.84,.79-2.14v2.21c2.4-.87,1.12-2.89-.42-3.39,.59-1.3,1.19-2.59,1.76-3.89l-2.95,.42c-.25-2-.48-4-.85-5.95l.81-1c.33-1.03,.89-1.98,1.64-2.76-2-2.08,.65-4.53,1.26-6.7-1.19-.07-2.39-.15-3.57-.24,.68-.44,1.38-.87,2.07-1.29l-2-.73,1.85-1c-.45-.57-.95-1.09-1.43-1.61,1.5-.51,2.97-1.06,4.42-1.66-.1,.38-.32,1.13-.42,1.5l3,1.5c-.94,.42-1.88,.86-2.81,1.3,1.41,0,2.82,.05,4.23,.05-.34-1.1-.68-2.18-1.06-3.25,.62-1.19,1.16-2.42,1.63-3.67-.26-.88-.35-1.81-.26-2.73l-.82,.75c-.07-1.19-1.04-2.14-2.24-2.16,.05,.64,.1,1.28,.17,1.92-1.06,1.26-2,2.61-2.94,3.95-1.06-.78-2.11-1.58-3.13-2.4l2.42,.06c-.75-.79-1.48-1.6-2.2-2.42,1.09-.21,2.22,.14,3,.93-.06-.41-.2-1.26-.26-1.67l-2.74-1.05,1.88-1.52v-4.27l-.92,2.46-1.23-.34c.44-1.8,.75-3.63,.95-5.47,1-1.27,2.23-2.58,2-4.37h-2.68c.33-1.65,.72-3.28,1.12-4.91-3-.35-1.4-3.79-1.85-5.75l2.31,1-1.19-1.4c.13-2.34,.05-4.68-.25-7,.8-.69,1.61-1.38,2.42-2.05-1.44,0-2.87-.08-4.31-.09-.25-1.67-.56-3.34-.88-5,1.51-1.29,1.78-3.12,1.81-5l1.86-.07c.4-.82,1.13-1.54,1.17-2.47-.78-1.21-1.62-2.38-2.53-3.5-.64,0-1.91-.12-2.54-.17,1-1.77,2.61-3.32,2.8-5.44-1.15-1.29-2.48-2.4-3.59-3.72,1.25-.92,2.25-2.13,2.93-3.53-.42,0-1.26,.08-1.67,.12,2.25-2.69,1.35-6.8,4.45-9-.12,1-.21,1.92-.28,2.89,1.24,.52,2.55,.88,3.83,1.3l-1.68-2.17c.94-.73,1.87-1.49,2.79-2.25-.06-.43-.22-1.28-.29-1.7-1.23-.76-2.46-1.51-3.69-2.25-.14,.53-.4,1.59-.54,2.12-2.17-.03-4.34,.07-6.5,.31l1.46-1.14c.86-2.26,1.35-4.58,0-6.76,2.83-2.14,1.47-5.79,1.9-8.76,.39-2.48-1-4.69-1.54-7,1.12-.09,2.24-.26,3.34-.51,.36-.73,.69-1.47,1-2.23-.91,.34-2.35,2.07-3.14,.71-.79-2.07-1.48-4.18-2.06-6.32,.84-1.84,1.39-3.8,1.63-5.81l-2.2-.13c.69-.7,1.41-1.37,2-2.12,.17-2.22-.34-4.85,1.71-6.4l-2-1.93c.15-.64,.29-1.28,.45-1.91-.16-1.34-.25-2.68-.36-4,.31,.61,.94,1.85,1.24,2.47l1.3-2.08c.57-.36,1.16-.71,1.74-1.05,.81-.82,1.65-1.61,2.51-2.38-.64-1.45-2.09-2.37-3.68-2.33,.43,1.33,.86,2.65,1.24,4-1.17,.65-2.35,1.28-3.57,1.85,.61-.94,1.27-1.83,2-2.68-.34-1.22-1.28-2.19-2.5-2.56,.52-1,1.06-2,1.62-3.05-.58-.92-1.18-1.83-1.82-2.71,0-1.46,.11-2.94,.19-4.4l-2.14-.1c-.57-4.25,.22-8.52-.25-12.78,.1-3.79-.32-7.59,.1-11.37l2.7-1.21c.17-.53,.5-1.58,.66-2.11,.57,.61,1.13,1.23,1.69,1.84,.11-1,.22-2,.34-3l-2.23,.5-1.81-.51c0,.6-.13,1.82-.17,2.42-2.75-1.69-1.15-5.39-1.3-8,.92,.48,1.83,1,2.72,1.55,.52-.75,1-1.5,1.55-2.24,1.32,.17,2.6,.17,2.49-1.54l-.67,1.15c-1.17-.5-2.39-.91-3.6-1.31-.64,.46-1.28,.9-1.92,1.35-.93-3.6-.99-7.37-.18-11,1.35,1.58,1.77,3.62,2.28,5.57,.83-1.1,1.65-2.18,2.47-3.28-2.78,.37-2.33-2.58-1.28-4.1l-2.61,.09c-.43,.77-.88,1.55-1.33,2.32,0-2.06-.05-4.11,0-6.16,.31,.97,.6,1.95,.87,2.94l3.67-.9-1.77-1.05c.42-1.5,1-2.94,1.43-4.44-1.44-.37-2.86,.18-4.25,.48,.13-3.52,.58-7.06,0-10.57-.63-2.08,1.3-3.5,2.28-5.05l-2.16,.24c0-10.16,.5-20.31,1-30.46,0-1.72-.72-3.32-1.08-5,.38,.23,1.14,.72,1.51,1,.35-1.5,.75-3,1.15-4.47,1.44-1,2.84-2.11,4.27-3.18l-2.05-.7,3-.27c1.35-1.48,3.03-2.64,4.89-3.39l.48,1.6c1.25,.77,2.48,1.58,3.69,2.45,.2-.44,.6-1.31,.81-1.74l2.64,.48c.26-.72,.53-1.43,.79-2.14,.33,.38,.66,.77,1,1.17,2.24-1.6,6.09-1.82,6-5.34m31.25,22.17c-.57,1,1,2.66,2,2,.51-1-1-2.53-2-2m-15.08,40.5c.42,1.56,.82,3.11,1.23,4.68,1.64-1.28,1.15-3.09,.49-4.78l-1.72,.1m4.38,10.39c.96-.6,.96-1.14,0-1.62-.97,.61-.97,1.15,0,1.62m-36.44,1.8c0,2.57,2.31-1.1,0,0m37.37,2.37c0,.43,.07,1.27,.1,1.69l.71-.21v2.76l-1.19-.41c-.09,1.74,.84,3.38,2.38,4.19,1.13-1.54,2.32-3,3.57-4.46-1.34-.03-2.67-.14-4-.33,.5-.98,.99-1.96,1.47-2.94l-3-.28m-9.72,12.28c-.48,1.23,1.48,2.16,2.48,1.84,.28-1.1-1.48-2.36-2.48-1.84m.05,3.54c-.81,2.22-2.21,4.17-4.06,5.64l-2.79,.16c1.61,1.17,3.8,1.17,5.41,0l2.3,.46c-.13,.38-.36,1.14-.47,1.51l2.37-.43,1.77,2.77c-1.21,.58-2.43,1.12-3.67,1.61l2.75,.87c.18-1.16,.76-2.22,1.64-3,0-1.21,.08-2.42,.11-3.62l-2.36-.74c0-1.95-.07-3.89-.14-5.83l-2.86,.6m-6.12,1.84c-.34,1,0,1.41,1.11,1.14,.35-1,0-1.43-1.11-1.14m-30.44,7.61c-.62,1.25,1.05,1.42,1.66,.69,2.34-1.6,.66-4.77,.83-7.08-1.06,2.03-1.89,4.18-2.49,6.39m9.54,42.86c1,1.44,2.66,.74,4,.49-1-1.4-2.68-.76-4-.49m35.31,1.15c.06,1.22,.13,2.44,.23,3.66,.49-.84,1.4-1.56,1.34-2.62l-1.57-1m-34.89,6.33l2.05,.52c0-1,.07-2,.11-3-.73,.83-1.45,1.66-2.16,2.5m-9.12,.06c.09,1,.18,2,.26,2.95l-2,1.61c1.38,.6,2.7,1.36,3.92,2.24l.75-1.3,1.51,1.46c-.33-1.34-.62-2.71-.87-4.07-1.2-.95-2.42-1.91-3.6-2.89m6.05,1.46c-.14,.69-.27,1.4-.4,2.09l1.78-.13c.06-.88,.13-1.75,.2-2.63l-1.58,.67m3.05,6.9c1.68,.9,3.46,1.64,5.13,2.58v-1.65l-1.53,.13c-.83-1.37-2.18-1.49-3.56-1.06m26.43,3.38c-1.18,.05-1.24,2.1,0,2.16s1.26-2.15,0-2.16m3.73,1.15l-1,1.55-2,1.16,1.1,.33-1.51,1.44,.92,1.45,.71-.29c.08-1.09,.06-2.33,1-3.1,.83,.04,1.65,.15,2.46,.33-.55-1-1.12-1.92-1.68-2.87m-30,6.42c-1.21,2.26,2.56,.13,0,0m28.57,.19c-.55,1,.72,2.78,1.85,2.48,.38-1-.7-2.82-1.85-2.48m-28.42,2.08c.33,1.09,.68,2.19,1.05,3.29l3.18-.77c0-.48,.1-1.43,.13-1.9-1.45-.22-2.9-.45-4.36-.62m34.37,9.27l1.4,2.24-2.07-.08c-.22,1-.43,2-.62,3.06,1.51-1,2.93-2.17,4.46-3.17,.08-.29,.23-.86,.31-1.14-1.15-.33-2.32-.64-3.48-.91m-43.24,1.54c-.34,.94-.68,1.89-1,2.83l1.6-.4c.36-1,.71-1.93,1.08-2.89l-1.65,.46m10.22,1c1.3,.54,2.58,1.09,3.87,1.67,.19-.83,.37-1.66,.56-2.49-1.48,.26-3,.54-4.43,.82m-1.48,1c-.94,.31-1.58,2.16-.24,2.36,1.66,.33,2.13-3,.24-2.36m32.96,8.16c-.77,.48-.54,2.32,.54,2.11,.78-.48,.53-2.34-.54-2.11m-32.2,1.74c.33,1.63,1.67,2.28,3.22,2.41l.3-2.52c-1.18,.05-2.34,.08-3.52,.11m18.36,.62c-.48,.92,.86,2.51,1.83,1.9,.43-1-.86-2.35-1.83-1.9m-13.89,3.53l2.53,.93c.38,1.55,1.06,3,2,4.29,1.81-1.69,3.23-3.77,4.15-6.07-1.33,1-2.51,2.26-4.07,2.88-2.56,.1-.34-1.85-.14-2.88-1.48,.3-3,.58-4.43,.85m-2.93-.78c.2,.59,.63,1.74,.83,2.33l-2.24-1.09c-1,.68-2,1.34-3.05,2,.05,1.15,.07,2.3,.07,3.46,2.22-1.75,4.91-.88,7.37-.26-.08-.6-.25-1.82-.34-2.43-1.55-.14-3.1-.26-4.64-.48,1.45-.45,2.9-.84,4.37-1.23l-2.37-2.27m39.51,4.32c.37,.7,.8,1.37,1.29,2,.11-1.42,.16-2.83,.15-4.25-.53,.68-1.66,1.2-1.44,2.24m-1.47,5.79c.64,.85,1.25,1.73,1.84,2.62,.5-1.37,.86-2.79,1.07-4.24-1.12,.2-2.15,.77-2.91,1.62m7.22,6.58c.1,.53,.29,1.58,.39,2.11l1.37-.06v-1.67l-1.78-.38m-5.81,24.23c-.23,1.66,.83,3.09,1.42,4.57,1,0,2-.05,3-.05,.25,.92,.5,1.85,.76,2.77l3.82,.66c.41-2.18,.92-4.33,1.55-6.46-1.73-.26-3.47-.51-5.19-.81-.37,.89-.73,1.78-1.09,2.68-1.44-1-2.39-3.22-4.27-3.35m-5,2.07c-1.42,2.14,2.54,.34,0,0m-40.61,8.28l.08,2.52c.79-.76,1.58-1.53,2.34-2.31l-2.42-.21m1.25,7.45c0,.85-.08,2.53-.1,3.36,1.58-.56,2.92-1.66,3.79-3.1l-1.63,.35-2-.62m6.18,8.44c-.84-.1-1.69-.18-2.52-.25-.29,2.04,.78,4.02,2.63,4.91,.49-.82,1-1.63,1.46-2.43-.18-.39-.55-1.17-.74-1.56l1.71,.63c.32-.92,.66-1.83,1-2.72-.86-.49-1.74-.91-2.55-1.47,.05-1.12,.22-2.23,.36-3.34-1.32,1.73-3.9,4.36-1.36,6.23m29.32,3.25c-.99,.6-.99,1.14,0,1.62,1-.61,1-1.16,0-1.62m-31.09,5.34c1.65-.51,3.28-1.11,4.91-1.71-.72-.47-1.26-1.54-2.26-1.31-1.62,0-1.86,2-2.65,3m31.41-1.48c.12,2-2,2.69-3.1,4-.28,1.6-.28,3.24,0,4.84,.46-.94,.71-1.96,.75-3,2.33,.39,4.82,1.07,7-.19l-3.17-.25c.16-.75-.89-2.32,.39-2.39,3.18-1.5,5.34,2.06,7.94,3.17-.23-1.42-.48-2.81-.76-4.2l-2,1.33c-.09-1.12-.16-2.23-.23-3.33-2.26,.62-4.85,1.77-6.91,0m-7.75,9.24c-.92,2.31,2.1,3.6,3.64,4.68-.42-.97-.96-1.88-1.6-2.72-.71-.58-1-2.19-2-2m-21.6,1.67l-.12,1.84,1.38-.7c1.06-.22,2.09-.53,3.09-.94-1.45-.11-2.9-.15-4.35-.2m7.38,2.31c1.13-.66,1.16-1.29,.08-1.91-1.15,.64-1.18,1.28-.08,1.91m12.55,.64c-1.1,2.29,2.58,0,0,0m-5.27,3.36c0,.43,.12,1.28,.15,1.7,1.24-.64,2.48-1.27,3.71-1.93l-3.86,.23m-21.44,1.62c.11,.93,.26,1.86,.47,2.77,.62,0,1.24,0,1.85-.07-.6-1.04-1.39-1.95-2.32-2.7m13.79,1c0,2.58,2.3-1.1,0,0m5.49,1.77c-.99,1.66-.6,3.79,.91,5,1.35-.45,2.7-.89,4-1.26-.21-.83-.43-1.66-.65-2.47-1.47-.29-2.91-.71-4.31-1.25m-22.8,4.37l1.68,.15c.79,.52,1.58,1,2.4,1.56,.18-2.58-2.38-2.3-4.08-1.71m8.82,6.2c-.8,1.07,1,2.55,1.79,1.37s-1-2.55-1.79-1.37m-8.25,20.26c-.13,1,.32,1.46,1.34,1.4,2.41-.9-.28-3.66-1.34-1.4m10,3.25c.9,1.42,1.78,2.86,2.67,4.3,.51-2.03,.66-4.14,.45-6.22-1.54-.31-2.51,.57-3.12,1.92m3.17,5c-1,1.09,.92,2.45,1.67,1.2,1-1.12-.93-2.51-1.67-1.2m-9.34,12c-.5,1.23-.13,1.67,1.14,1.3,.51-1.24,.13-1.67-1.14-1.3m14.91,7.17c1.11-.61,1.11-1.23,0-1.85-1.15,.6-1.14,1.21,0,1.85m17,1.61c-1.29,2.19,2.56,.21,0,0m-29.84,8.49c.45,2.54,2.07-1.47,0,0m6.78,11.91c-.21,1.91-.51,3.81-.76,5.74,1.69-.33,3.37-.68,5-1.14l-2.52-.93,1.15-1.73-2.22,.23c.6-1.65,1.51-3.18,2.67-4.5-1.08,.76-2.16,1.53-3.26,2.26m-10.03,4.97c-1.06,2.33,2.57-.08,0,0m21,3.1c-.45,.26-.61,.83-.35,1.28,.26,.45,.83,.61,1.28,.35,.15-.09,.27-.21,.36-.36,.45-.26,.61-.83,.35-1.28-.26-.45-.83-.61-1.28-.35-.15,.09-.27,.21-.36,.36m-2.72,6c-.92,.29-1.84,.57-2.76,.83l-.71,1.34c-.88,.43-1.75,.88-2.61,1.35,2.15-.2,4.27-.61,6.34-1.2,1.45-.87,1.53-2.83,2.21-4.23l-2.12-.53c-.32-1.3-1.02-2.47-2-3.38-.24,2.11,.95,3.93,1.68,5.82m-13.27,2.4c-.32,1.26,.13,1.64,1.35,1.12,.33-1.27-.12-1.64-1.35-1.12m12.94,1.28c-2.17,1.11,.78,2.74,1.69,1.12,.9-1.12-.93-1.89-1.69-1.12m-16.63,2.85c1,.26,1.91,.5,2.88,.77-.18,.42-.54,1.25-.71,1.68h.73c.08-.51,.25-1.55,.33-2.07,.74,.68,1.48,1.39,2.21,2.09,2.51-3.37,6.44-.45,9.15,1,.16,.52,.46,1.58,.62,2.11l2,.38c.12-.33,.36-.95,.48-1.28-.44-.42-2.57-.48-1.69-1.61,.49-.71,1-1.37,1.46-2.11,0-1-1-1.26-1.64-1.75,0,.71,.15,2.13,.19,2.84-3.46-1.46-7.18-2.15-10.53-3.87-1.78,.74-3.61,1.35-5.48,1.82m6.34,4.93c-1.13,2.28,2.57,0,0,0m-1.52,4.39c-.43,.86-.55,1.83-.36,2.77,.65,.04,1.29-.11,1.85-.43-.1-.97-.65-1.84-1.49-2.34m33.77,2.68c-.33,.07-1,.18-1.34,.24-.43,1.08-1.17,2-2.14,2.65,1.19,.93,2.47,1.73,3.83,2.39-.72-3.15,1.68-5.41,2.3-8.27-1.13,.76-2.05,1.79-2.68,3m-5.91,3.22l-1.06-.1c.34,1.25,.7,2.5,1.07,3.75,1.87-.44,1.81-2,1.1-3.45,.23-.86,.44-1.71,.66-2.56-.79,.62-1.4,1.43-1.77,2.36m-33.36,1v3.26l2.27-1.54-2.3-1.72m15.52,.26c-.45,1.26,0,1.68,1.2,1.27,.44-1.27,0-1.69-1.2-1.27m-14.57,4.75l1.91,1c.22-.29,.65-.86,.88-1.13l-1.28-.71-1.51,.85m127.14,.62c-.46,1.2-.06,1.65,1.22,1.32,.45-1.22,.05-1.66-1.22-1.32m2.11,4.37c-.08,.44-.24,1.31-.33,1.74,1.7,.53,3.34,1.25,5.08,1.71,.81-.79,1.54-1.65,2.19-2.57l-2.71,1.19c-1.44-.65-2.79-1.43-4.23-2.07m15.88,2.27c.89,2.53,4.15,1.12,6.15,1.27-1.72-1.37-4.24-3.78-6.15-1.27m-151.71,.36c.09,1.41,2.87,.66,2.58-.61-.9-.4-1.95-.15-2.58,.61m90.36-.92c0,2.56,2.28-1.15,0,0m37.2,1.54c1.34,.34,2.74,.41,4.11,.19,.11-.4,.31-1.2,.41-1.6-1.51,.47-3,.92-4.52,1.41m-123.2,.75l1.37-1.08c-.18-2.17-3.38,.25-1.37,1.08m-2.38,5.63c1.22-.14,2.46-.3,3.69-.47-.76-.75-1.52-1.49-2.29-2.2-.52,.86-.99,1.75-1.4,2.67m174.76-1.76c-.9,1.15,1.19,2.22,1.93,1.2,.89-1.17-1.18-2.23-1.93-1.2m-179.02,10.97c0,1.48-.08,3-.11,4.45,.15-.49,.44-1.48,.58-2,1.25-.1,2.51-.18,3.76-.24l.68-1.26c-1-.68-2.05-1.37-3.05-2.08l-1.86,1.1m.25,11.11c0,.24,0,.7-.05,.93l1.25,.4c.54-.85,1.1-1.68,1.66-2.5-.05-1-.1-1.88-.15-2.8-.81,1.39-1.71,2.73-2.71,4m215.78-2.59c1.39,.55,2.86,.86,4.27,1.38-.06,1-.25,2-.41,3,1.07,.6,2.13,1.23,3.18,1.9-.62-2-.29-4.43-2-5.83-.89-.73-1.69-1.76-2.88-1.9-.83,.29-2.69,.08-2.13,1.47m-1.33,2.3c-.1,.66-.3,2-.39,2.62l2,1.35c0-1.57,.23-3.42-1.64-4m-62.11,20.91c-.22,2.58,2.37-.9,0,0m-6.21,2.19c.88,.67,1.42,.48,1.6-.57-.88-.69-1.42-.5-1.6,.57m-88.47,39.65c-.46,1.24-.06,1.65,1.2,1.2,.47-1.25,.06-1.66-1.2-1.2m-40.67,4.32l1.24-.81c-.1-.24-.31-.73-.42-1-1.45-1.47-2.57,1.34-.82,1.78M21.98,22.38c.94,.56,1.89,1.09,2.78,1.74l-2.61,1.12c-.06-.95-.12-1.91-.17-2.86m6.91,0c2.2-1.28,.17,2.58,0,0m31.1,4c-1.25-.12-1.38-2.38,0-2.37s1.36,2.35,0,2.37m-12.15-2.17c1.54,1.29,1.22,3.43-.91,3.72,.25-1.25,.55-2.49,.91-3.72m-3.44,4.35c-1.16,.57-2.8-2.09-1.33-2.57,1.04,.38,1.62,1.5,1.33,2.57m34.31,18.25c2.29-1.19,.06,2.57,0,0m559.76,10.45c0-.48,.17-1.42,.23-1.9,.26,.94,.52,1.87,.79,2.81-1.79,.63-3.52,1.41-5.18,2.33,.35,.81,.71,1.62,1.08,2.43,0-.37-.07-1.1-.09-1.47,1.14-.42,2.3-.88,3.45-1.34,.85,1.41,1.95,2.65,3.24,3.67v-2c1.37,.93,2.95,1.5,4.59,1.66l.14-1.79c.79,.9,1.54,1.84,2.26,2.81l2.29-.32c1.35,1.18,2.67,2.39,4,3.66l-.16-1.39,2.33-.56c0,.51,.12,1.53,.17,2,.84,1.42,.71,3.06,.84,4.64,.52,1.29,2.14,1.18,3.23,1.7,.92,1.47,1.64,3.05,2.13,4.71l1.42,.69c.62,2.81,2.33,5.39,2.13,8.35l2.28,.43-1.4,.26v3.42l1.1-1.43c.46,1.82,1,3.64,1.54,5.45-.11,.29-.34,.87-.46,1.16,1.12,1.59,1.97,3.34,2.53,5.2h-2.25c.68,.59,1.38,1.15,2.1,1.72,.89,1.95,1.27,4.09,1.1,6.22l1.42,1.67c-.39,.63-.77,1.25-1.13,1.88l2.23,1.69c-1.7,4,3.28,6.74,2.74,10.82,1.41,4.17,2.2,8.53,2.33,12.93,.19,.53,.56,1.61,.75,2.14-.82-.46-1.63-1-2.43-1.41-.19-.59-.56-1.8-.74-2.4-.08,1.25-.1,2.49-.1,3.74l2.85,.39c.72,1.51,0,3.25,.09,4.83,.34-.62,1-1.89,1.35-2.53,.19,1.15,.34,2.29,.5,3.45-.07,1.92,.32,3.83,1.14,5.56,1.65,3.13,1.44,6.79,2.39,10.13,1.58,5.59,1.67,11.5,3.65,17l-1.6,1.24,1.69-.15c1.11,3.46,1.1,7.19,2.54,10.57-.25,.65-.49,1.29-.71,1.95,.08,1,.14,2,.19,3l.79,.65-1.35-.16c.67,2.07,1.64,4.09,1.8,6.29,.1,3.54,1.17,6.95,1.56,10.47,3.76,3.16,1.4,8.46,3.14,12.47,1.15,6.55,3,13,4.2,19.5,.77,8.58,2.26,17.08,4.46,25.41-.08,.36-.22,1.09-.3,1.46,2.18,6.63,2.67,13.69,4,20.53l-1.77,.63c.6,1.87,1.69,3.54,3.15,4.85,.9,4.53,1.61,9.09,2.6,13.6,.64,4.05,1.6,8.1,1.42,12.22,1.37,3,1.19,6.32,1.36,9.52,.05,2.25,.94,4.37,1.09,6.6,.39,1.14,.7,2.29,1,3.45-.31,3.12,1.2,6,1.47,9.07,.5,4.42,1.83,8.73,1.75,13.2,1.41,1.29,4.09,3.46,1.55,5.16,.9,.29,1.77,.68,2.58,1.17-1.13-.16-2.24-.35-3.34-.52,.35,2.06,1,4.1,1.37,6.17,0,1.91-.07,3.88,.9,5.62,1.2,.64,1.88,1.96,1.71,3.31l-2.3-.69c.71,.93,1.43,1.84,2.2,2.74-.04,2.53,.54,5.03,1.68,7.29,1.18,2.36,.38,5-.13,7.46-1.06,.43-2.1,.86-3.14,1.31-.15,2.57-.65,5.11-1.49,7.55,.65,1.46,.33,3.17-.8,4.3-1.62-.11-3.23-.21-4.83-.29l-1.3,1.23c.25,.71,.75,2.15,1,2.86l-2.58-.11c-.45,.55-1.04,.96-1.71,1.19-1.56,.56-1.85-1.74-2.53-2.53-.26,1.77,1.12,3.08,1.85,4.54-1.46-.35-2.26-1.58-3.09-2.67v2.26l-2.13-.86c.68,1.61,1.56,3.13,2.63,4.51-1.23,.03-2.45,.17-3.65,.43-.3-.44-.92-1.31-1.23-1.74-.12,.72-.35,2.15-.46,2.87-1.12-.8-2.16-2.36-3.7-1.65-1.6,1.13-3.43,1.89-5.36,2.2l.4,1.58c-3,.46-5.74-.66-8.47-1.61-.1-.36-.3-1.06-.41-1.42-1.34,.14-2.8-1.21-3.89,0-1.64-2.35-3.92-4.71-3.37-7.84-.37,.47-1.1,1.43-1.47,1.92-.51-3-2.84-5.13-5-7.13,2.07-1.26,4.27,.1,6.39,.42-1.1-.74-2.25-1.42-3.36-2.1,.16-.62,.5-1.84,.67-2.46-1.46,.18-2.92,.42-4.37,.63,.09-.49,.28-1.48,.37-2-.68-.87-1.31-1.73-2-2.6,.3-.06,.91-.15,1.21-.2,0-.63-.08-1.89-.1-2.52,.93-.48,1.53-.34,1.78,.43-.32,2-.38,4-.56,6.07,.84-1,1.7-2,2.59-3l-.76-.63c-.11-1.9-.45-3.79-1-5.61-.52,.54-1,1.09-1.52,1.65-1.89-.75-2.26-2.79-3-4.43,.38-.52,.77-1,1.18-1.52l.71,1.85c-.08-.83-.16-1.65-.23-2.47l-2.72,.69c.33-1.28,.67-2.55,1-3.81,1.18,.89,2.29,1.87,3.42,2.84-.91-1.44-2.08-2.87-1.92-4.68-.86,.3-1.73,.57-2.58,.86,.5-1.21,1-2.41,1.54-3.61,.15,.49,.46,1.48,.62,2l.76-.09c-.46-2.58-.38-5.34-1.61-7.71,0-.42-.13-1.24-.17-1.65l-1.17,.15c.16-.74,.52-2.2,.69-2.93l1.72,1.54-.72-1.63,.52-3.29c-.88,.51-1.73,1-2.57,1.59,.75-1.11,1.43-2.27,2.05-3.46-.91-.83-1.79-1.68-2.67-2.53l2-.48c-1.24-1.04-2.35-2.23-3.29-3.55l2.59,1c.11-1.41,.26-2.81,.43-4.21l2.12,.33c-.61-.96-1.18-1.93-1.71-2.91l2,.51c-.25-2.52-1-4.94-1.33-7.43,.83,.67,1.62,1.36,2.46,2.06-.07-.5-.2-1.49-.27-2h1.42c.29,1.19,.73,2.33,1.3,3.41-.1-2.75-.39-5.5-.88-8.21-.64,.37-1.27,.75-1.88,1.14-.53-.57-1-1.13-1.56-1.67l1,1.79c-.93,1-2,3-3,.85l.25-1.6c-.57,.65-1.2,1.24-1.88,1.78l-1-1.51c-.89-.09-1.76-.21-2.62-.37-.05-.61-.17-1.83-.23-2.43l-1.27-.82c-.15-1.68-.3-3.36-.44-5l2.1-.18-2-2c-.22,.54-.67,1.62-.9,2.16-.17-2.6-.13-5.29-1.18-7.72-1.37-2.75-.11-5.87,.79-8.57-.35-1.08-.69-2.15-1-3.22-.18,1.54-.95,2.95-2.13,3.95l.93-2.13-1.39-.7,1.81-.1c-1.52-3.54-3.13-7.2-3.44-11.06,.57-2.66,.43-5.42-.41-8-1.31-.09-2.63-.17-3.92-.18-3,2.47-7.11,2.61-10.73,3.66-1.35,.37-2.76,.41-4.13,.13l-1,.78c-3.34-1.62-6.77,1-9.5,2.78-1.06,.12-2.09,.25-3.12,.39l-1.46-1c-.36,.31-1.09,.92-1.45,1.24l-2-1.47c.16,1.53,0,2.91-1.76,3.2,.74,3.24-.16,6.57,.44,9.83l-1.08,1.48,1,.88c-.64,1-1.24,2-1.83,3l2.06,2.28-1.76,.71c-.75,2.38-1.03,4.89-.81,7.38l-1.2-.12c-.11,1.8-.2,3.6-.32,5.4,.36,.47,.72,.94,1.1,1.42l-1.54,.11c1.39,5.23-.5,10.45,.11,15.71-.92,6.66-.43,13.48-1.84,20.06,.16,.67,.33,1.35,.51,2-1.36,1.54-2.81,3.34-2.21,5.53l-2.52,.84c1.06,1.13,3.4,1.57,2.94,3.69l1.06-1.85,1,1.72-2.09,.34c.34,.66,1,2,1.36,2.65-1.41,1.62-2.51-.33-3.54-1.28,.66,2.26,1.54,4.46,2.62,6.55l1.9,.52c-2.22,.07-2.74,2.16-3,3.94l2.21,.37c-.41,.64-.84,1.29-1.26,1.93l1.44,1-2-.3c-.08,1.36-.13,2.76-.2,4.14-.95,2.21-1.1,4.69-.42,7l1.55-.26c-.64,1.32-1.48,2.54-2.48,3.61,.08,.22,.26,.66,.34,.88-.15,.3-.44,.91-.59,1.22h1c-.03,1.38,.7,2.66,1.9,3.35-.9,.79-1.91,1.45-3,1.94-.28-1-.55-1.94-.79-2.91,.17,1.37,.35,2.73,.55,4.1l-1.3-.54c.24,1.81,.57,3.61,1,5.39l3.09,.51-3.53,1.56,1.46,1.85-2.63,.58c.32,1,.66,2,1,2.93-1.22,.1-2.43,.29-3.13,1.42l-2.77-1.53c-.73,1.61-1.53,3.19-2.34,4.77-2.86,1.11-5,3.44-7.68,4.92l-2.19-.5-1,1.16-2.14-.76c.39-.61,.81-1.21,1.23-1.81l-2.76,.92c-.25,.84-.48,1.68-.72,2.53-1.5-1.11-2.89-2.38-4.13-3.78-2.43,.14-4.76-1.02-6.1-3.06-.83,.21-1.65,.45-2.45,.73-.38-1.18-.73-2.33-1.06-3.5-.34,.25-.67,.51-1,.78-.3,1.35-.83,2.64-1.58,3.81l.16,2-3.37-1,2.34-.27-.52-2,1.6-1.11-1.81,.56c-.18,.4-.52,1.23-.69,1.64-1.41-2.21-5-4.1-3.31-7.08,.31,.91,.61,1.82,.9,2.75,.33-1.3,.7-2.58,1.12-3.85-1.42,.16-2.83,.28-4.23,.35-.09,.19-.24,.57-.33,.75l-.76-.79c1.22-.55,2.44-1.11,3.69-1.6-2.47-.4-3.8-2.4-5.26-4.17-.92,.21-1.85,.4-2.77,.59,1.03-.89,2.19-1.61,3.44-2.15-.81-.21-1.6-.39-2.4-.57-.47-.91-.95-1.83-1.39-2.73l2.29-.94-2.48-1.8,1.81-.86c0,.44,.14,1.32,.19,1.76,1.07,1,2.22,2,3.83,1.76,0-2-.11-3.94-.06-5.91l-1.51-.65c.34-.88,.69-1.74,1-2.61l-2.27-.79c1-.61,2-1.23,3-1.82-2.02-1.43-3.76-3.23-5.13-5.29,.5,.07,1.51,.18,2,.24,.61-3.17,1.08-6.41,.32-9.6h1.06c-.57-.51-1.1-1-1.61-1.59,.22-1.08,.59-2.1,.91-3.14l-1.85,1c.06-.48,.18-1.45,.25-1.93,.7-.57,2.52-.72,2-2-.37-2.39-.47-4.81-.31-7.22l1-1.07c-1-1.86-1.36-4.01-1-6.09,.16-1.35,.31-2.7,.45-4,.88,.63,1.77,1.25,2.67,1.87,.28,.33,.85,1,1.14,1.31-.15-1.63-1.04-3.1-2.4-4-.46-.78-.9-1.56-1.34-2.33,.09-.26,.26-.78,.35-1-1-1.45-1.08-3.25,1-3.51-.36-.74-.72-1.46-1.07-2.19,.5-.8,1-1.59,1.55-2.37-.39-.71-.78-1.4-1.14-2.1,1.06-2.71,.6-5.69,1.5-8.43,1.14-4,.5-8.24,1.1-12.32,.59,.41,1.16,.85,1.74,1.31,.32-1.33,.62-2.65,.9-4-.41,.44-1.21,1.35-1.62,1.8-.89-2.08-1.81-4.5-.4-6.56-.36-8.17,2.6-16.09,2.45-24.25,.35-2.05,.84-4.08,1.47-6.06-.07-1.26-.14-2.53-.14-3.78l-1.13,.38-1.23-1.65,1.06,.43c.14-1.32-.57-3.29,1.34-3.56,.35-1.63,.86-3.23,1.5-4.77,.13-1,.29-1.93,.44-2.89l1.48,.19c-.51-1.09-1.57-2.06-1.51-3.31,.77-4.16,.1-8.46,1.25-12.58,1.2,.46,1.49,1.48,1.42,2.7l1.23-2c.09,.68,.28,2,.37,2.71,.18-.59,.53-1.79,.71-2.38,.55,.78,1.11,1.57,1.66,2.37-.18-1.35-.18-2.71,0-4.06,.73-.43,1.55-.78,2.31-1.19-.74-.7-1.45-1.43-2.15-2.15l-1.54,1c-.29-.44-.88-1.3-1.18-1.74l.52,1.61-2.63-.12c.48-2.07,.73-4.18,.73-6.3l.93,.06c-.09-1.5-.13-3-.15-4.47l2,1c-.05-.31-.15-.92-.21-1.23l-2.07,.19c.16-1.66,.35-3.31,.59-5,.83,1.03,1.58,2.12,2.26,3.26,.23-.56,.71-1.68,.94-2.24-.04,1.5-.3,2.99-.77,4.41l2.13-2.38c-.59-4.84-1.21-9.66-2.18-14.44l.89-.05c-.02,1.48,.43,2.92,1.27,4.13,0-.62,.17-1.86,.22-2.48,1,.12,1.92,.23,2.89,.32l-.46,.95c.72-.2,3.74,0,2.74-1.07l-.47-.07c-.85,.29-1.33-.54-1.87-1l-2.51,.4c-.52-1.49-.77-3.05-.75-4.63-.36,.7-.72,1.4-1.07,2.1-.3-1.36-.55-2.72-.84-4.07l1.73,.56c-.01-1.87-.26-3.74-.74-5.55,.07-1.19,.16-2.36,.23-3.53,.87-2.3,.31-5,1.74-7.08,.14,.69,.43,2.07,.57,2.76,.68-.55,1.35-1.09,2-1.63,1.29,.35,2.58,.68,3.89,1l-1.08-3.84c1.15,.27,2.32,.58,3.48,.86-.49-1-1-1.93-1.54-2.88-.54-2.57,.29-5,1.11-7.44,1.01-1.01,1.4-2.49,1-3.87l1.29,.1c-.17-.5-.53-1.51-.7-2,.16-.33,.51-1,.68-1.3-.67-.57-1.31-1.13-2-1.7,.34,1.47,.64,2.95,.92,4.44l-1.84,.28c.22-.8,.45-1.62,.68-2.42-.85,.8-1.69,1.61-2.51,2.44-.23-1.28-.44-2.55-.67-3.81,.86-.45,1.73-.89,2.61-1.33,0-1.27,.06-2.54,.14-3.8,3.56-.24,2.59-4.4,2.74-6.82,.73,1.13,1.41,2.31,2.12,3.48-.41-1.22-.87-2.42-1.29-3.62,.41-.46,1.21-1.38,1.6-1.84l-3.14-.45c.61-.69,1.22-1.37,1.85-2.05,0,.5,.07,1.49,.09,2l.68-.13c.39-3.72,.89-7.44,1.24-11.17-.66,.74-1.17,1.61-1.5,2.55l-1.52-.37c.32,1.46,.71,2.91,1.08,4.37-.94,.92-1.63,2.07-2,3.33-.71-1-1.49-2.12-2.2-3.15l1.76,.36c-.36-3.38,1.39-6.34,2.33-9.47,1.13,1.19,2.27,2.34,3.38,3.56,.09-1.68,1.22-2.87,2.28-4l-3-1.92c.36-.37,.73-.72,1.11-1.08l2-.55c-.6-1.81-1.24-3.61-1.67-5.47-.89-1.9-1.18-4.02-.82-6.09l-2.9-2.06c1.4-.29,2.61-1.15,3.36-2.37-.59,.34-1.74,1-2.32,1.38,.34-2.32,1.53-4.37,2.45-6.48l-3-.52c.4-1.48,1.38-2.73,2.71-3.47,.11,.72,.34,2.17,.45,2.9,.32-2.44,.53-4.9,.68-7.36,1,.29,2,.58,3,.89,.72-1.19,1.56-2.31,2.2-3.56-.17-.99-.48-1.95-.91-2.86-2.22,.61-2,3.44-1.89,5.26-1.61-1.69-2.96-3.61-4-5.69,0,.62-.13,1.86-.17,2.47-.66-.95-1.18-1.98-1.57-3.07,1.12-.23,2.27-.44,3.4-.69-.59-1.53-1.1-3.08-1.53-4.66l2.36,.43c-.11-1.93-.26-3.85-.38-5.77-.37-.45-1.12-1.34-1.5-1.78,.57-.52,1.16-1,1.76-1.56-.07,.53-.18,1.59-.24,2.12l2.43,.08c.07,.46,.2,1.38,.27,1.84,.09-1.36,.12-2.73,.13-4.11-1.41-.09-2.82-.23-4.21-.36,.95-1.45,1.88-2.9,2.93-4.29-.04-2.05-.28-4.09-.72-6.09l-.83-.22,2.82-2.32c-.16,1.31-.3,2.63-.43,3.95l1.39,1.15-1.87,.86,2.22,1.17c.67-1,1.36-2.1,2-3.16,.6-.39,2.19-.38,1.88-1.46-1.24,.09-2.45,.56-3.67,.73,.46-1.75,.58-3.74,2-5-.46-1.2-.89-2.39-1.34-3.57l-2.68,.43c1.06-.83,2.19-1.59,3.3-2.38,0-1.37-1.91-1.32-2.73-2v-.44l1.56-.05c.33-1.8-1.84-3.53,0-4.95-.46-.66-1-1.31-1.41-2,.75-.79,1.9-1.29,2.36-2.33,.11-1.1,.08-2.21-.08-3.31l1.53,.32c-.56,1.26-.36,2.74,.51,3.81,.23-.89,.46-1.78,.68-2.66,.04,.07,.08,.15,.11,.23,.25,1.7,2.34,2.8,3.18,.78,.77,0,1.56-.07,2.35-.13,.24-1.49,.3-3,.42-4.49-2-.77-2.46-2.64-2.75-4.53,.73-1.35,1.11-3.41,3.16-2.92,.36,2.84,.07,5.8,1.36,8.45,2.7-2.43,.38-6.45-.79-9.15,.18-.84,.37-1.67,.58-2.51,1.16,.18,2.33,.34,3.52,.5,.21-1.12,.45-2.23,.71-3.34,1.56-.68,3.09-1.43,4.64-2.16,0-.39,.11-1.17,.14-1.57,1.88,.18,2.84-1.25,3.52-2.77,1.32-.85,2.62-1.74,3.95-2.59,.16,.85,.32,1.69,.51,2.53,.55-1.06,1.15-2.12,1.8-3.15,.08-.49,.24-1.48,.31-2l1.14,.14c.76-.72,1.55-1.42,2.36-2.1-.07,.8-.21,2.39-.27,3.18,.81-.84,1.63-1.68,2.49-2.5l.16-1.71,4,.76m-28,19.84c-1.37,2.16,2.56,.28,0,0m-9.59,15.17l2,.56c.25,.75,.52,1.5,.8,2.26-.31,1.24-.47,2.51-.49,3.78l2.17,.91c-.32-1.66-.66-3.3-1-4.93l1.29,.77c-.1-.83-.2-1.67-.27-2.5-.48-.53-.94-1.06-1.39-1.59-1,.24-2.06,.48-3.07,.74m-1.6,2.75c-.39,1.24,.41,2.3,.75,3.44,.18,1.49,.23,2.99,.12,4.48l.68,1c-1,1.92,.3,3.84,.88,5.65h.59c-.7-1.51-.17-3.11,.09-4.65l1.85-.51,.84,1.88c.74-1.48,1.23-3.08,1.44-4.72-1.46-.72-2.87-1.52-4.29-2.26-.78-.91-1.56-1.82-2.3-2.74l1.81-1.05c0-.36,.13-1.08,.17-1.44l-3.38-1.16c.28,.67,.57,1.34,.86,2m12.16,11c.41,1,.92,2.12,.31,3.2,.1,.27,.32,.8,.43,1.07l2.25-.66c-1-1.23-2-2.43-3-3.61m5.9,23.86c-1.19,2.27,2.57,.07,0,0m36.28,13.86c-1.42,2.11,2.55,.35,0,0m-41.12,17c.9-.93,1.79-1.88,2.65-2.84-1.39,.39-3.7,.83-2.65,2.84m-18.5,3.17c.59,2.69,.86,5.44,1.22,8.17,1.21-2.33,1.68-5,.13-7.34l1.38-1.36-2.73,.53m50.14,3.83c.29-1.62,.11-3.29-.51-4.82-.78,1.59,.21,3.25,.51,4.82m2.61-1.73c.17,.76,.35,1.51,.55,2.26,.84-.55,1.7-1.11,2.54-1.69-1-.2-2.06-.4-3.09-.57m-9.83,3.85c-.43,.29-1.26,.9-1.68,1.2l2.19,2.68c.83-.66,1.66-1.29,2.51-1.94l-2.43,.67c.35-2.11,.16-4.27-.55-6.28-.73,1.08-.73,2.5,0,3.58m-38.2-3.03c0,.56-.09,1.66-.11,2.21l-1.33,.89,2.53,.2c-.36-1.11-.71-2.21-1.09-3.3m51.53,2.34c-1.31,.39-2.61,.82-3.9,1.25l-1.83-1.74c0,.51,.07,1.56,.09,2.08,.94,.09,1.89,.19,2.84,.27,.63,.29,1.27,.56,1.92,.85l1-2.73c1,1.5,.49,3.13,.09,4.72,.64-1.06,1.24-2.15,1.84-3.24l.95,.24c-.74-.44-1.45-.91-2.13-1.39,.28-.85,.66-1.66,1-2.49-.66,.73-1.31,1.45-1.94,2.18m9.71,.72h-1.3c-.57,1.16-1.71,1.94-3,2.05,.87,.31,1.74,.61,2.63,.94,3.28,.56,.71,4.53,1,6.66l.91-.07c1.53-2.48-.58-5.42-.48-8.1,.42-.39,.84-.79,1.28-1.17-.31-1-.52-2.12-.74-3.2-.09,1-.17,1.94-.23,2.9m-3.38-1.45c-1.15,2.26,2.58,.12,0,0m-21.29,9.38c.1,1.24,.22,2.49,.29,3.75l1.33,.46c.77,1.09,1.75,2.02,2.89,2.72l1.05,1.38c1.28,.1,1.41-1.52,1.89-2.36-1.09,0-2.16-.05-3.23,0-1.66-1.35-3.45-2.79-3.71-5.08l2.18-.1c-.1-1-.18-2-.27-3l-2.42,2.23m17.69,1.1c.29,1.08,.6,2.17,.84,3.27,1.41-1.2,3.41-.82,5.09-.54l-2.11,2.17,4.15,.32c0-1.24-.09-2.5-.13-3.74l-2-.32-2-1.62c-.18-.49-.53-1.49-.71-2-1.06,.84-2.11,1.69-3.15,2.53m-3.33-1.25c-.67,.92-.46,1.44,.61,1.57,.64-.92,.44-1.44-.61-1.57m-8.39,3.57c-1.08,2.32,2.56,0,0,0m8.26,1.05c.59,1.16,1.22,2.31,1.89,3.46-.35,.63-.69,1.28-1,1.92l2.35,.18c-.34-1.23-.7-2.46-1.06-3.67l1.62,.57c-.67-1.13-1.32-2.28-2-3.41-.61,.3-1.22,.59-1.82,.9m-14.44,.89c.34,1.57,1.4,2.88,2.86,3.55-.65-1.4-1.63-2.62-2.86-3.55m10.87,2.75c-.83-.06-2,.77-1.59,1.68,.92,.82,3.15-1.15,1.59-1.68m3.05,2.55c.09,.97,.19,1.95,.3,2.94,.48,.05,1.44,.16,1.92,.23l-2.22-3.17m-54.76,2.47c1.07,.31,2.13,.6,3.21,.9-.11-.58-.36-1.75-.48-2.34-.92,.47-1.83,.95-2.73,1.44m4.64-1.57c.43,1.94,1.79,3.85,1.28,5.88l-2,.21,1.39,.31c.83,1.26,.46,4.39,2.33,4.31,.46-1.04,.7-2.16,.72-3.29l.51,.07c.08-1.22,.21-2.41,.34-3.61-.75-.09-1.47-.32-2.14-.67,.51-.57,1.06-1.13,1.62-1.66-1.36-.51-2.7-1-4-1.55m48.17,2.42c1.15-.58,1.18-1.19,.11-1.86-1.19,.58-1.23,1.19-.11,1.86m.75,1.11l-1.42,1.36,1.42,.8-.75,1.32c.2,1.19,.39,2.37,.58,3.58-1-.65-2-1.31-3-2,1.66,1.91,3.05,4.04,4.14,6.33l-2.52,.26c1.95-.03,3.89-.18,5.82-.45l-1.65-1.18c.07-.91,.15-1.82,.25-2.72-.76-.9-1.43-1.87-2-2.9,.42-.87,.89-1.7,1.42-2.51-.75-.67-1.18-1.92-2.29-2m-52.57,.79c-.69,.91-.49,1.41,.6,1.51,.67-.92,.47-1.42-.6-1.51m37,2.5c0,.35-.06,1.05-.09,1.4,.53,.8,1,1.61,1.57,2.43l-2-.24c.08,.77,.25,2.3,.33,3.06l-2-1.78c.69,1.2,1.4,2.35,2.17,3.52-2-.32-2.51,1.43-3.21,2.78l1.56,.61c-.66,.79-1.31,1.58-1.94,2.38-.27,1.3-.56,2.6-.93,3.87,.61,1.11,1.84,2.13,1.39,3.55-.69,3.36-1.45,6.69-2,10.08,.14,.44,.42,1.3,.55,1.74-.5,.58-1,1.15-1.45,1.73,.39,2.77,.04,5.59-1,8.18l.37,1.33c-2,2.57-1.53,5.86-1.75,8.89-1.29,3-.67,6.26-.89,9.39-.25,.22-.76,.65-1,.88-.38,.88-.74,1.77-1.13,2.65,.72,1.8,.77,3.77,1.39,5.6,1,.5,1.16-1.46,1.81-1.92l2.21,.2c0,.33-.1,1-.13,1.29-1,.62-2,1.24-3,1.9,1.18-.31,2.33-.69,3.55-.93,2.24,1.07,4,3,6.07,4.31l-.88,2,1.58-1.39c3.13,.16,6.4,1,9.39-.37l1.18,.11c1.51-1.27,3.34-2.11,5.29-2.42-.36-1.2-.72-2.4-1-3.6l1.88,.19c-.8-2.19-1.66-4.43-3.43-6l2.58-1.62c.86,.31,1.76,.51,2.67,.59-1,2.63,1.51,4.26,2.4,6.43-.68,1.42-1.17,2.93-1.46,4.48,.9-.7,1.81-1.39,2.74-2.06l-1.29-.58c2.14-1.6,1.66-4.08,1.14-6.32l-.67-.05c0,.56,.08,1.69,.11,2.25-.75-.7-1.52-1.4-2.26-2.07,.42-.83,.86-1.67,1.32-2.5-.63-.93-1.23-1.88-1.81-2.82-.62,.41-1.22,.81-1.81,1.23-1.38-1.73-2.59-3.62-2.61-5.91l1.73,1.52v-2.82l2.6,.22-2-1.08c-.63-2.39-1.82-4.6-3.47-6.44l.74-.52,1.13,1.28c.09-1.42,.2-2.84,.34-4.25,.57,.9,1.15,1.81,1.74,2.71,0-1.22,.02-2.44,.06-3.66l1.54,.55c-.66-1.79-1.43-3.55-2.25-5.27,0,1.51-.08,3-.1,4.53-1.14,1-2.25,2.08-3.31,3.19-1.09-.33-1.91-1.22-2.17-2.33l-1.63-.45c-.39-2.9-.36-5.86-1.1-8.71,.69,.45,1.4,.9,2.12,1.35,.29-1.33,.6-2.67,.93-4-2.49-1.11-.41-3.77-.88-5.71,.06-1.66-1.81-2.29-2.79-3.27,1-.24,2-.54,2.94-.86-.12-1.15-.41-2.3-.58-3.44l1.32,1.08c.28-1.22,.59-2.44,.88-3.66-.78,.37-1.54,.76-2.3,1.15,.17-2.74-1.78-4.81-2.69-7.21-.39-1.99-1.01-3.93-1.84-5.78,.23,1.66,.38,3.33,.44,5-2.72-2.23-3.44-5.91-5-8.92l3,.91c-.57-.65-1.16-1.3-1.72-1.93-.51,.39-1,.77-1.5,1.16l.37-1.86-2,1.16m29.55-.8c-.74,1,.88,2.62,1.88,1.88,.62-1-.88-2.52-1.88-1.88m-23.68,1.34c-1.24,2.24,2.54,.18,0,0m1.47,1.73c1.1,1.95,2.27,3.87,3.53,5.73-.52-1.88-.92-3.78-1.22-5.71h-2.31m-53.1,4.71l1.36,.14c.36-1.65,.79-3.3,1.13-5-.92,1.56-1.75,3.18-2.49,4.83m16.36-4.22c-1.25,2.26,2.58,.09,0,0m-2.3,3.85c1.1-.69,1.12-1.35,.06-2-1.11,.69-1.13,1.36-.06,2m1.5-1.65l-.41,.38,.32,.62h.72l.33-.61-1-.4m39.28,4.7c.79,1.64,1.66,3.26,2.59,4.83-.42-1.92,.59-5.46-2.59-4.83m5.16,2.57c1-.46,1-1,.07-1.59-1,.46-1,1-.07,1.59m3.93-.92c0,.49,0,1.49,.07,2-1.3,.38-2.66,.49-4,.34,.12,1,.24,1.94,.37,2.92,.27-.36,.8-1.1,1.06-1.47h2.34c1.35,2,2.62,4,3.89,6,.59-.53,1.2-1,1.83-1.54l1.56,.87c-.16-1.88-2-1.34-3.3-1.5l-1.11-3.05,1.83,.11c-.18-.7-.35-1.39-.5-2.08l-1.71-.22c.07,1.26,.15,2.53,.22,3.81-1.18-1.07-1.81-2.63-1.71-4.22l-.72,.21c.69-.7,1.41-1.36,2.15-2l-2.22-.15m-64.09,7.2c0,1.34,0,2.7-.13,4.05,.46,1.18,.91,2.37,1.34,3.57l-1.59-.62c.12,.58,.36,1.75,.47,2.33-.57,.89-1.93,.81-2.8,1.28,.23,.61,.47,1.22,.71,1.84l1.38-1.31c.22,.64,.67,1.9,.89,2.54,.32-1,.66-1.89,1-2.83,.72,1.75,1.54,3.46,2.44,5.13l-1.17,1.58-1.37-3c.2,1.64,.83,3.2,1.83,4.52v2.75c.6-1.48,1.16-3.09-.17-4.45l1.86,.5-1.45-.74c1-1,2-2,3.07-2.94-.34-1.37-.81-2.71-1.39-4-.75,.58-1.49,1.14-2.24,1.7,.09-1.29,.21-2.56,.36-3.84l-1.56-.62,2.32-.1c-.56-1.14-1.11-2.26-1.66-3.41,1.62-1.12,1.3-2.92,.47-4.42l-2.62,.41m81,2.1l-1.73-.62c.62,2.41,1.08,4.85,1.37,7.32,.08,.09,.26,.24,.35,.32-.47-1.35,.35-2.19,1.45-2.85,.38,.3,1.14,.93,1.52,1.25l-1.4-1.33c.09-.61,.28-1.82,.37-2.44,1.37-.52,2.12,0,2.27,1.65l.94-.41c-1.22-1.43-3.06-4.69-5.14-2.89m-21.15,5.31c.23-.94-.34-1.89-1.28-2.12-.02,0-.03,0-.05-.01-1.41,.45,.27,2.77,1.33,2.13m1.36,1.52c.47,1.15,.93,2.33,1.39,3.5,.48-1.2,1-2.39,1.48-3.58l-2.87,.08m-28.93,.63c-.17,.67-.53,2-.71,2.66l-1.78-.5c.53,1.4,1.05,2.79,1.61,4.17,.56-2.06,.86-4.19,.88-6.33m38.46,1.18c-.25,1.41-.44,2.82-.56,4.25l.84,.26c.03-.95,.44-1.85,1.13-2.51-.48-.67-1-1.34-1.41-2m-73.53,2.26c-.29,1.1-.58,2.21-.86,3.33l2-1.67c0,1.18-.34,2.34-1,3.32,2.54-.18,1.08,2.25,1,3.73,1.5-.91,1.4-2.8,1.76-4.31l-1.46-1.12,.56-1.36-2.1-1.92m-6.73,4.16c-.02,2.1,.13,4.21,.42,6.29l1,.51c1.08-2,.14-4.53,1.2-6.62l-2.63-.18m29.52,.19c-.79,.55-1.83,1.57-1.62,2.6,1.22,.6,3.1-2.11,1.62-2.6m38.25,1.56v1.88l2.26,.76c-.11,1.37-.21,2.76-.26,4.15l.88-2.32h1.67c-1.31-1.33-3.19-2.4-3.15-4.49h-1.38m18.06,4.52c-.58,.85,.18,2.68,1.25,2.63,.49-.87-.11-2.75-1.25-2.63m12.48,11.62c-.07-2.61,1.16-5.15,.55-7.74l2.33,.78-1.88-.7,.87-2.11c-3.29,2.09-3.38,6.55-1.87,9.77m-86.39-7.64c-.22,1.61-.33,3.24-.34,4.87,1.32-1.42,.89-3.24,.34-4.87m-1.84,2.9c-1.16,2.26,2.57,.08,0,0m6.83,4.61l1.13,.7-1.17,1,2.11-.15v-1.54h-2.1m75.06-.05c-1,.61-.17,2.66,.94,1.71,.94-.64,.18-2.62-.94-1.71m-74.42,3.2c-1.17,2.27,2.56,.08,0,0m80.55-.67c-.1,1.31,1.67,3.32,0,4.24l-.58,.18-1.08,.52c-1.11-.2-2.24-.38-3.33-.57-.23,1.9,.32,3.82,1.54,5.3,.01-1.58,.31-3.14,.89-4.61,.49,.85,1,1.7,1.48,2.56-.48,1.87,.54,3.34,1.82,4.6l1.15-.05c-.47-2.18-.66-4.4-.57-6.63,0-1.44,1.41-.95,2.34-.93-.69-.65-1.39-1.24-2.11-1.81-.1-1.17-.26-2.35-1.51-2.81m-24.22,2.59c0,2.57,2.27-1.14,0,0m5,.3c-.74,.82,.14,2.91,1.32,2.55,.58-.87-.07-3-1.32-2.55m-60.54,2.06c-.45,1.19-1.07,2.43-.5,3.7,.83,2-.78,4.54,1.11,6.09,0-3.27-.21-6.54-.61-9.79m82.91,4.26c-.71,.85-.53,1.37,.55,1.56,.7-.85,.51-1.38-.55-1.56m-8.3,2.64c.15,2.56,2.22-1.26,0,0m-19,4.44c.56,.95,1.09,.91,1.58-.11-.58-1-1.1-.92-1.58,.11m-80,.45c-1.2,2.27,2.54,.14,0,0m7,5.63c0,1.53-.75,3.7,1.16,4.42-.27-1.5-.65-2.98-1.16-4.42m78.83,4.34c-1.42,2.12,2.54,.35,0,0m-62.58,2.43c-.13,1.29-.16,2.59-.1,3.89,.91-1.13,.95-2.72,.1-3.89m-23.94,8.26l2.31,1.73-2.07-.25-.08,1.77h-2.35c.13,2.21,1.88,2.56,3.68,2.32,.09-.46,.26-1.38,.34-1.84l2.71-1c-.32,1-.59,2.1-.84,3.17,.76-1.21,1.35-2.51,1.77-3.88,1.14,2.2,.77,4.76,1.13,7.16,.18-.71,.37-1.41,.55-2.1l1.66-.52c-.99-2.49-2.77-4.6-5.06-6-1.25-.32-2.35-1.05-3.12-2.09-.23,.5-.43,1-.63,1.53m13.53-.55c-.34,1.04,.04,1.42,1.14,1.14,.31-1-.06-1.44-1.14-1.14m-16.51,6.53c.61,3,2.14,6.29,1.06,9.36,1,1.09,2,2.16,2.92,3.29l-2-.12,1.26,.55c.37,1.1,.77,2.2,1.17,3.3-.02-2.55,.28-5.1,.9-7.58-1,.26-1.92,.53-2.85,.87,1.73-1.92,1.09-4.5,1.21-6.84l-1.13-1.43-2.53-1.35m6.1,2.24c.66,2.1,.45,4.27-1.68,5.49,1.16,0,2.34,.09,3.52,.18-.85-2.05-.83-4.37,.07-6.4-.65,.23-1.28,.48-1.91,.73m55,3.7l.4,1.88-2.43-.17c.86,1.13,1.7,2.27,2.53,3.44l-.12-2.37c1.2,.11,2.41,.24,3.62,.39-1.57-.72-2.94-1.81-4-3.17m35.09,1.26l-2.64,1c-.07,1.42-.1,2.84-.11,4.27,1.05,.78,1.96,1.73,2.72,2.79-.5-2-.94-4.03-1.33-6.09,.45-.67,.9-1.33,1.36-2m-43.37,1.85v.2c1.59,.6,3.69,.95,3.48,3.18,.81-1.36,1.36-2.86,1.64-4.42-1.65,.56-3.38,.9-5.12,1m-46.66,1.59c2.55,1.51,2.26,5.12,1.67,7.64,.37,1.09,.7,2.19,1,3.31l.61,.05c-.06-.53-.17-1.58-.23-2.11l1.6-.36-.24,2.14,1.11-.07c-.13-.43-.35-1.31-.47-1.74l2.08-.33c.05-1.27-2.55-2.53-1.87,.11l-2.37-1.62c.06-1.52,.29-3.04,.69-4.51,1.64-.71,.69,1.87,1.06,2.74l.59,.14c-.09-1.24-.2-2.47-.33-3.7l-2.42,.18c-.73-1.12-1.43-2.25-2.1-3.4-.14,.51-.29,1-.41,1.53m118.53,4.51c1.39,0,1.25-2.28-.06-2.25s-1.31,2.27,.06,2.25m-6.13,.28c-.14,.49-.28,1-.4,1.48l2.21,2.28v-3l-1.77-.8m-114,1.68c-.12,2.14,.11,4.28,.13,6.43l-1.32,.49c2.73-.66,1.17,2.57,1.53,4.14l.15-1.28,1.07,.2c-.07-1.45-.09-2.9-.12-4.33-1.16-1.75,.24-4.23-1.44-5.65m98.47,7.08c.77,.85,1.52,1.73,2.27,2.62,.69,.6,1.36,1.2,2,1.84,1.05,.34,2.12,.71,3.18,1.09-.18-2.38,.42-5.15-1.79-6.75-.17,.45-.31,.91-.45,1.37,1,1.26,1.56,2.82,1.57,4.43-1.16-.64-2.25-1.28-3.37-1.94l.08-1.86-2.38-1c.39-.87,.78-1.74,1.16-2.61-1.14,.58-1.97,1.62-2.31,2.85m-95.32-1.74c-.1,.36-.31,1.06-.42,1.42,1.49-.05,2.94,.51,4,1.57l-.57-1.68-1.6-1.22-1.38-.09m12,4.64c1.18-.16,1.15-2.18,.61-3-1,.26-1.31,2.21-.61,3m85.18,2.13l-.48,1.26c1.15,2.48,3-2.61,.48-1.26m3.15,2.68c1.26-.08,.95-2.15-.14-2.24-1.22,.1-1,2.14,.14,2.24m-102.88-1.59c.03,.95,.15,1.89,.34,2.82,1.74,1.25,4.25,1.95,3.89,4.63,.56-1.48,2.11-3.29,3.77-2-.63,2.32-1.01,4.7-1.12,7.1,.92,1.14,1.85,2.28,2.77,3.44-.09-.35-.24-1-.33-1.38,.1-1.34-.08-2.68-.53-3.94-.71-2.41-.18-4.92,.06-7.36-.93,.4-1.93,.79-2.85,.2-.65,.33-1.28,.69-1.9,1.05,.07-.79,.23-2.38,.31-3.17l-1.5,1-1.91-.09c-.33-.77-.66-1.54-1-2.29m15.32,4.47c1.07,.19,1.26-1.65,.54-2.14-1.09-.2-1.32,1.64-.54,2.14m103.39-2.27c.12,1.44,.2,2.86,.33,4.31,.52-1.68,1.32-3.26,2.35-4.69l-2.68,.38m-105.87,3.9c.86,.57,2-.82,1.28-1.55-.85-.52-2.13,.82-1.28,1.55m-10.35,.48c-1.08,0-1.73,2.11-.32,2.09,1,0,1.71-2.13,.32-2.09m24.3,.87c-1.23,2.26,2.54,.14,0,0m89.73,1.54c-1.16,2.28,2.56,0,0,0m-91.1,5.6c1.08-1.26,1.41-3,.85-4.57-.58,1.45-.87,3.01-.85,4.57m-35.44-.54c-1.11,2.38,2.53,.09,0,0m16.82,1.05c-.69,.87-.49,1.4,.58,1.57,.69-.89,.49-1.42-.58-1.57m.52,6.82c-.77-2.19-1.37-4.43-1.81-6.7-.19,2.42-.44,5.12,1.81,6.7m91-1.42c-.72,1.22,2,2.64,2.4,1.14-.23-.92-1.16-1.48-2.09-1.25-.11,.03-.21,.06-.31,.11m13.79-.28c-1,1,1.33,2,1.36,.59l-.82-.8-.54,.21m-86.95,3.98c-1.1,2.3,2.57,0,0,0m79.92,.73c-1.38,2.2,2.57,.29,0,0m2.07,.09c-1,2.31,2.58-.06,0,0m-112.56,1.62c-1.07,2.33,2.55-.07,0,0m19.83,6.93c-1.3,2.19,2.57,.2,0,0m93.46-.16c.11,2,.26,4.11,1.91,5.48,0-.51,.1-1.55,.14-2.06-.57-.82-1.11-1.64-1.64-2.46h2.14l-2.55-.91m-94.15,6.34c.26-1.47,.41-2.96,.45-4.45-.93,1.3-1.1,2.99-.45,4.45m105.34-4c-.3,1,.09,1.42,1.18,1.11,.3-1-.1-1.41-1.18-1.11m-88.9,6c1.06,.29,1.44-.09,1.17-1.17-1.08-.3-1.46,.09-1.17,1.17m71.87,3.17c0,2.57,2.28-1.13,0,0m-.68,1.06c-.09,1.07-.16,2.15-.21,3.24,1,.81,2,1.61,3,2.42-.45-.69-.88-1.38-1.31-2.06,.43-1.4-.19-2.91-1.48-3.6m-.26,5.07c-1.09,2.31,2.55,0,0,0m-114.66,5.15c.42,1.89,.87,3.78,1.19,5.69l2.55-.28c-1.02-1.95-2.28-3.77-3.74-5.41m11.38,6.23c.1,2.56,2.24-1.21,0,0m24,18.42c.58,1,1.12,1,1.65,0-.58-1-1.13-1-1.65,0m-27.26,1.38c-.14,1.57-.29,3.15-.45,4.72l.55-1.61c.47,.99,.89,2.01,1.25,3.05-1.07,.96-1.86,2.21-2.27,3.59l2.13-.53c-.1-.4-.3-1.19-.39-1.58,1-.34,2-.65,3-1-.39,.9-.78,1.81-1.19,2.71,.61-.5,1.23-1,1.87-1.45,.41,1.12,.94,2.19,1.58,3.19,1.09-2.35-1-4.82-3.37-5-.24-.92-.47-1.84-.7-2.74,1.11-.1,2.23-.18,3.36-.25-1.45-.32-2.88-.65-4.3-1-.38-.74-.73-1.44-1.09-2.16m27.23,0c.07,1.08,.58,1.27,1.51,.59-.09-1.08-.6-1.28-1.51-.59m-9.35,1.16c.22,.71,.44,1.41,.68,2.12h-1.88l1.15,1h4.78c-.67-.76-1.36-1.5-2-2.23l1.14-1c-1.29,0-2.57,.07-3.84,.07m5.47,8.43c0,.62,0,1.25,.05,1.89l1.62,1.44c-.07-.27-.23-.8-.3-1.06,1.83-.69,.66-2.72,.85-4.07-.75,.59-1.49,1.19-2.22,1.8m-6.01,.39c.81,1.61,1.42,3.55,3.2,4.38-.27-.38-.81-1.13-1.07-1.51,.63-1.9-.28-2.81-2.13-2.87m116,0c1.06,1.68,2.06,3.4,3.17,5.07-.42-1.62-1-3.19-1.57-4.75l-1.6-.32m-15.77,8.12c-.26,1.06,.16,1.48,1.22,1.22,.25-1.07-.16-1.48-1.22-1.22m18.08-.15c-1.09,2.32,2.57,0,0,0m-143.44,6.52c-.53,1.58-1,3.19-1.44,4.8,.47-.17,1.4-.54,1.87-.72,0,2.43,2.5,3.7,3.75,5.47-.94-2.04-1.46-4.25-1.53-6.49-.72-.3-1.44-.6-2.16-.88-.12-.54-.36-1.63-.49-2.18m-54.88-356.49c-1.63-.68-1.71-2.36-1.73-3.85,.54,1.29,.83,2.73,1.81,3.8,.15,.38,.46,1.16,.6,1.55,1.48-.22,3-.42,4.45-.68l2.52,1.17c-1.06-.22-2.14-.81-3.15-.15-.5,.67-1,1.37-1.42,2.07l-.94-.66-.55,1,1.54,.9c.06,1.08,.15,2.17,.26,3.26h2.27c.12-.59,.36-1.76,.47-2.34h.75v3.26c1.12,.63,1.99,1.64,2.45,2.84l-1.7-.33c1.83,1.35,2.85,4,5.23,4.43,0,.14-.1,.43-.14,.58l-1.76-.22c.48,2.14,2.51,2.5,4.34,2.22-.29,1.23-.24,2.51,.12,3.72,0,1.45-.1,2.91-.15,4.37,.31-.73,.93-2.18,1.23-2.91,1,3.84,1.62,7.77,1.85,11.74l1.66,1c.07,.32,.19,.95,.25,1.28-2,3.07-.91,7-.74,10.37-.1,1.09-.17,2.17-.23,3.27,1.28,.05,2.58,.12,3.87,.21l-2.45,1c.09,.89,.19,1.78,.31,2.68,.44-.93,.86-1.87,1.32-2.79,.55,1.12,.69,2.4,.38,3.61,1.08,1.62,1.86,3.52,.68,5.32-.17-.61-.53-1.83-.71-2.45l-1.49,.38c-.24,1.4-.51,2.81-.8,4.2l1.32-.56c0,.35,.13,1,.19,1.39-1.6-.19-2.38,.68-2.53,2.21,1.52-.15,2.95-.77,4.11-1.77-.09,1.39-.1,2.78-.05,4.17-.59-.98-1.32-1.87-2.18-2.63-.38,1.43-.72,2.86-1.08,4.29l1.58-.27c-.05,1.64-.93,3.71,.95,4.71l-1.36,1.82c.21,.48,.44,1,.67,1.46l-2.66,1c-.07,.94-.19,1.88-.36,2.81l1.28,1.69-1.42,.55,1.52,.15c-1.35,2.24-1.32,4.84-1.29,7.36,1,.37,2,.73,3.09,1.08l.08,.52c-1.44,0-2.88,.07-4.32,.1l2.08,2c.52-.22,1.06-.43,1.6-.64-.36,1.02-.66,2.07-.87,3.14l2.13-1.46c-1.74,1.82-2.8,4.18-3,6.69-1.33,2.21-1.75,4.85-1.17,7.37-.15,.94-.31,1.88-.44,2.83l-1.68-.24c1.26,2.53-1,5-2.06,7.2-.57,1.5-2.55,1.18-3.37,.09l-2,2.27v2.38l-2.28-.07v1.16l-1.44-.5c0,.52-.05,1.56-.06,2.09-1.37,.13-2.74,.29-4.09,.46l.51-1.35-2.74,1-1.38-.76c-1.28,.74-3.22,1-3.15,2.91-1.29,.36-2.79,1-3.87-.19-1.63-.42-3.35-.28-4.89,.39l-1.95-.44c-2,.77-4.2,1-6,2.18l-2-.2-.44-2.05c-2.26-.71-4.63-1.04-7-.95l.6,1.9-1.29,.1c.12-.39,.38-1.18,.51-1.58-2.57-1.59-4.79-3.67-7.39-5.2l-1.31,1.48c0-1.94-.06-3.87,0-5.81-.78,.95-1.59,1.88-2.35,2.84-1-2.15-.61-4.61-.9-6.91-.53,.29-1.06,.58-1.58,.88-.74-1.14-1.87-1.96-3.18-2.32,.73-.52,1.47-1,2.22-1.55-1.44-.55-2.51-1.79-2.86-3.29,.92-2.42,.49-5.15-1.15-7.16-.05-2.67-1.12-5.22-3-7.12l2.24,1.51c-.14-.75-.41-2.23-.55-3l1.41,.45c.6-.66,1.22-1.31,1.83-2-1.58,.2-3.19,.03-4.69-.5,1.69-.42,3.4-.74,5.13-.95,.21-.79,.43-1.57,.66-2.35l2.22,.1c-1.13-1.62-3.07-2.15-4.81-2.79,.17-1.26,1.54-2.76,.15-3.77,.59-1.08,1.19-2.17,1.8-3.25-1.47-.58-2.93-1.11-4.42-1.6,.19-.5,.37-1,.57-1.51-1.59-.69-1.25-2.15-.19-3.14-.08-1.46-1-3.33,1-4-.2-1.15-.43-2.3-.62-3.45-.84,.44-1.67,.89-2.49,1.34-.39-.61-.8-1.2-1.12-1.83l1.64-1.34c-.23-.62-.67-1.86-.89-2.49l1.06,.53c-.24,.99-.11,2.03,.37,2.93l1.83,.73,2.42,1c.11-1.57-.29-3.13-1.13-4.46-.88,.69-1.74,1.39-2.62,2.06,.49-1.3,1.08-2.57,1.76-3.78,0-1.78,.69-3.76-.58-5.29,0,.87,.06,2.61,.09,3.47l-2.14-.27-.28,2.55c-1.9-2.81,1.1-5.85,.46-9,.73,.82,1.48,1.66,2.23,2.48,0-1.56-.78-3.01-2.09-3.86l3.63,.52c-.18-1.27-.37-2.54-.57-3.8,.49-1.25,1-2.49,1.49-3.72-.4-.06-1.21-.16-1.61-.2,.42-.38,1.24-1.12,1.64-1.5l-1.61-.77c.66-.54,1.31-1.07,2-1.59-.93-.78-1.88-1.54-2.82-2.29v-2.21h-.93c.13,1.17,.28,2.35,.46,3.53l-1.63,1.08c.19,.68,.58,2,.77,2.71-.68-1.3-1.41-2.62-3.17-2.44,.32,.59,1,1.77,1.31,2.36-1,.94-1.89,2.62-3.55,2-.2-.5-.6-1.5-.81-2-.47,1.22-1,2.44-1.45,3.66l1.71-.28,.4,2.2,1.77,.2c-1.14,.97-2.56,1.56-4.05,1.71-1.35-.82,.46-2.25,.77-3.19l-1.55,.82-1.89,3.19c-.26-.56-.79-1.67-1-2.22-1.12,1.1,.17,2.45,.35,3.66,.38-.7,.79-1.4,1.19-2.09,2.44,1.8,.87,4.67-.92,6.24,.34,.29,1,.88,1.35,1.18l-1.54,.56,.79,1c-2,.27-4.12,.44-5.59,2,1.71-.39,3.37-.94,5.06-1.44-1.34,3.55-2.6,7.15-4.18,10.61-1.04,3.66-2.38,7.23-4,10.67,.23,2.82-.92,5.45-1.93,8l-1.55,.55c-.11,1.38-.24,2.76-.39,4.14-.85,5.56-2.24,11.03-4.14,16.32,.07,.52,.21,1.57,.27,2.09l-2.88-.93,1.86,1.51c-.22,.6-.45,1.19-.66,1.79,.27,1,.53,1.92,.82,2.89l-1.79-.09c.29,.77,.58,1.54,.88,2.32l-1.87,1,2.16,1.67c-.68,3.75-1.15,7.53-1.51,11.31-.22,2.63-2.06,5.06-1.24,7.74-.33,1.4-.66,2.8-1,4.21-.1,1.68-.41,3.34-.92,4.95l1.55,.7-2.08-.38c-.32,.87-.64,1.74-.94,2.62,1.35,1.87,2.24,4.02,2.61,6.3-.4,1.81-.58,3.67-.51,5.53l-1.24,.83c-.34,1.18-.69,2.35-1,3.53l2.51-.43-2.37,.9c1.21,1.48,2.05,3.22,2.46,5.09-.17,3.69,.12,7.43-.62,11.08,.5,2.97,.67,5.99,.52,9h-2.2c1.64,.39,2.54,1.79,3.45,3.08l-2.21-.09,.2,1.87,2.13,2.33-2.5-.06c.61,.77,1.23,1.52,1.88,2.29,0,.72,.13,1.44,.2,2.17-.8,.45-1.58,.92-2.36,1.4l1.73,.38c.37,1.9,.27,3.86-.27,5.72l.72,2.14-1.59,1.29c.43,1.46,1.27,2.76,2.42,3.76,.13,1,.27,1.91,.41,2.87h-2.25c2,3.26,1.43,7.11,2.67,10.55-.21,3.31-.39,6.78,1,9.89,1.45,5.38,1.9,11,2.7,16.45,1.36,3.79,1.76,7.79,2.42,11.72,1.48,3,1.91,6.38,3.87,9.09-.1,1.06-.22,2.13-.29,3.2,1.46,2.32,1.37,5.5,3.79,7.21,1,3.21,3,6,3.78,9.26,.61,.52,1.26,1,1.84,1.61-.2,1.84-.09,3.7,.31,5.51,1,0,2.27-.49,3,.49,2,1.92,4.06,3.82,6.72,4.76,4.78,2.57,10.38,1.76,15.55,2.55,.53-.38,1.06-.74,1.6-1.1l2.46,1,1.15-1.33c2.22-.52,4.41-1.18,6.59-1.86,1.06-.99,2.39-1.64,3.82-1.86,1.7-3.12,5.28-4.19,7.61-6.68,1.86-1.82,2.77-4.33,4.33-6.39,2-3.41,5.91-5.85,6.23-10.09l.93-1.07c2.27-5.64,5.53-11,6.34-17.12l1.5-.33-.12-2.53c1.89-2.62,3.09-5.67,3.51-8.87,.51-1.32,1-2.65,1.44-4l.62,.24c1.46-2.19,4-2.57,6.45-2.46,.13-.62,.4-1.86,.54-2.48,.57,.81,1.1,1.65,1.64,2.51,.26,0,.77,.06,1,.08-.53-4,2.53,.29,2.61,1.62l1.49,.51c.12,.47,.37,1.41,.48,1.87l1.51-1.19c.45,1.78,.85,3.58,1.24,5.38h1.46c-1.24,1.49-2.86,3-2.91,5.09,.16,1.66,.46,3.31,.55,5,1.11-.25,2.26,.09,3.06,.89-.52,1.15-1,2.31-1.5,3.48l1.09,1.67c-.77-.78-2.94-3-2.86-.41l1.26,1.17-.51,.79,1.24,.75c-3.84,1.94-2.79,6.52-1.87,9.86,.8-.53,1.62-1.05,2.45-1.57-.11,1.56-.21,3.14-.38,4.7-1.66,.36-3.16,1.22-4.3,2.47l-1.09-.42c-.39,.71-.78,1.42-1.15,2.14,.92-.21,1.85-.41,2.79-.6-.77,.69-1.56,1.36-2.33,2-1-1.16-2.07-2.32-3-3.54l-.26-.12c-.07,.42-.23,1.26-.31,1.69-.81,.77-1.32,1.81-1.43,2.92,.72-.82,1.06-2.46,2.48-2.13,.84,.85,2.08,1.74,1.93,3.09h-2.47c.89,1.89,0,3.73-1.12,5.29-.15,1.26-.29,2.53-.42,3.81l1.38-.72,.41,.67c-1.67,.14-3.27,.56-3.59,2.45l2,.34v1.84c-1.08,1.51-1.96,3.16-2.63,4.89-1.43-.46-2.87-.89-4.32-1.24-.23,2.37,1.85,2.59,3.58,2.5v.5c-.56-.13-1.71-.41-2.27-.56l.64,2.24c-.86-.87-1.83-1.63-2.87-2.27-1.06,.79-.48,2-.33,3.08l-1.27,1.49,4,2.37c-.48,.66-1,1.31-1.41,2l1.44,.77-2.16-.24c-.22,.6-.65,1.79-.86,2.39,.22,.3,.66,.89,.87,1.19l-1.81,.07c.42,.5,.89,1,1.32,1.54l-2.21,1.09c-1.12,.86-2.3,1.61-3.49,2.36,0,1,0,2,.08,3-1.56,1.95-3.14,5.2-6.21,3.84,0,.61,.14,1.84,.2,2.46l-2-.27c-1.36,2.41-3.84,3.82-6.18,5.1-.76,.72-1.58-.06-2.32-.34-1.39,.97-2.84,1.85-4.33,2.66-.18,.88-.34,1.76-.49,2.66l-2.58,.08-1-1.42c-.89,.77-1.79,1.55-2.66,2.34-.06-.62-.19-1.86-.26-2.48-.32,1.11-.6,2.22-.85,3.36l-1.75,1.66c1.14,.12,2.29,.21,3.45,.32-.87,.75-1.75,1.48-2.64,2.2-1.32,.36-4.12-.21-3.85,1.88,.15,.38,.42,1.15,.56,1.53-.78,.19-1.56,.39-2.31,.61,.07-.32,.2-.94,.27-1.25l-2.59,.29-1.46-1.67c-1.28-.27-2.55-.54-3.82-.76-.13,1.39-.25,2.78-.33,4.18-.15,.3-.44,.92-.6,1.22l-2.11,.51,2-.88c-.16-.8-.33-1.59-.51-2.36-1.57-.19-3.09-.7-4.46-1.5l1,1.38c-1.49,.2-3,.42-4.46,.67,0,.74,.05,1.49,.09,2.24,1.17-1,2.58-.75,3.93-.35-1.58,.52-3.19,1.36-4.86,.65,0,.36-.13,1.07-.16,1.42l2-.11c-.3,.5-.92,1.49-1.24,2l2.25,1.56c.93,.37,1.88,.73,2.81,1.14-1.56,0-4.35,2.1-4.3-.82-1.52-.05-3,0-4.54,0-.57,.71-1.12,1.42-1.68,2.15l-.79-.71c-1.84,1-3.87-.12-5.82,0l1.4-1.65-2.08-.58c-.24-1.12-.52-2.23-.85-3.31,1.29,1.86,3.09,3.32,5.18,4.19,.18-.65,.37-1.3,.53-1.94-3.03-2.39-7.14-2.88-10.65-1.28,1.16,.35,2.31,.64,3.49,1-1.46,.27-2.93,.5-4.39,.76v-1c-1.94,.36-2.47-1.68-3.61-2.72-1.58-1.31-3.43-2.26-5.41-2.79-.59,.47-1.16,.94-1.73,1.41,.06-1.5,.09-3,.12-4.49l-2.18-.2c.7,.57,1.4,1.15,2.1,1.75-2.21,1.54-4.58-.44-6.47-1.58,.22,1.06,.53,2.09,.82,3.14,1.18-.42,2.45-.57,3.7-.43-.59,2.37-3.13,2.61-5.16,2.85-.16,.5-.49,1.51-.66,2-1.21-1.65-2.07-3.53-2.54-5.52,1.27,.69,2.54,1.47,3.82,2.18-.23-1.67-1.71-2.89-3.4-2.77l-1.33-1.64c.09,.66,.27,2,.37,2.6l-.82-.08c-.09-1.49-.3-2.96-.64-4.41-.47,.61-.93,1.21-1.37,1.83l-1.84-1.4c.09-.88,.17-1.76,.27-2.62-.8-.86-1.5-1.79-2.3-2.62-1.48,.19-2.94,.51-4.4,.81l.76-1-2.81,.47c.11,.45,.32,1.33,.43,1.77l-1.37,.23c.19,1.3,.19,2.61,0,3.91-.58-1.16-1.11-2.32-1.63-3.48,.98-1.37,2.04-2.68,3.18-3.91,.93,.2,1.81,.66,2.77,.77,.16-.21,.47-.65,.62-.86l2.1,.12c-1.15-1-2.33-2-3.49-3,.89-.61,1.78-1.22,2.67-1.81-.85-.26-1.71-.51-2.56-.75-.53,.86-1.21,1.62-2,2.25-.23-1.24-.66-2.44-1.27-3.54,0-.27,.05-.81,.07-1.08l-2.5,.94c1.61,.77,2.15,2.42,2.7,4,.94,.62,1.87,1.26,2.76,2-1.53,.45-3.06,.86-4.57,1.34-1.7-1.91-3.67-3.69-6.27-4.18,.08-.37,.23-1.13,.32-1.52-.58,.23-1.14,.45-1.7,.69-.94-.36-1.87-.7-2.81-1,.16,.5,.48,1.5,.65,2-1.28-.2-2.57-.38-3.85-.53,1.3-.25,2.49-.88,3.41-1.82-1.52-.89-2.97-1.91-4.32-3.05l1.22-1.41c-2.24-.56-2.51-3-3.19-4.84-.91-1.24-3.21-2.5-2.16-4.26,.81-.48,1.7-.82,2.62-1,0-.23,0-.69-.05-.91-1.09,.7-2.14,1.92-3.49,1-1.95-.93-.61-2.57,.65-3.26-.24-.69-.44-1.37-.66-2-.36,.49-1.1,1.46-1.47,1.95-.16-.87-.31-1.74-.45-2.6l1.29-.68-1.94-.27c.07-.52,.22-1.55,.29-2.07l-1.24,.44c0-1.86-.45-3.67-2.09-4.73,.11-.57,.32-1.71,.42-2.27,.63-1.27,1.33-2.49,1.86-3.8-.85-1.39-2.6-.81-3.91-1.07,.69-.94,1.4-1.86,2.14-2.77h-2.44c.87-1.85,1.78-3.68,2.75-5.48-.9,.61-1.77,1.24-2.65,1.86-.77-2.25-1.8-4.4-3.06-6.41,1.17,.14,2.35-.06,3.4-.6-4.4-1-5.68-6.43-4.85-10.26l-1.24-1.26c-.01-2.17,.1-4.34,.34-6.49l-1.67-2c.16-.66,.34-1.3,.52-1.95-.65-1.75-1.25-3.52-1.9-5.26,1.36-1.88,2.47-3.93,3.29-6.1,.2-1,.41-2,.61-3l1.07,.67-1.17,1.12h2.73l-.53-.8c1.41-1.85,3.68-2.84,6-2.62,0-.36-.07-1.07-.1-1.42-2.2,.83-4.31,1.88-6.3,3.13,.54-1.26,1.28-2.43,2.19-3.45,.43-1.22,.83-2.43,1.25-3.65l-2,.29c.85-2.05-1.29-2.52-2.75-3.11,1.71-.39,1.56-1.71,1.21-3.06l-2.28-.21c-.46-1.26-.59-2.65-1.45-3.72,.2,3-.8,6.4,1.51,8.88l-3.18-1c.49,1.26,.74,2.59,.76,3.94-2.05-1.36-1.59-4.09-2.23-6.14l2,.42-2.63-.9c.51-.93,1.08-1.84,1.69-2.71l-1.94-.59c.55-1.55,1.58-2.89,2.94-3.83l.92,1.45,.06-2.18c1,.73,2,1.48,3,2.2,0,1.59-.6,3.93,1.86,3.66,0-1.29,0-2.57,.13-3.85,.77,.72,1.37,1.62,1.74,2.61,.72-.51,1.46-1,2.2-1.51l1.47,.79c.88-.94,1.76-1.86,2.66-2.78-1.29-.49-2.65-1.25-3.93-.23-.5-.75-1-1.51-1.47-2.26l-.66,2.92c-.91-.38-1.75-.9-2.49-1.55,.73-.79,1.48-1.55,2.27-2.29l-1.83-.66,1.07-1.82c1.14,1.18,2.17,2.45,3.07,3.82l2.86-.83c-.14-1.46-.71-2.85-1.62-4,.22-.97,.62-1.89,1.18-2.71l.15-.12c-1.34,.31-2.64,.74-3.91,1.26-1.65-.25-3.3-.53-4.94-.79,.28-.78,.57-1.54,.86-2.3l.65,2.3c.44-1.03,.76-2.1,.95-3.2l-2.45,1c.23-1.4,1.32-2.5,2.71-2.75l.39,3.32h3.67c-.05-.44-.16-1.29-.21-1.73-1,.21-2,.43-2.93,.67,0-.66-.1-2-.13-2.66,.87-.35,1.76-.68,2.65-1-1.33,.07-2.66,.15-4,.24,1.25-.82,2.28-1.94,3-3.25,.91,1.12,1.89,2.17,2.95,3.14-.18-.44-.56-1.31-.74-1.74v-3.09c-1.14,.08-2.27,.17-3.39,.27,.45-.67,.91-1.33,1.38-2-.63-1.12-1.23-2.24-1.84-3.36,.82-2.37,1.16-4.87,1-7.37-.18-.32-.53-1-.72-1.29,.24-1.63,.39-3.26,.57-4.89l1.65,2.78c.34-1.74,.24-3.53-.27-5.22-.87,.94-1.73,1.9-2.58,2.85,0-.93,.1-2.8,.13-3.72-1.05,.83-1.72,2.05-1.87,3.38l-1.36-.62c-.59,.66-.43,2.77-1.79,2.08-.74-1.18-1.38-2.41-1.93-3.69l-1.48,1.72c.27-2.06,.22-4.15-.15-6.19l1.88,.2c0,1,.06,2,.1,3l2.39-1.74c-.11-.38-.32-1.14-.42-1.51,.08-1.08,.14-2.16,.2-3.22l.84-.21c.18,.72,.52,2.15,.69,2.86,.16-1.38-.03-2.79-.55-4.08,.2-.79,.41-1.58,.63-2.37-.75-.41-1.5-.82-2.23-1.24,.18-1.15,.34-2.3,.49-3.45l2.07-1.33c-1.24-.25-2.48-.45-3.71-.67l.48-2.77-.59-.1-1.15,2.21c.41,2.05,.7,4.12,.85,6.2-.68-1.52-2.63-3.23-1.09-4.86-.67-.71-1.37-1.39-2-2.07,.53,.09,1.6,.26,2.12,.36-1.51-1.46-.55-2.84,.53-4.07l2.89-.76c-.17-1.26-.51-2.5-1-3.67,.73-.59,1.47-1.17,2.19-1.78-2.62-.15-5.32,.3-7.83-.65v-1.41l1.92-1.86c-.67-.61-1.35-1.18-2-1.74,.73-.15,1.47-.31,2.2-.48-.1,.46-.33,1.38-.44,1.84l2.22,.85c-.54,1-1,2-1.52,3,1-.24,1.8-.98,2.13-1.95l2.23,1.33c-.67-1.13-1.35-2.25-2-3.35,.89-1.28,1.84-2.52,2.8-3.75-1.45-.34-2.85-.89-4.15-1.63l-2.43-1.31,2.33-.62c-.86-1.18-2.52-1.44-3.7-.58-.03,.02-.06,.04-.09,.07l-.4-1.51,2,.23c-.38-1.18-.72-2.33-1.09-3.49l1.28-1.07c-.56-.49-1.11-1-1.67-1.44l1.86-1.15c-1.19-1.36-3.19-2.6-2-4.64,.94-.07,1.89,0,2.84,0l-2-.72-.24-1.6c.81-1,1.5-2.08,2.08-3.22,.61,.76,1.26,1.53,1.91,2.29-.1-1.1-.21-2.19-.33-3.28-1.27,.46-2.56,.9-3.83,1.33,1.4-2.74,4.18-4.23,6.71-5.74l-.9-.58c-.8,.75-1.61,1.49-2.38,2.25,.67-1.39,.09-3.07-1.3-3.74-.11-.05-.23-.1-.35-.14,.07-2.27,.73-4.48,1.93-6.41,1.14,1.28,1.34,2.65-.16,3.63l-.4,1.57c1.71-1.55,3.5-3.01,5.38-4.35-1.05,.2-2.08,.42-3.12,.66-.92-1.41-1.96-2.75-3.09-4,1.12-.18,2.44,.05,3.35-.83-.3-3.67-1.41-7.44-.18-11.06,.93-2.91,1.46-6.11,3.38-8.57l2-.18c.17-.87,.36-1.73,.55-2.6-1.07,.2-2.17,.38-3.23,.56,0-.64,.11-1.92,.15-2.55l2.17,.14c.21-.8,.42-1.6,.64-2.4,.42-.95,.81-1.9,1.21-2.85-.56,0-1.67-.14-2.22-.2,.09,1.64,.15,3.28,.09,4.92-1.28-.78-1.46-2.16-1.58-3.5,.88-1.67,1.57-3.42,2.07-5.24,.44,1.17,1.03,2.26,1.78,3.26,1.47-1.19,2.69-2.65,3.61-4.3l-2.81,.23c.8-1.63,2.09-2.97,3.68-3.84-1-.23-2.04-.16-3,.2-.18-1.17-.36-2.32-.54-3.47l.7-.21c0,.56-.07,1.67-.09,2.23,2.07-.61,4.13-1.44,6.33-1.21-1.08-1.27-2.75-1.89-4.4-1.63,0-.34-.1-1-.13-1.39-.53-.27-1.58-.83-2.11-1.09,2-.25,4-.52,6.07-.79-1.27-.8-3.6-1.26-2.35-3.19-.48,1.1-1.67,1.71-2.84,1.47,.93-1.61,2.02-3.13,3.26-4.52-.39-1-.76-2.08-1.14-3.12l1.93-.45c.83-1.93,1.54-3.9,2.13-5.92l1,1.81c-.12-1.54-.07-3.1,.15-4.63,.66-1.74,2.15-3,3.3-4.38,2.55-4.94,5.81-9.52,8.76-14.24l1.44-.62c.59-2.5,2.27-4.61,4.57-5.75,.78-.85,1.59-1.67,2.41-2.49,0-.43-.08-1.3-.11-1.74,1.78-.23,3.36-1.12,3.27-3.14,1.28-.72,2.42-1.66,3.37-2.78,1.68-2,4.4-2.82,5.49-5.32,1.54-1.31,3.24-2.89,5.26-1.37l2.54-1.33c.33-.67,.67-1.33,1-2,.04-1.11,.16-2.21,.35-3.3,0,.53-.07,1.6-.1,2.12,.88,0,1.77,.07,2.66,.13,1.41-1.08,2.91-2,4.4-3l-2.53,.18-.86-1.78c1.36,.12,2.65,.68,3.67,1.59l-.07-1.24,1.69,.53v-2.7l-1.55-1.16c1.87,.06,3.73,.28,5.6,.49l-1.18-2.08c.42,.6,.85,1.2,1.27,1.81,1.26-.49,2.37-1.3,3.21-2.35v2.26c.95-1.56,2.1-3.09,2-5,2.72,.91,3.4,3.57,4.41,5.93,.24-1.94-1.89-5,.93-5.6-.48-1-1-2-1.5-2.94,1.23,.36,2.45,.77,3.68,1.17l-1.09,2.14c1-1.15,1.88-2.39,2.86-3.57-.14,.8-.42,2.41-.57,3.21l1-.95c2.46-.13,4.93-.55,7.39-.07l.28,1.61,3.43,.81-1.7,1.95,2-1.24c.06-.4,.16-1.18,.2-1.57-1.14-.66-2.26-1.34-3.35-2.07,1.58-.12,3.15-.13,4.73-.15,.31,1.29,.56,2.6,.78,3.92l3.53-2.06c.25-.67,.52-1.33,.81-2l.24,1.57,3.38,.86c-.37-1.24-.92-2.42-1.28-3.67,.41-1.45,1.8-2.35,2.76-3.44,.12,.53,.33,1.6,.45,2.13,1,.8,2,1.59,3,2.37v-1.68c.89-.54,1.77-1.11,2.63-1.71,1.84-.57,5.22-2.43,6.25,0l-1.5,1.47-1.53-1.51c-.09,.26-.26,.79-.34,1.06-1.14,.41-2.26,.87-3.37,1.34,.15,1,.31,2,.48,3,.97-.45,1.64-1.35,1.79-2.41,1.54,1.45,3.52,.3,5.31,.08,1.17,.37,2.31,.85,3.39,1.43,1-.28,1.95-.57,2.95-.84,.22-.67,.44-1.34,.67-2,.22,1.06,.46,2.11,.72,3.17,.49-.67,1-1.34,1.5-2,.81,1,1.79,1.86,2.89,2.53,1.15-.05,2.3,0,3.47,0,.52-.71,1-1.43,1.55-2.15-1.01,.3-2.04,.5-3.08,.6l-.06-.33c.26-.69,.49-1.38,.72-2.07m-20.08,4.22c-1,2.36,2.57-.18,0,0m23.63,8.62c.19,.33,.55,1,.74,1.35,1.4-.13,.17-2.32-.74-1.35m-1.22,2c0,2.57,2.3-1.07,0,0m2.31,1.58c0,2.58,2.27-1.11,0,0m-53,17.08c-1.17,.18-.93,2.12,0,2.48,1.14-.13,1.06-2.24,0-2.48m-12.72,2.8c-.19,.84-.36,1.69-.51,2.54h3.71c-1.07-.86-2.13-1.73-3.2-2.57m5.68,.24c-1-.06-1.58,1.81-.3,1.81,1,.05,1.54-1.82,.3-1.81m7.51,10.62c1.09-.64,1.11-1.3,.05-2-1.11,.63-1.13,1.3-.05,2m-66.39,8.83v3.52l1.17-2.5c.14,.62,.42,1.85,.57,2.47-.23-1.82,.39-3.64,1.68-4.95-1.15,.5-2.31,1-3.46,1.46m48.88-.39c-.41,1.25,0,1.68,1.27,1.32,.39-1.25,0-1.68-1.27-1.32m86,1.57c-1.09,2.34,2.55,0,0,0m-133.93,44.49c-.9,.71,.13,2.52,1.18,1.81s-.16-2.51-1.18-1.81m-14.15,3.07c-.83,2.41,2.56-.31,0,0m-4,4.26c1.09,.78,2.21,1.57,3.32,2.33,.63-.73,1.28-1.44,1.95-2.16,0-.39-.05-1.17-.06-1.56-1.77,.35-3.51,.81-5.21,1.39m-3.23,2.63c-.08,.91-.17,1.83-.25,2.75,.61-.39,1.22-.78,1.83-1.15,.05-.42,.15-1.28,.21-1.7l-1.79,.1m6.66,4.77c-1.16,.7-.09,2.85,1.09,1.8,1.17-.7,.07-2.75-1.09-1.8m142.1,.69c-.29,1.18-.59,2.37-.84,3.57,1.66-.1,1.57-1.55,1.6-2.82l1.46-1.24-2.22,.49m-150.63,5c.39,1.09,.78,2.17,1.19,3.26,1.04-1.11,1.76-2.5,2.05-4-1.09,.23-2.17,.49-3.24,.76m5.39,10.2c-1.31,2.17,2.55,.27,0,0m-5.11,1.69c.43,1.31,.95,2.59,1.54,3.84,.07-1.68,.15-3.36,.17-5-.59,.37-1.16,.77-1.71,1.2m17.63,14.44c.74-.76,.19-2.48-1-2.12-1.69,.45-.33,3.52,1,2.12m-20.79,11.67c-.64,1,.77,2.74,1.79,1.84,.71-1-.81-2.56-1.79-1.84m3.13,24.92c1,.31,1.42-.08,1.21-1.18-1-.31-1.44,.08-1.21,1.18m16.66,5.46c-1.16,.44-1.76,3-.38,3.4,.8-.68,1.48-2.82,.38-3.4m-4.31,4.92c-.63,.57-1.27,1.14-1.89,1.72,1.23,.43,2.77,.65,2.64,2.33,.03-.57,.39-1.07,.92-1.29l1.35,1.23c.64-.94,1.36-1.82,2.15-2.64l-1.82,1.29c-.12-.69-.36-2-.49-2.73-.3,.86-.39,2.07-1.59,2-1.33-1.86,.24-4.07,1.05-5.85-1.12,1.1-1.92,2.48-2.32,4m-2.59,2.8c-1,2.35,2.59-.17,0,0m35.9,9.17c-1,2.35,2.56-.1,0,0m-39.2,2.2c.2,1.51,.49,3,.77,4.54l1.24-.75c0-1.29,.13-2.57,.25-3.83h-2.26m3.37,6.03c-.08,.53-.22,1.58-.3,2.11-1.03-.08-2.01-.5-2.79-1.18,.48,1,1,1.94,1.46,2.9,1.11-.44,2.13-1.1,3-1.92l.58-.22c-.65-.56-1.3-1.12-1.91-1.69m33.57,0l1.76,1.9c-.93,.86-1.85,1.74-2.77,2.61,0,.29-.07,.86-.1,1.15,.68,0,1.36,0,2.06-.06,1.65-1.3,1.11-3.54,1.22-5.35l-2.17-.25m-37.43,34.84c-.53,.6-1.06,1.21-1.59,1.83,1.07,.19,2.15,.39,3.23,.61l-2.42,.52c.46,1.4,.91,2.83,1.27,4.27l2.8,2.08c.6-1.47,1.1-3,1.6-4.47-.88-1.3-1.8-2.57-2.79-3.77,.41-.15,1.23-.45,1.65-.59l.52-1.25c-1.41,.27-2.84,.54-4.27,.77m13.79,3.8c-1,.56-.1,2.43,.84,1.41,.85-.61,.14-2.4-.84-1.41m-4.25,3.71c-.45,.64-.9,1.28-1.35,1.94l-2.18-1.36c-1,.3-1.38,1.42-2.07,2.12l.87,.87c.09-.32,.25-.94,.34-1.25,1.4,.3,2.86,.05,4.08-.71,.1-.54,.2-1.08,.31-1.61m.69,6c-.89,.85,.45,2.88,1.39,1.63,.9-.93-.37-2.82-1.39-1.63m-14.58,3.28c.5,1.17,1,2.37,1.57,3.55,.1-1.73,.07-3.47-.1-5.19-.52,.53-1,1.07-1.47,1.64m9.9,2.25c-1.18,.22-1.4,2.37-.14,2.63,1.14-.18,1.36-2.45,.14-2.63m-2.32,4.42c-.28,1,.12,1.41,1.21,1.06,.27-1.06-.13-1.42-1.21-1.06m.77,4.32l-2,.66c1.54,1.56,3.39,2.78,5.42,3.59-.24-.34-.71-1-1-1.35,.05-.6,.16-1.81,.22-2.42l-2,.47,.36-2.54-1,1.59m-7.3,2.71c-1.14,2.31,2.58,0,0,0m16.39,.84l2.66,.38-1.2,1.85c.42,3.17,1.14,7.15,4.39,8.58-.05,2.25,1.13,4.34,3.09,5.45-.36-1.4-.76-2.78-1.2-4.14l-1,.43c-.12-1-.23-1.94-.34-2.91-.93-.5-1.85-1-2.75-1.52,1-.39,2-.72,3-1.11l-3.46,.14c-.07-1.1-.14-2.19-.17-3.28,.51,.06,1.54,.17,2,.24,0-.25,0-.72-.08-1l-1.83,.62c.08-.65,.22-2,.3-2.62-.92-1-2.13-2.82-3.47-1.15m-17.78,1.7v-1.62c-1.27-.47-1.26,2.09,0,1.62m159.61,6.89c.88,.62,2.38-.71,1.64-1.62-.92-.85-2.22,.72-1.64,1.62m-4.41,1.06c1,.24,1.42-.16,1.12-1.23-1.07-.26-1.44,.15-1.12,1.23m-126.3,4.19c.78,.76,1.59,1.48,2.41,2.22-.07,1.38-.17,2.77-.3,4.15,.9,1.83,1.58,3.77,2,5.77,.8,.24,1.6,.47,2.41,.73-3.66-1.43-1.12-6.11-3.7-8.39,.1-1,.21-2,.33-3-1.06-.49-2.1-1-3.16-1.44m-21.99,7.06l-1.82,1.26c1-.24,2-.49,3-.78-.27-.65-.61-1.27-.9-1.88,0-.45,0-1.33,.06-1.77-.86,.83-1,2.16-.35,3.16m1.01,5.08c.85,1.36,1.46,2.86,1.78,4.43h.82c-.16-.41-.51-1.24-.68-1.67l2.16-.37c-.17-2.33-2.36-2.16-4.08-2.4m4.05-.15c0,1.34,.1,2.69,.13,4.05l2.32,1.3c-.07-.5-.21-1.5-.29-2,.4-.88,.78-1.77,1.17-2.65l-3.35-.69m9.25,.44c-.42,1.6-.81,3.22-1.2,4.83l2.16-.13c-.09-1.61-.43-3.19-1-4.7m8.52,2.25c-.88,.8,.39,2.43,1.39,1.77,.84-.8-.41-2.4-1.39-1.77m119.84,1.58c1.07,.84,1.83-1.55,.46-1.48-.11,.37-.35,1.11-.46,1.48m-72.79-.43c-.4,1.2,.05,1.62,1.32,1.24,.38-1.23-.06-1.64-1.32-1.24m-50.57,.8c0,2.58,2.3-1.1,0,0m4.44,7.18c-1.2,2.24,2.57,.14,0,0m-.72,8.14c.15,.74,.3,1.5,.47,2.27,1.1,.43,3.07,1.75,1.23,2.73,1.31,.12,2.11,1.27,3.15,2-.43-.98-1.07-1.86-1.88-2.56-.08-.39-.22-1.17-.29-1.56-.91-.95-1.78-1.91-2.68-2.84m5.22,4.87l1.5,1c-.55,1.19-1.07,2.4-1.56,3.62,.83-.27,1.65-.54,2.5-.8,.14,.41,.44,1.23,.6,1.64,1.43-1.55-.28-2.59-1.16-3.65,.05-1.09,.09-2.18,.11-3.26-.5,.37-1.49,1.13-2,1.49m-5.48,2.43l.08,2.14-1.94-.92c-.13,.35-.37,1.07-.49,1.42,1.6,.77,2.82,2.16,3.36,3.85l-.16-3.18c1.65,.1,3-.51,3.4-2.25-.82,.4-1.64,.82-2.45,1.25-.61-.79-1.19-1.56-1.8-2.31m9.52,2.71c-.6,1,1.16,1.67,1.89,1.19,.52-1-1.19-1.76-1.89-1.19m-13,3.89c2,.65,3.93,1.41,5.94,1.94-.28-.81-.56-1.61-.86-2.41l-.39,1.81c-1.38-.86-2.69-1.85-3.9-2.94-.27,.53-.54,1.06-.79,1.6m11.51-1.27c-.25,1.15-.92,2.16-1.87,2.85l-.35,.82c1.76-.44,3.53-.82,5.3-1.23l-3.4-1.42c1.19-.47,2.4-.92,3.61-1.36-1.11,.07-2.19,.19-3.28,.28m3.85-.1c-.92,.56-.11,2.48,.84,1.43,.81-.62,.15-2.44-.84-1.43m-15.2,8.13c-.68,1,1,1.79,1.64,1,.69-1-1-1.77-1.64-1m18.45,3.95c.36,1.37,.73,2.73,1.15,4.1,.59-1.25,1.15-2.5,1.65-3.76-.94-.12-1.88-.24-2.8-.34m15,5.7c.08,1,.18,2.12,.29,3.19-1.18,.96-2.06,2.23-2.56,3.67,1.09,0,2.17-.1,3.27-.18l-1.73-1.75c.85-.8,1.72-1.59,2.58-2.37-.62-.86-1.23-1.72-1.85-2.56m-6,2.64c-.32,1.08,.05,1.43,1.12,1,.31-1.1-.06-1.44-1.12-1m47.79,1.86c1.65,.16,3.44,.3,4.85-.78-1.64,0-3.54-.5-4.85,.78m-36.09,1.05l2.45,1c-.18,1-.35,2-.5,3.06l3.45,.48-1.64-2.67c1.29,.3,2.59,.66,3.9,.95-1-1.54-2.88-1.57-4.47-1.93,.23-.33,.69-1,.91-1.33-1.37,.13-2.75,.25-4.1,.47m43.64-365.29c2.26-1.23,.17,2.59,0,0m16.72,.38c1,.15,1.2,.67,.49,1.58-1.06-.15-1.23-.68-.49-1.58m-306.39,.08l1.71,1.48c-1.64,.58-2.15,2.23-2.92,3.6,.31-1.71,.71-3.41,1.21-5.08m3.2,1.15c1.08-.2,1.44,.23,1.08,1.28-1.06,.2-1.42-.23-1.08-1.28m300,0c1-.34,1.62,1.38,1.18,2.12-1,.24-1.72-1.39-1.18-2.12m-23.2,.52l1.85,.39c-1,.69-2,1.38-3,2.08v-.39c.26-.52,.81-1.56,1.08-2.08m-280.45,6.58c1.29-1.72,2.47-3.52,3.68-5.3v1.92c1.6,.55,1.85,2.1,2,3.6-.75-.52-1.47-1-2.19-1.57l-1.08,3.4c1.65-.43,3.32-.76,5-1,.2,.62,.62,1.89,.82,2.52l-2.07,.89-1.25-1.93c.4,1,.79,2,1.19,2.95l2.77-.58,2.25,.42-1.78,.14,1.71,2c-1.17,.48-2.38,.81-3.63,1,.8,1.21,2.21,1.28,3.49,1.52,.08,1.47,1.34,2.59,2.8,2.51,.07,0,.13,0,.2-.02-.45,.95-.88,1.91-1.31,2.87,1.02-.72,2.25-1.08,3.5-1,.36-.45,1.07-1.37,1.43-1.83-1,2.16-2,4.33-1.91,6.76-1.51,1.86-2.72,3.94-3.57,6.18,1.73-.9,3.57-1.57,5.47-2-.67,1.22-1.51,2.34-2.49,3.33l-2.37-.18c-.83,1.11-1.47,2.36-1.89,3.68,1-1,1.9-2.11,2.87-3.15-.14,1.59-.53,3.15-1.13,4.63,.07,.95,.15,1.89,.22,2.84l2.65-.55c.73-.6,1.48-1.19,2.22-1.77-.15,.89-.28,1.78-.43,2.67l2.19-.23c-1.27,1.58-2.38,3.28-3.29,5.09l1.28,3.17c-1.15-.83-1.82-2.41-3.3-2.72,.68,1.84,2.19,3.15,3.07,4.88l1.07,.21c.18-.36,.54-1.09,.73-1.45,.09,1.19,.2,2.37,.3,3.57-1.91,.92-.92,3.23-1.08,4.88l2-.51c-.3,1.16-.59,2.33-.89,3.49l-3.29-1.61c1.72,3-.7,5.5-2.23,7.81,.33,.66,.65,1.33,1,2-1.07,1.5-1.82,3.2-2.22,5l1.59-2.07,1.41,1.13c-.33,1.11-.65,2.22-1,3.35-1.63,0-3,.68-2.74,2.52,1.4-.75,2.74-2,4.46-1.84,.05,1.22-1.13,1.58-2,2.11,.11,1.25,.22,2.51,.34,3.77l-1.17,.95c.07,1.32,.13,2.65,.18,4-.95,.29-1.88,.6-2.82,.92l2.23-.15c.02,1.71,.36,3.41,1,5,.38-.13,1.15-.39,1.52-.53-.3,1.2-.59,2.4-.89,3.62l2-.1c.21,4.28-.31,8.57-1.56,12.67-.92,.77-1.55,1.83-1.79,3,1.63-.68,3.05-1.77,4.14-3.16,1.28,3.88-2.66,5.84-4.9,8.07l2.87,.11c0,1.93,0,3.86,.14,5.8,.26-.61,.79-1.82,1.05-2.42l2.12-.95c-.71,2.15-1.18,4.37-1.39,6.63l-1.43-.16c.43,1.74,.93,3.46,1.44,5.18l1.34-.59c-.63,1.8-1.31,3.58-2.07,5.34,1.69-.8,3.48-1.35,5.32-1.65-1.54,1.4-3.43,2.38-4.81,3.94,.41,1.27,.93,2.51,1.54,3.7l-3.14,.75c1.63,1.56,3.03,3.34,4.15,5.29-.18,1.16-.36,2.32-.55,3.48-1.35-1-2-2.16-.74-3.59-.92-.38-1.82-.77-2.73-1.16-.31,1.06-.62,2.11-.92,3.17l1.5-.15-.4,1v3.57l-2,1.35-.83,1.67c.91-.81,1.82-1.61,2.79-2.36-.56,1.55-1.23,3.06-1.86,4.59l1.81-1.37c.16,.28,.49,.82,.66,1.1l-1.42,.19,.2,1.67c2.55,.49,2-2.47,2.76-3.89,.56,.77,1.12,1.54,1.7,2.32l-1.72-.5c-.22,2.52-.64,5.03-1.24,7.49l-2.44,1.47c.21,.38,.61,1.15,.82,1.54-.49,1.13-1,2.27-1.4,3.43,.87-1,1.75-2,2.62-3-.21,1.76-.54,3.51-1,5.22l3,1,.48,1.42-2,1.76c.64,.94,1.29,1.88,1.93,2.83-1.38,1.2-2.75,2.4-4.06,3.67l2.55-.25c-.11,1.31,.15,2.75-.46,4-1.09,.66-2.9,.77-2.9,2.42-.51,1.27,.71,2.14,1.47,2.95,.25-.47,.77-1.41,1-1.87l-1.41-1.6c1-.05,2.1-.08,3.15-.11,.35-1-.26-3.09,1.48-3,1.49,2.27,.68,4.8-.51,7,1.1,1.52,2.12,3.11,3.26,4.62-.47,2.7-.53,5.59,.89,8-1.28,3.46-2.96,6.76-5,9.83,.13,.94,.29,1.88,.46,2.83,1.67-.5,2.98-1.82,3.47-3.49l-1.78-1.56c.76-.8,1.52-1.59,2.29-2.37,.09,1.43,.13,2.88,.29,4.32,1.17-.32,2.3-.8,3.45-1.21-.51,1.35-1,2.7-1.52,4.07l-2.5-1.29c-.19,1.16,.2,2.34,1.05,3.15,.51,1.65,1.15,3.37,.4,5.06,1.37,1.32,2.65,2.71,3.85,4.18,1.6,.16,3,.73,3.24,2.53-.8,.37-1.59,.76-2.37,1.17l2.68-.48c.59,2.4,.55,4.9-.09,7.28l.93,.1c.65,3.67,2.23,7.07,3.37,10.59,.79,0,1.59,.09,2.39,.16,1.33,2.11,3.44,3.51,5.5,4.86-1.2,.6-2.62,.6-3.82,0,1.41,1.14,2.88,2.21,4.38,3.24,1.64,.39,3.27,.81,4.93,1.11,2-1.55,4.46-2.65,5.68-5,.89-1.98,1.98-3.86,3.25-5.61l1.23,.18c.67-2,.82-4.4,2.37-6,1-.93,1-2.32,1.21-3.57l2.24-2c.37-1.79,.28-4.92,2.89-4.7v-1.91l-2.1,.17c1.27-3.91,5.24-5.92,7.86-8.86l-3.46,.46c.89-.77,1.8-1.52,2.72-2.27-.69-4.62,3.31-8.23,2.39-12.85,.78-.94,1.7-1.67,3-1.2,.73-1.85,1.31-3.76,1.74-5.7-.29-1.26-.67-2.5-1.14-3.7l1.58,.23c.36-2,1.77-3.41,3.13-4.78-.17-2.13-.44-4.29-2.32-5.62,2.16-.7,2.29-3,2.78-4.9l.84-.21c-.13-1.69-.25-3.37-.45-5,.55-1,1.1-2,1.68-3-.3-1.18-.62-2.34-.94-3.51,.81-.92,1.59-1.87,2.36-2.82l-2.25-.39c1-1.16,.45-2.3-.25-3.38,1.62-1.41,3.08-2.99,4.34-4.72-.47-1-.93-1.92-1.39-2.88,.71-.57,1.44-1.13,2.17-1.69h-3.46c.48,.18,1.45,.53,1.93,.69-.65,.51-1.29,1-1.92,1.54-.46,0-1.38,.08-1.84,.11,1.14-1.74,1.8-4.11,4-4.81,.51-2.75,.4-5.57-.3-8.27h-1.67c1.33-.96,2.71-1.88,4.12-2.77l-2.64-.39c.94-.4,1.89-.79,2.85-1.18-.66-.82-1.31-1.62-2-2.42,.19-1.64,1.36-2.69,2.62-3.59-1.1,.15-2.19,.33-3.29,.39,1.01-.99,2.09-1.91,3.22-2.75-1.2-.3-2.42-.59-3.61-.87,.23-2.09,1.68-3.53,3.28-4.7-.2-2.68,.03-5.38,.66-8-1.25,.11-2.49,.24-3.73,.37,.26-1.5,.87-2.93,1.77-4.16l.52,2.46c.75,0,1.49-.09,2.24-.12v-.74l-1.82,.3c0-1.45,.08-2.88,.2-4.3l2.65,.15c-.34-1.27-1.33-2.56-.6-3.9,1-1.67-1.22-3.67-2.93-3,.41,.6,.84,1.19,1.29,1.77l-.9,2.65c-.41-1.26-.59-2.59-.53-3.92l-2,.4c1.1-.79,2.33-1.37,3.63-1.72l-1.61-2.54c.94-.25,1.89-.51,2.85-.75-.08-.52-.25-1.54-.34-2.05,.62-1,1.23-2,1.84-3l-2.4,.16c.61-1.55,1.5-2.97,2.62-4.2l-2,.51c.24-1.55,.56-3.08,.82-4.62l-1.78-1c-.14-1-.28-2.08-.4-3.13-.84,.12-1.69,.23-2.53,.29v-2l-.94-.38,1.11-2.62-1.93-1.74c1,.37,2,.74,3.08,1.13-.62,1.37-2.21,3.26,.08,4.27,.25-2.08,1.19-4.01,2.66-5.5-.63-.94-1.23-1.9-1.81-2.87-.43,.66-.85,1.32-1.25,2-1.05,0-2.08,0-3.1-.06-.08-.75-.14-1.49-.16-2.23,.54-.3,1.62-.87,2.17-1.16-.79-.63-1.59-1.25-2.39-1.86,.06-.3,.16-.88,.22-1.18-.63-.76-1.63-1.33-1.75-2.39-.64-2.18,1.71-3.65,3.17-4.71-.26,1.14-.53,2.28-.82,3.42l1.73,.16c-.09-.37-.26-1.12-.35-1.51l1.78-.23c-.78-.65-1.55-1.28-2.31-1.94l2-.19-.64-2.5c.65,1.35,1.14,2.78,1.46,4.24,1.38-2.41,.69-5.28,1.39-7.88l-3.19-.41c.7-1.55,1.68-2.95,2.9-4.14,.16-.59,.46-1.76,.62-2.35,.73,.68,1.4,1.43,2,2.23-1.16,1.37-2.43,2.65-3.8,3.81,1,.14,2.05,.25,3.09,.34,.79-1.11,1.41-2.34,2.13-3.49l-1-.53c-.2-1-.4-2-.59-2.94,.75-1.31,2.09-2.18,3.6-2.31,.06-.29,.2-.86,.26-1.15-.9,.09-1.79,.16-2.68,.2,.38-.96,.85-1.89,1.4-2.76l1.8,1.24c1.2-1.55,2.42-3.24,1.5-5.26l1.37-.61c-.73-.36-1.45-.72-2.16-1.1l-1.29-.1c.78-1.67,2.45-1.62,4-1.63,.46,1.09,.92,2.16,1.42,3.24,1.66-2.74,.06-6.3,1.61-9.18,.75,.57,1.51,1.16,2.26,1.76-1.35,.61-2.67,1.54-1.08,2.84l.63-1.43c1.35-.4,2.62-1.05,3.74-1.91,.41-1.09,1.13-2.04,2.06-2.74-.34,1.09-.72,2.19-1.11,3.27,1,.61,2,1.24,3,1.88,.21-1.15,.39-2.3,.71-3.41,.82-.24,1.64-.44,2.47-.61l-1.58,1.2c.07,.27,.23,.82,.3,1.09,.82,.83,1.63,1.68,2.42,2.56,0-.6,.13-1.82,.17-2.43,1.11,1.35,1.13,3.12,1.61,4.71,.2,.74,.43,1.49,.66,2.23,.57,.22,2.71,.35,1.95,1.6l-.09,.38c1.09,.47,2.23,.81,3.4,1l.05-.49-1.75-1c-.24-.64-.36-1.32-.34-2l-.87-.26c1-1.18,1.9-3.28,3.79-2.84-.64,.92-1.14,1.93-1.48,3l2,2.18c-.34-.86-.67-1.73-1-2.6,.65-.72,1.15-1.56,1.48-2.48,.59,1.53,1.36,2.98,2.3,4.32,.44,.93,.91,1.87,1.39,2.79,.08,1,.51,1.47,1.3,1.34l.6-2.15,1.33-.61c.12,1.31,.81,2.51,1.88,3.28-.59,.2-1.18,.41-1.75,.63l-1.27-.21c-1.98,.92-4.16,1.33-6.34,1.19,.89,.83,1.8,1.65,2.72,2.47l.41-2c.94,.37,1.89,.73,2.84,1.12,.3,.81,.6,1.63,.92,2.44,0-.58,0-1.74,.06-2.33l3.14-.1c-.22,1.39-1.1,2.59-2.37,3.2-.3,.76-.6,1.53-.89,2.29,0-.73-.08-2.21-.11-3l-1.36,.82c-.05,1.18-.33,2.35-.81,3.43,.63,.53,1.26,1.05,1.92,1.56-.42-.5-1.24-1.53-1.65-2l2.69-.51c.33,.87,.69,1.73,1.08,2.58-.25,.59-.51,1.19-.76,1.79l-2.12,.74c.3,1,.6,2.07,.95,3.09v-2.94c1.45,0,2.78,.81,3.41,2.12,.54-.24,1.09-.47,1.65-.7-.11,.45-.34,1.36-.46,1.81-.94-.02-1.85,.34-2.52,1l2.48-.31v1c-1.47,.19-2.92,.45-4.36,.74-.23-1-.46-1.91-.73-2.86l-.2,2.63-1.66,1.39c.45,.47,.91,.94,1.37,1.4l2-.47c.08,1,.18,2,.28,3.06l-2-.72c1.28,1.64,3.32,1,5,.34-1,1.23-2,2.48-2.94,3.78,1.33-.05,2.65-.26,3.93-.63-.42,.82-.82,1.64-1.22,2.47l2-.67c.05,.4,.17,1.22,.22,1.64l-1.05,.11c.3,1.19,.57,2.38,.9,3.57l-1.71,.59c.39,1.25,2.14,2.72,.8,3.94-1.06,.82-.3,1.9,.22,2.77-.35,2.12,.76,3.9,1.85,5.61l-1.55,1.76,1.89,.62c-.49,1.34-.93,2.7-1.37,4l2.42,1.15c0,.88,.05,1.76,0,2.66l-2.58,.56c.73,1.21,1.63,2.32,3.21,2-2.11,1.69-.93,4.09,.22,6l-.71,1.38c.53,2.21,2.38,3.85,4.64,4.1l-2.46,1.58-1.68-1c0,.93,.23,1.85,.67,2.68,.2,1.49,.37,3,.55,4.48,.67-.13,1.36-.25,2.07-.36-.1,.4-.27,1.21-.36,1.61l-2.44,.47c.27,1.12,.57,2.23,.95,3.33-.26,.5-.49,1-.72,1.53,.37,1.4,.65,2.82,.85,4.26l-2.82-.3c1.52,.47,3.06,1,4.6,1.39l-1.66,1.47c-.64,3.9,0,7.87,.61,11.74l-.82,.77,.32,3.23,1.75-.34c-3.5,1.74-1.48,5.9-1.25,8.79l-2,.34,1.86,.12c-.24,2.02-.94,3.96-2.05,5.67l1.32-.28c-.35,1.45-.68,2.92-1,4.39l1.5-1.27-.23,2.25c.84-.67,1.71-1.29,2.61-1.86-.65,.81-1.39,1.55-2.2,2.21v.89l-1.79-.29c.83,1,2.72,2,1.29,3.5,.53,.77,1.07,1.55,1.62,2.33-1.09,1.51-2.24,3-3.47,4.43,.74,.23,1.49,.46,2.25,.71,.11,.31,.33,.93,.43,1.23l-1.49-.09c-.47,1-.93,1.94-1.34,2.95,.95-.44,1.87-.94,2.76-1.5l1,1.79c-1.2,.26-2.41,.49-3.62,.72,.47,1.37,.87,2.78,1.21,4.2l-2.5-1c.25,1.61,.54,3.24,.74,4.89l.92,.25c.05,4.1-2.69,9.21,.88,12.48-.53,.87-1.06,1.75-1.58,2.63l2.23,.6c-1.08,.3-2.18,.53-3.29,.68,1.67,1.29,1.4,3.83,.27,5.39-.22-.78-.67-2.33-.9-3.11-.38,2.83-1,5.67-.7,8.55,.93-.73,1.82-1.52,2.65-2.37,.1,.48,.3,1.42,.39,1.89-1.67,1.25-3.48,2.75-3.16,5.09-.44,.4-.88,.79-1.3,1.2,1.08,0,2.18-.07,3.28-.08-2.11,1.81-3.18,4.55-2.85,7.31,1.09,.32,1.94,1.16,2.28,2.24l2-.06c-1.32,1.2-2.73,2.32-4.2,3.33,0,1.92-.23,3.88,.52,5.7-1-.43-2.09-.84-3.15-1.22,.63,.64,1.3,1.25,2,1.82-.23,1.93,0,4-.64,5.82-.71,.32-1.43,.58-2.18,.79-.64,.87-1.28,1.74-1.9,2.63l1.8,.49c-.46,1.27-.77,2.6-.92,3.94-1.68,.3-3.33,.7-5,1.1,0,.5,.06,1.5,.07,2l3.1-2.39c.67,.36,1.34,.74,2,1.12-.74,.75-.84,2.4-2,2.56l-1.57-1.6c0,.64-.11,1.9-.15,2.53l2.48-.39c.9,1.56,1.25,3.38,1,5.16-.67-.66-1.32-1.35-1.95-2-.08,.56-.23,1.67-.31,2.23l1.4,1.46c-1.31-.11-2.63,.18-3.78,.83-.07,1-.13,1.93-.19,2.9l.94-2.29c.52,.73,1.08,1.45,1.55,2.24-.19,1.12-.45,2.24-.78,3.33-1.11,.67-2.23,1.3-3.36,1.89,.16,.33,.49,1,.65,1.34-.49,.72-2.16,1.06-1.7,2.15,1.6,0,3.2-.1,4.82-.08-.75,4.31-5.3,2.21-8.17,2.79,2.32-.23,4.6,.73,6.06,2.54l1.36-1c.62,1.69-.1,3.23-.95,4.67-.48-.82-1-1.66-1.41-2.49-.79,.39-2,2.69-2.31,.34l-1-.08c0,.53-.08,1.57-.11,2.08l-2-.58c-.19,.44-.55,1.31-.73,1.75-.73-.42-1.45-.82-2.16-1.21l1.22,.87c-.14,1-.28,1.94-.41,2.92,.88-.09,1.79-.14,2.68-.23v2l-.52-2c-.9,.77-1.78,1.56-2.65,2.37l-1.12-2.24c-.62,1.86-1.44,3.66-1.95,5.56,0,1.67,.13,3.34,.36,5-.73,.34-1.44,.69-2.15,1,.16,.4,.5,1.2,.66,1.6l-2.11,.15c-2,1.19-4.09,2.42-5,4.66,1.81,.29,3.57,.79,5.27,1.48-1.53,.17-3.05,.31-4.57,.38,0,.31,0,.92-.06,1.23-1.34-.33-2.43-1.3-2.92-2.59-.92,.21-1.83,.44-2.74,.69,1.22,.73,2.41,1.53,3.54,2.39l-1.86,1c0,.45,.1,1.37,.13,1.82l-2.51,.74c1.22,.64,2.46,1.27,3.71,1.9-1.45,.28-3.29,.16-3.79,1.9l-1.91-.62,2.77-2.74c-1.34,.38-2.64,.82-4,1.27-.37,1.17-1,2.17-2.35,2.1,.64,.44,1.28,.89,1.93,1.36,1.16,.25,2.51,.38,2.84,1.77-2.42,.5-4.31-1.07-6.31-2.11-3-.17-6-.17-9-.34,.31,1.26,.8,2.47,1.46,3.58l-1.95,.67c.62,.44,1.4,.6,2.14,.44,1.53,.15,2.52-1,3.5-2,.91,1.02,1.62,2.19,2.1,3.47l-2.4-1.1c-1,1.32-2,2.62-3,3.94-1-.3-1.92-.57-2.86-.92,.69-.87,1.94-1.39,2.12-2.57l-1.06,1.34-1.15-.75c-.69,1.07-1.94,1.65-3.2,1.49v2.21c-.61-.59-1.19-1.19-1.78-1.77,.66-1.1,1.25-2.24,1.76-3.42l1.46-.29c.37-1,.75-2,1.13-3l-3.64,1.85,.16,2c-2.39,.48-4.68,1.47-7.12,1.66-1.42-.38-2.81-.88-4.14-1.51-.85,.38-1.71,.74-2.58,1.11,.78-.47,1.57-.93,2.38-1.36v-3.39l2.95-.42c-1.54-.55-3.22-.55-4.76,0-1.52-.76-3.15-1.28-4.83-1.52-.13,.45-.37,1.35-.49,1.8-1.64,.39-3.31,.62-5,.68v-2.43l-1.37-.58c-.76,.83-1.51,1.67-2.26,2.51l2.41-1.31c.36,1,1.76,2.24,.07,3.15,1.37,.12,2.6,.86,3.36,2-1.39-.4-2.8-.79-4.2-1.12,.07,.42,.21,1.25,.28,1.65-1.07,.12-2.13,.23-3.18,.36-1.57-2-4.08-1.71-6.34-2,.85,.87,1.66,1.74,2.48,2.67-2.19,.06-3.55-1.8-5-3.11-1.74-.17-3.43-.64-5-1.4-2.1-.13-4.18-.55-6.17-1.24-1.18-.99-2.43-1.88-3.75-2.68,1.14-.12,2.29-.21,3.44-.3,.13-1.13,.26-2.25,.34-3.38-.62,.64-1.21,1.31-1.82,1.95-.77-.39-1.54-.76-2.31-1.12l-1.17,1.67c-1.29-.51-2.59-1-3.9-1.4-.1-.36-.32-1.06-.42-1.41-2.39,.53-4.25-1.13-5.87-2.62-1.27-.39-2.43-1.08-3.39-2,1.68,.23,3.36,.59,5,.92,1.42-.82,2.94-1.45,4.52-1.88,1-.56,2-1.09,3-1.59v-.84l-1.61,1.09c-.58-.56-1.17-1.12-1.75-1.66l-1.72,.5c-1.2-.55-2.4-1.11-3.57-1.72,.57-.83,.72-1.88,.41-2.84-.99,.51-2.03,.89-3.11,1.16,.9,.4,1.8,.82,2.69,1.28-1.54,.42-3.07,.83-4.59,1.3l-2.06-1.37,2.71-.61c-2.13-.52-4.43-.57-6.37-1.62,.24-1,.7-1.92,1.34-2.72l-2.06-1.39c.17,1,.37,2.06,.58,3.09-1.84-1.27-3.74-3.57-6.14-2l-1.6-.77c-.61-.5-1.23-1-1.85-1.44-2.13-1.06-5.67-2.35-4.6-5.41l-2.08-.79c-.62-.8-1.24-1.58-1.87-2.36,.12-1.25,.18-2.5,.24-3.75-1.25-.06-2.48-.09-3.73-.11-.16-.39-.52-1.17-.69-1.55l2.54,.58c.77-1.38,1.84-3.08-.08-4-2.16-.56-2,1.39-2,2.91-.73-1.49-1.45-3-2.14-4.47l3.3,.9c-.83-1-1.77-2-3.2-1.82-.1,.58-.31,1.76-.42,2.35-.93-.55-1.87-1.08-2.81-1.6-.19-.44-.58-1.32-.77-1.77l-.92,.53c.19-.61,.39-1.23,.58-1.83-1.11-.32-2.21-.64-3.32-.93l-.52-1.54c.86-1.08,2.29-1.55,3.62-1.17,.22-1.38-.34-2.77-1.47-3.59-.29-1.42-1.03-2.72-2.11-3.69,.67-.84,1.35-1.67,2-2.5-1.21-1-1.44-2.63-1.9-4.05l-2.5-1.12c-.26-.74-.52-1.47-.76-2.2l.95-1.81-2.21,.87v-3.77c-.82,.2-1.64,.37-2.46,.52-.94-1.31-2.21-2.77-1.83-4.5,.74-.78,1.59-1.45,2.52-2-.71-.82-1.78-1.45-2.17-2.5,.28-1.3,.76-2.54,1.16-3.8l-1.81-1.68c.58-1,1.19-2,1.82-3-.66-.65-1.32-1.29-2-1.91l.49-1c-1.61-1.32-2.44-3.37-2.19-5.44l2.44,1.49c0-1.83,0-3.66,.12-5.48l-2.74,.47c.75-3.14-1.19-5.83-1.38-8.86-2.5-1.24-2-4.21-1.61-6.46h-1.08c-.05-1.62-.1-3.23-.16-4.84-.5-.55-1-1.13-1.42-1.72,.55-1.3,1.17-2.56,1.87-3.78l2.16,2c-.31,.85-.61,1.71-.88,2.58,1.23-1.86,2.13-3.91,2.66-6.08l-1.77,1.84c-.09-1.82-.12-3.72-1.27-5.23-.29-3.07-.9-6.11-1.82-9.06-.5,1.57-.45,3.26,.13,4.8l-2.34,.33c-.28-1.49-.61-3-1-4.47-1-.41-1.92-.83-2.88-1.25,.5-.67,1-1.35,1.55-2-.09-1.15-.17-2.3-.25-3.45,.83-.08,1.66-.2,2.48-.36,0-.2,.1-.58,.14-.78h-.35c-.91,.31-1.66-.4-2.41-.75v-3.22l1.34-2.65-4-2.59c1.72-.11,3.54-.23,3.11-2.58-1.65,.69-3.33,1.29-5.05,1.8,1.44-1.54,2.92-3,4.39-4.55-.22-.89-.45-1.79-.68-2.68l-1.84,.62c-.33-1.57-.7-3.12-1.12-4.66,1.46-.92,3-1.7,4.61-2.32v-1.45c.97,.68,2.05,1.19,3.19,1.5l1.18-2.16c-.88-.29-1.74-.62-2.58-1,.08-1.35-.4-2.67-1.33-3.65,.14-.6,.4-1.82,.53-2.43l-1.35-1.83-2.31-.82c.75,1.32,2.12,2.49,1.82,4.19-.39-.42-1.18-1.24-1.57-1.65l-1.19-.6c-.02-1.35-.32-2.68-.88-3.91,.47-.89,1-1.75,1.41-2.63-2.07-.07-4.15-.06-6.22,0,1.62-2.13,1.89-4.88,2.85-7.32l-1.34-2c2.38-.36,4.6-1.4,6.39-3-1.88-.12-2.86-1.54-3.13-3.31-.36,.84-.73,1.67-1.1,2.51-.24-2.94-1-6-.1-8.85,.15,.77,.44,2.29,.58,3.06,.38-.9,.71-1.81,1-2.74-.45-1.08-1-2.11-1.65-3.08-1.68-.94-1.38-2.88-1.36-4.5-.66,.54-1.35,1.08-2,1.62,.71-.8,1.38-1.64,2-2.51,.08-2.2-.12-4.41,0-6.62-.42,.26-1.24,.79-1.64,1.06,1-.84,2-1.63,3.07-2.41l-.28-1.42,1.32,2,1.3-2.5c1.26,.26,2.57,.62,3.82,0-1.5-.39-2.9-1.07-4.14-2,.26-1.74,.39-3.58-.74-5.06,0-2.14-.87-4.48-3.21-4.91,.34-1,.67-1.92,1-2.89-1.18-2.18-2.38-4.66-.79-7,1.09-.78,2.07-1.7,2.92-2.74-1.42-1.18-2.75-2.45-4-3.8,.67-2.47,2.18-4.61,2.92-7.05s-.37-4.68-1-6.9c.46-.73,.93-1.45,1.39-2.17-1-2.28,.59-4.18,1.45-6.18,.71-1.8-.51-3.53-1-5.23,.89-.83,1.78-1.67,2.66-2.52h-3.16c.86-1.33,1.74-2.66,2.6-4-1.1,.54-2.18,1.12-3.28,1.65,.87-1.32,1.86-2.56,2.95-3.71l1.78,1.19c.47-3.11,.58-6.34,2-9.2,1.75-1.34,3.82-2.21,6-2.53-.5-.54-1-1.06-1.5-1.58,.84-.76,1.68-1.5,2.52-2.25h-2.92c1.56-1.49,3.26-3.12,5.59-3l-2.38-.9-1.87,1.8c0-.88,.08-2.63,.11-3.51,1.67-.19,4,.33,4.64-1.78l-2.83,.3c.75-1.95,1.05-4.3,2.91-5.55-.46,1.48-1.08,2.91-1.64,4.37,1.32-1,3-1.81,3.73-3.41-.08-1.28-.35-2.56-.53-3.82l2.49,.69c.63-1.41,1.31-2.8,2-4.17l2.59,.11c.85-.84,1.71-1.68,2.54-2.53,1.54,0,3.08-.07,4.63-.09-1,1.56-2.21,3-3.27,4.58,1.22-.88,2.82-1.65,3.24-3.24,.41-1.81,1.08-3.55,2-5.17,2.31,.24,4.79,.36,6.5,2.19,0,.45-.11,1.37-.15,1.82,.87-.29,1.76-.58,2.65-.84,.62-.83,1.24-1.66,1.89-2.49,1,1.14,2,2.29,3,3.47m-28.13,8.96c-1.22,2.24,2.58,.12,0,0m39.92,10.59c0,1.38,2.27,1.42,2.23,0s-2.27-1.44-2.23,0m-44.12,.85c.1,1.06,.62,1.26,1.55,.63-.1-1.08-.61-1.29-1.55-.63m-4.18,7.89c1.53-.34,.39-2.45-.82-2-1.42,.4-.42,2.47,.82,2m-4.7,4.08c.9-.07,1.81-.13,2.73-.18,0-.27-.1-.81-.13-1.08,.7-.59,1.87-1,1.75-2.11l-2.89,.26,.29-1.36c-.59,1.5-1.15,3-1.75,4.47m137.45,16.23c2.71,.21,1.41-2.67,1.56-4.31-.58,1.41-1.07,2.86-1.56,4.31m0,4.48c1.12,.65,2.22,1.35,3.28,2.09l-.34-1,1.41-.13c-1.03-.8-1.89-1.79-2.53-2.92-.61,.64-1.22,1.28-1.82,1.93m-5.54,9.34l.76,2.84-2.57-.77c2.28,1.53,1.39,4.06,.92,6.29,.78-1.98,1.75-3.89,2.9-5.68,.19,.54,.56,1.62,.76,2.16,0-.61-.11-1.82-.15-2.43l-2.08-.56c.65-1.07,1.28-2.14,1.92-3.21,.63,.73,1.28,1.48,2,2.2-.73-1.33-1.56-2.6-2.34-3.88-.72,1-1.41,2-2.08,3m6.74,5.82l2.07-.21c-.22-1-.46-2-.69-3-.49,1.05-.94,2.11-1.38,3.18m-2.75,1.48c-.59,.45-.71,1.3-.25,1.89,.2,.27,.5,.45,.82,.51,1.7,0,1-3.34-.57-2.4m1.61,6.49c0,.72,0,2.16-.06,2.88l-2.43-1.34c-.28,.66-.56,1.32-.82,2l1.44,.16-.43,1.53,.78-.13c.79-1.06,1.66-2.06,2.6-3l-1.08-2.1m40.36,3.69c.3,1.81,.79,3.59,1.46,5.3,.39-1.9-.15-3.87-1.46-5.3m-42.35,2.68c-.27,2.33,3.47,.32,2.37-1.23-.92-.22-1.82,.56-2.37,1.23m4.96,5.83c-.88,1.51-1.48,3.16-1.79,4.88,1.5-1.14,2.2-3.04,1.79-4.88m-86.08,8.31c-.55,.69-.44,1.7,.25,2.25,.09,.07,.18,.13,.29,.18,1.28-.18,.66-2.88-.54-2.43m81.15,2.08c-1.12,2.3,2.58,0,0,0m-141.34,8l-1.15-.53,.16,2.35,1.49-.7c.33-1,.65-2.05,1-3.08l-1.46,2m57,14l.64,1.53c.89-.11,1.53-.93,1.42-1.82-.09-1.36-2-.72-2.06,.29m-55.64,15.28c.9-2.37,.77-4.94,.95-7.43-1.11,2.31-1.44,4.92-.95,7.43m-3.06-1.46c.18,2.59,2.22-1.25,0,0m3.93,6.38c.37,1,.72,2,1.08,3.05,.27-1,.52-2,.78-2.95l1.51,.22c-.07-.57-.21-1.71-.29-2.29l-3.08,2m6.54,15.85c-.65,.31-1.28,.64-1.91,1-.33,1.13-.65,2.28-1,3.42,1.21-1.3,2.4-2.62,3.7-3.81,.24-1.14,.45-2.29,.63-3.42-.52,.92-1,1.88-1.44,2.84m-4.61,.88c-.32,1,.08,1.39,1.19,1.07,.3-1.05-.09-1.41-1.19-1.07m3.36,5.29c-.07,.82-.05,1.64,.06,2.46,1,.7,1.94-.06,2.86-.47-1-.68-1.9-1.4-2.92-2m1.84,3.54c-.33,.63-1,1.91-1.34,2.55l-1.82-2.42c-.76,1.34-1.45,2.72-2.05,4.14l3.85-.67c.18,.47,.53,1.4,.7,1.87-.52,1-1,2.09-1.54,3.15l2.41-1.13c-.07-2.52,1.76-5.34-.21-7.49m179.58,11.93c-1,2.34,2.57-.13,0,0m-165.56,26.93c.46-1.77,1-3.52,1.3-5.32-1.55,1.39-2.53,3.36-1.3,5.32m42,.8c1.25,.51,2.41-1.44,2.08-2.5-1.18-.37-2.77,1.36-2.08,2.5m7.14,25.9c1.35,1.5,2.78,2.92,4.29,4.26-.09-1.71-1.07-3.12-1.88-4.56-.81,.09-1.62,.19-2.41,.3m104.61,15.23c-.39,1-.78,2-1.16,3,1-.72,1.88-1.46,2.83-2.19l-1.67-.78m6.16,.28c0,1.38,2.32,.52,1.45-.53l-1.45,.53m-.8,1.73c-.43,.8-.13,1.79,.67,2.22,.16,.08,.32,.14,.5,.17,1.74-.42,.19-3.46-1.17-2.39m-144.62,2.33c-.66,1.15,1.26,2.49,2.26,1.82,.76-1.16-1.25-2.62-2.26-1.82m137.91,.92c1,.49,2.05,.89,3.1,1.34-.71,2.1-3.32,4.49-1,6.47,.15-1.27,.29-2.52,.44-3.78l2.06-.55c-.11-.71-.21-1.42-.3-2.12-1.44-.45-2.85-.92-4.28-1.34m1.22,11.1c-.42,.91-.82,1.83-1.24,2.74-.1,1.43-.2,2.87-.33,4.31,.82,.26,1.64,.52,2.47,.8,.22-.64,.46-1.28,.7-1.9-.85-1.88-1.39-3.89-1.6-5.95m-145.68,7.55c-1.29,1.21-2.58,2.41-3.82,3.66,1.57,.24,3.17,.02,4.62-.62,.26-1,.54-2,.82-2.93l-1.62-.11m-1.16,7.05c1.47-.16,2.95-.75,4.44-.41l.79,.52c1,.67,1.82,1.58,2.37,2.65l.63,.45-1.2-1.52,2-.47c-.26-.78-.5-1.56-.82-2.3-.92,.07-1.83,.26-2.75,.3-.69-.78-1.43-1.53-2.21-2.22-1.53,.57-3.53,.85-3.31,3m146.68-.47c-.18,.2-.53,.6-.71,.79,.81,2.24,3.43-1.35,.71-.79m-132.64,4.11c-1.26,1,.65,2.67,1.64,1.58,1.2-1-.61-2.66-1.64-1.58m-3.72,10.18l-1.36,1,2.56,.9c.52,.8,1,1.6,1.55,2.42,.56,.95,1.29,1.78,2.16,2.45,0-1.32-.09-2.63-.16-3.94-.55,0-1.64,.06-2.19,.08-.87-1.26-1.87-2.55-1.81-4.17l2.09,.51c-.06-.38-.19-1.13-.25-1.51-1.22,.43-3.37,.24-2.59,2.27m14.57,.26c.17,2.57,2.21-1.25,0,0m-7.31,4.59c-.11,1.22-.24,2.44-.37,3.65-1.27-.12-2.53-.22-3.8-.26,1.13,.51,2.33,.89,3.55,1.11l2.35,1.75c-.51-2.89-1.44-5.86-.62-8.8-1.57,.19-1.87,1.25-1.11,2.55m14,.78c.24,2.56,2.18-1.32,0,0m-12.79,1c.29,.87,.58,1.74,.87,2.63,1.05,.43,2.1,.92,3.13,1.44,1.34,.15,2.67-.38,3.53-1.41-1.38,.24-2.78-.37-3.55-1.54l2.69-1.19c-2.12,.93-4.53,.95-6.67,.07m18.47,5.3l-1.91,2.11c1.16-.32,2.32-.62,3.48-.92v1.55c.34-.91,.69-1.81,1-2.72l-2.57-.02m9,10.85c.16,.55,.48,1.64,.63,2.18l-2.38-.92-1.63,1.21h2.35c1.57,1.55,3.68,1.73,5.78,1.69,0-1.07,.1-2.13,.19-3.18-1.65-.29-3.3-.63-4.94-.94m8.75,1.36c.66,1.11,1.29,1.1,1.87,0-.66-1.1-1.29-1.08-1.87,0m-2.37,1.77c.07,.59,.15,1.17,.24,1.77l2.27-.38-.4-1.3-2.11-.09m-3.08,1.93c-.2,1.1,1.68,1.2,2.18,.47,.16-1.08-1.7-1.21-2.18-.47m69,.13c-.2,1.1,1.7,1.15,2.18,.44,.19-1.11-1.71-1.17-2.18-.44m-30.15,4.67c.25,2.56,2.21-1.28,0,0M439.76,80.17c.59-.32,1.18-.65,1.79-1v2.34c-.91,.14-1.81,.3-2.71,.46,.29-.61,.59-1.22,.9-1.83m-242.6,2.19c2.59-.07-1.08,2.3,0,0m403.57,1.72c1.12-.87,2.22,1.19,1.29,2-1.17,.9-2.21-1.17-1.29-2m-399.6,9c2.56,.16-1.23,2.23,0,0m392.69,2.46h1.92c0,.48-.09,1.44-.11,1.92l-1.72-.22c0-.42-.07-1.26-.09-1.69m-2.64,7c1.09-.91,2.19-1.83,3.31-2.73,.16,.63,.5,1.89,.66,2.52-1.34,.05-2.66,.13-4,.21m9.94-1.63l2,.15c0,.9,.09,1.79,.14,2.7-1-.72-2-1.5-2.09-2.85m-6,2.23c2.57,.14-1.21,2.24,0,0m-288.56,2.33c-1.63-2.2,3.39-2.17,2.05-.07-.59,.49-1.43,.51-2.05,.07m-160.91,.06h2.82c-1.53,1.04-3.15,1.95-4.83,2.73,.67-.92,1.33-1.83,2-2.73m452-.4c1-.29,1.46,.11,1.21,1.16-1.08,.29-1.48-.1-1.21-1.16m-301.3,.57c1.51,1.09,2.41,3.33,.2,4.45-.15-1.48-.21-2.96-.2-4.45m-7.58,5.26c1.29-.77,2.53-1.64,3.7-2.59-.54,1.54-1.21,3.02-2,4.45-.59-.62-1.16-1.24-1.72-1.86m302.69,1.16c2.19-1.33,.24,2.59,0,0m-282,1.71c.87-.33,1.84,.12,2.16,.98,.04,.11,.07,.22,.09,.34-.52,1.54-3.08-.14-2.25-1.32m282.38,14.18c-1.05-.39-1.09-.91-.13-1.55,1,.4,1.07,.92,.13,1.55m-265.83,2.14c-.59-1-.36-1.51,.7-1.62,.57,1,.34,1.5-.7,1.62m201,8.84c2.57,.06-1.17,2.29,0,0m63.49,.59l1.77,.65c.1,1.09,.2,2.17,.33,3.25l-1.32,.87c.27-.77,.56-1.54,.86-2.31-.56-.82-1.11-1.64-1.64-2.46m-266.04,4.1c2.63-.33,.2,3.18-.6,.81,.15-.2,.44-.61,.6-.81m265.18,4.27c-.72-1.08,.89-3,2-2.08,.67,1.07-1,2.66-2,2.08m.09,5.24c-.37-1.11,0-1.54,1-1.32,.35,1.09,0,1.53-1,1.32m-134.92,10.41c2.58,.17-1.25,2.22,0,0m73.29-.48c.21,1.66-.54,3.3-1.93,4.23,.55-1.45,1.19-2.87,1.93-4.23m62.65,4.77l1.31-2.3c.89,2.22,.62,4.73-.74,6.7-.06-.62-.19-1.87-.26-2.49-.65-.65-1.3-1.3-1.93-2l1.62,.05m-313.39,.95c.66-1.12,2.56,0,1.53,1-.7,1-2.53,0-1.53-1m1.31,7.32c-1.77-1.65-1-4,1-5.17,.1,1.28-.18,2.56-.79,3.68,0,.37-.14,1.13-.17,1.49m.43,.59c2.48-.7,.35,3.17-1.15,2.4-.39-.92,.42-1.94,1.15-2.4m-139.16,4.57c2.56,.13-1.23,2.28,0,0m136,6.1c2.31-.42,.64,2.24-.8,1.94-2.07,.39-.3-2,.8-1.94m309.78,1.06c.64,1.45,1.21,2.94,1.69,4.45-.79-.62-1.55-1.27-2.3-1.91,.15-.64,.46-1.9,.61-2.54m-309.5,1.14c.63,.07,1.88,.18,2.51,.23-.95,.94-1.92,1.84-2.9,2.74,.11-1,.25-2,.39-3m305.1,1.38c.66,.34,1.34,.7,2,1.08-.09,.3-.26,.87-.35,1.15,1.1,.59,1.55-1.18,2.38-1.6-.26,.87-.51,1.73-.75,2.6-.75,.85-1.47,1.73-2.18,2.61l-2.17,.23,1.48-.56c.2-.65,.42-1.28,.65-1.91-.41-1.19-.76-2.4-1.08-3.6m-122.72,4.22c2.56,.13-1.21,2.25,0,0m127.44,.1c1.1-.1,1,1.8,.38,2.31-1.12,.1-1.05-1.8-.38-2.31m-5.26,4.5c1-1.08,1.55,.92,.69,1.47-1,1.09-1.62-1-.69-1.47m-246.86,6c2.3-1.13,0,2.57,0,0m247.5,1.6c2.55,.15-1.21,2.28,0,0m-246.76,2.28c1.16,.05,.73,1.93-.1,2.22-1.09-.08-.71-1.93,.1-2.22m-326.23,1c.79-.16,1.59-.3,2.39-.39,0,1.8-.1,3.8-2.46,3.75,0-1.13,0-2.24,.07-3.36m572.33-.13c1.6-.11,3.2,.04,4.75,.46l-3,1.1-1.77,2.55c-.82-1.3-1.25-2.87,0-4.11m-218.29,4.53c1.08-.34,1.48,0,1.18,1.08-1.08,.33-1.48,0-1.18-1.08m217.37,2.65l2.43,.7c.19,1.12,.32,2.25,.38,3.39-1.1-1.21-2.04-2.56-2.79-4.02m.22,2.07c.64,1.43,.88,3.01,.69,4.57l-3.62,.08c1-1.54,2-3.07,2.93-4.65m-443,4.78c.77-.97,2.18-1.13,3.15-.35,.05,.04,.1,.08,.14,.12l-2.19,1.84c1.56,2.16,3.6,3.92,5,6.19l-2.43,.6c-.45,2.67,.69,5.42-.37,8-1.22-3.22-1.13-6.66-1.27-10l-2.07,.73c.33-1.28,.46-2.79,2-3.16-.59-1.32-2.5-2.38-2-4m502.67,.31l1.46,.38c.6,1.48,1.31,2.91,2.13,4.29-.92,.13-1.84,.28-2.74,.42-.23-1.71-.51-3.4-.85-5.09M9.51,234.25c1.05,.11,1.22,.63,.51,1.56-1.05-.12-1.22-.64-.51-1.56m-1.68,2.22c1-.71,2.13,1,1.32,1.79-1,.65-2.21-1-1.32-1.79m351.86,4.42l2.17,.75c-.22,.69-.41,1.41-.61,2.13-.51-1-1.05-1.93-1.56-2.88m285.24,9.55c1.04,.13,1.23,.66,.57,1.59-1.06-.14-1.26-.67-.57-1.59m3.12-.16c2.56,0-1.15,2.3,0,0m-287.72,1.45c2.04,.26,4.09,.37,6.14,.33-.26,1.19-.63,2.35-1.13,3.46-.45-1.07-.9-2.15-1.33-3.22-.92,.79-1.81,1.61-2.69,2.42l-1-3m-24.71,3.34c-.68-.32-1.47-1.5-.82-2.16,1-.19,2.08,1.86,.82,2.16m-191.85,16.01c1.12-.76,2.36,1.12,1.46,2-1.1,.75-2.37-1.15-1.46-2m190.68,2.15c-1.24-.13-1.48-2.39-.05-2.34,1.27,.05,1.46,2.37,.05,2.34m26.21,4.32c2.2-.61,3.39,1.06,3.09,3.17-1.26-.82-3.66-1.12-3.09-3.17m-214.82,2.51c1.05-.83,2,1,1.12,1.75s-2.06-1.07-1.12-1.75m1,3.46c-.87-1,1.47-2,1.49-.6l-1.49,.6m222,.45c1-.34,1.92-.66,2.9-1,0,1.36-.1,2.73-.16,4.11-.91,.87-1.79,1.77-2.68,2.67,.83-1.48,1.55-3.02,2.14-4.61l-2.2-1.22m-5.5,1.54c.59-1.1,1.22-1.08,1.88,.06-.6,1.11-1.23,1.08-1.88-.06m.89,2.23c.87,.83,1.74,1.69,2.58,2.57,1.16,.2,2.31,.41,3.48,.64-1.22,2-2.44,4.13-2.61,6.5-1.08-2.55-3,.74-3.93,1.81l.64-2.39c-1.47,.91-2.87,1.89-4.34,2.77,1.15-1.2,2.55-2.15,4.09-2.77l-1.66-1.25,.43-.84,.13,.81,1.55-.24c-.13-1.23-.07-2.48,.16-3.7l2,2.29c-.19-1.71-.61-3.37-2.69-3.3,0-.73,.12-2.18,.16-2.9m-152.07,1.39c1.26,.05,.53,1.92-.37,2-1.15-.09-.51-1.92,.37-2m150.07,.08c1-.25,1.36,.18,1,1.28-1.06,.24-1.4-.18-1-1.28m349.12,6.44c-1.25,.45-1.38-2.08-.07-1.61,0,.4,.05,1.21,.07,1.61m-379-1.12c2.29-1.19,.06,2.56,0,0m37.39,2.13c.58,.95,1.33,1.8,2.2,2.49v2.17l-2.11-.16c.35-.59,1-1.74,1.4-2.32l-2.07,.26,.54-2.44m-5.85,4.21c1.14,1.01,1.79,2.47,1.76,4,.42-1.12,.83-2.24,1.26-3.35l1.76,.27c-.09,.33-.25,1-.35,1.32,1.16,.3,2.01,1.29,2.12,2.48-.56,0-1.67,0-2.23-.07,.2,.83,.41,1.67,.63,2.5l-1.72,.25c-.21-.61-.61-1.82-.81-2.42-.59,1.27-1.1,2.56-1.71,3.81,.11-.63,.35-1.88,.47-2.51l-1.58-.48c.81-1.84,.42-3.85,.4-5.78m-211.78,6.33c-1.1-.69-1.08-1.31,.05-1.87,1.12,.66,1.1,1.29-.05,1.87m210.7,5.67c.91-1.6,2.5-2.7,4.31-3,.28,.76,.84,2.26,1.11,3l-2.37-.58,1.79,1.47c-1.17,.76-2.37,1.45-3.59,2.11,2.19-.19,4.4-.26,6.6-.21-.35,.44-1,1.32-1.39,1.75v3l-2.38-.95c.76-1.66-.49-2.25-1.81-2.68l-.12,2.65c-1.07,0-2.14-.08-3.2-.1,.69-.56,1.38-1.12,2.08-1.66-.22-.52-.65-1.58-.87-2.11l-1.34-.87c-.1-.79-.2-1.57-.29-2.35l1.47,.46m12.6,1.23c1-.61,1.3,1.47,.83,2.07-1.11,.67-1.34-1.47-.83-2.07m-7.82,13.52c2.19-1.32,.24,2.55,0,0m165.57,5.64c1.26-.41,1.66,0,1.21,1.29-1.27,.39-1.67,0-1.21-1.29m-166.79,3.34c-.11-1.43,.44-4.11,2.44-2.9,0,.62-.12,1.87-.17,2.49,.51,1,2.58,1.81,1.29,3.11l-2.29,.26-.92,1.59c-.06-.69-.19-2.06-.25-2.74l-1.15,2.41c-.29-1.19-.56-2.4-.8-3.61l1.85-.61m165.34,4.8c2.28-1.15,.07,2.57,0,0m-370.19,6.04c.3-1.23,2.69-1.49,3-.14-.24,1.33-2.54,1.16-3,.14m-.41,3.8c.62-.14,1.25-.26,1.88-.38,.48,1.16,1,2.33,1.48,3.48-.88-.15-1.77-.3-2.65-.42-.23-.37-.72-1.08-1-1.44,.07-.31,.19-.93,.25-1.24m504.18,1.07c.78-.33,1.58-.64,2.39-1-.36,1.21-.62,2.44-.77,3.69,1-.91,1.94-1.89,2.91-2.84,.21,1,.51,2.06,.8,3.06l-1.19,1.53,1.1,1.11c-.3,1.21-.56,2.42-.78,3.64-2.93-2.23-3.5-5.84-4.46-9.15m2,4.69c-.85,.78,.34,2.47,1.33,1.7s-.38-2.47-1.33-1.7m-344.13,3.56c1,.46,1,1-.05,1.55-1-.48-1-1,.05-1.55m344.93,2.39h2.29v2.85l-1.95-1.45c-.1-.35-.29-1.05-.39-1.39M9.15,371.73c.71-.48,1.4-.94,2.11-1.4,.05,.4,.12,1.19,.17,1.58,1.09,.53,1.99,1.38,2.59,2.43l-3.37,.4c-.48-1-1-2-1.5-3m-.2,7.99c.13-2,1.71-2.77,3.33-3.41,0,.62,0,1.87,.06,2.49-1.13,.31-2.26,.6-3.39,.92m305,3.09c2.29-1.21,.11,2.56,0,0m-119.42,7.67c.7-.61,2.45-.62,2.61,.51-.34,1.31-3.32,.85-2.61-.51m180.68,3.44c-2.58-.1,1-2.38,0,0m-176.8,.17c2.25-1.16,0,2.58,0,0m.44,2c2-.9,3.73,.33,5.55,.87-.74,.53-1.49,1.05-2.24,1.56-.14-.43-.42-1.29-.55-1.72-.94-.2-1.86-.43-2.76-.71m6-.9c3,0,6.09,.18,8.72,1.8l-2.64,1.38-1.27-1.11c-.23,1.84-1.47,2.24-3.12,1.83,.24-.91,.47-1.82,.7-2.72l-2.8,2.37c.1-.88,.31-2.66,.41-3.55m15.67,3.7c1,.5,1,1-.08,1.57-1-.52-1-1,.08-1.57m76.34,2.83c1.39-1.28,3.57-.93,5.33-1.34l1.53,1.37c-1.48-.17-3-.36-4.43-.55l.4,1.48c-.95-.31-1.91-.6-2.83-1m3.84,5.48c.07-2,1.91-2.13,3.49-2.28-.98,1.01-2.17,1.79-3.49,2.28m-4.19,.85c.86-.71,1.38-.53,1.56,.55-.87,.7-1.39,.51-1.56-.55m3.67,1.52c2.29-1.2,.09,2.56,0,0m-50.31,5.19c.71-2,2.59-3.11,4.14-4.39,.51,1.24,1.11,2.44,1.8,3.59-2-.37-4,.26-5.94,.8m5.5-3.65c.71-.55,2.34,.25,2,1.19-.74,.52-2.46-.17-2-1.19m-1.44,4.91c2.22-.38,4.23,.92,6.33,1.43-.65,.29-1.29,.61-1.94,.92l.09-1.06-4,.4,1.85,1.69c-2.47-.36-4.97-.5-7.46-.44,0-.1-.1-.31-.14-.41,1.65-.25,3.29-.58,4.93-.87,.09-.41,.25-1.25,.33-1.66m-244.37,4.49c-1.21-.38-.42-2.32,.7-2s.44,2.33-.7,2m263.46-1.57c1.24-.01,2.43,.47,3.31,1.34l2.15-.57c-.4,.74-.48,1.74-1.26,2.23-1.76-.36-3.28-1.45-4.2-3m-258.52,3c.93,.15,1.87,.34,2.8,.53-1.53,.34-2.9,1.21-2.95,2.94l-3.28-.08,.24,2.08-2.27-.11c-.08,.37-.23,1.13-.31,1.51-.24-.84-.47-1.66-.7-2.48,1.76-.74,3.53-1.45,5.29-2.2l1.18-2.19m698.15,2.97c.61-.83,2.3,.07,1.54,1s-2.3-.08-1.54-1m-104.54,11.64c1.13-.28,2.28-.53,3.44-.76,.13,.45,.42,1.37,.55,1.83l-4-1.07m-445.09-.18c.72-.82,2.59,.13,1.92,1.2-.73,.78-2.62-.13-1.92-1.2m239.83,.13c2.26-1.25,.13,2.57,0,0m-238.47,3c2.56,.22-1.31,2.19,0,0m303.47,2.52c1.06-.27,1.47,.13,1.21,1.2-1.07,.25-1.48-.15-1.21-1.2m-48.59,2.53c1.88,.24,3.75-.47,5-1.9l1.41,1.82c-.89,.48-1.77,1-2.63,1.51l-.94-.33-1.08,2.11c-.59-1.07-1.16-2.13-1.75-3.19m-412.11-.43c2.58,.1-1.19,2.24,0,0m420.26,.41c.46,.94,.92,1.88,1.4,2.84l2,.16c0,.48,.08,1.44,.1,1.92-1.37-.36-2.71-.83-4-1.4-.35,.85-.7,1.7-1.07,2.55,.16-1.6-.86-4.25,1.61-4.41l-.08-1.66m-219.23,2.71c2.58,.26-1.32,2.16,0,0m207,.49c2.26-1.14,0,2.59,0,0m-142.57,44.49c0,2.58,2.28-1.13,0,0m295.83-41.48c2.48,.27-1.32,2.29,0,0m1.87-.34l1.94,.88c.65-.15,1.31-.31,2-.44v3.84l-.78,.16v-2.7c-.35,.45-1.06,1.36-1.4,1.81-.59-1.19-1.16-2.37-1.74-3.55m-139.87,1.34c2.24-1.26,.17,2.59,0,0m147.54,1.66c1.77,.38,3.25,1.58,4,3.23-2.4,.62-3.13-1.62-4-3.23m-349.6,3.92c1.32-.13,2.66-.19,4-.24l-.2,1.23c-1.27-.32-2.54-.64-3.79-1m4.4,6c.65-.78,2.51-.28,1.53,.84-.86,1.62-3.72,.32-1.53-.84m7.33,2.94c2.2,.13,4.11,1.56,4.85,3.64l-3.42,1.14c.56-.75,1.12-1.5,1.71-2.23-1.06-.85-2.12-1.68-3.14-2.55m7.2,6.16c1.18-.41,1.57,.05,1.17,1.37-1.19,.39-1.58-.07-1.17-1.37m-1.07,3.93c2.56-.08-1,2.36,0,0m-190.1,66.63c1.1-.3,1.48,.07,1.12,1.12-1.12,.29-1.49-.09-1.12-1.12"/></g></g></g></g></g></svg>