<svg xmlns="http://www.w3.org/2000/svg" viewBox="0 0 427.6 427.59"><defs><style>.cls-1{fill:#653e00;}.cls-2{fill:#653e00;}.cls-3{fill:#653e00;}</style></defs><g id="레이어_2" data-name="레이어 2"><g id="레이어_1-2" data-name="레이어 1"><path class="cls-1" d="M196.23,427.59c-4.49-1.93-9.38-1.65-14.07-2.32C95.46,413,22.31,345.47,5.09,259.26-11.65,175.48,13,104.53,77.87,49.07c43.18-36.9,94.5-52.64,151.25-48.4,94.59,7.07,171.19,73,193.12,165.53a210.37,210.37,0,0,1,4.52,28.38c.08.86-.5,2,.84,2.48v34.25c-1.12.34-.79,1.31-.86,2.07-3.38,35.06-14.21,67.61-33.81,96.91-35.49,53-84.76,84.91-148,95-5.1.82-10.37.56-15.34,2.28Zm17.43-21.44c106.18,0,192.31-86,192.48-192.25S320,21.22,213.62,21.39A192.28,192.28,0,0,0,21.4,213.79C21.42,320,107.51,406.16,213.66,406.15Z"/><path class="cls-2" d="M182,128.36A10.57,10.57,0,0,0,171.08,139c0,4.19,2.36,6.91,5.28,9.46,23.77,20.76,47.48,41.61,71.34,62.28,2.81,2.44,2.94,3.49,0,6q-36.27,31.4-72.26,63.13c-5.2,4.57-5.88,10.82-1.95,15.49,4.07,4.84,10.66,5.25,15.91.67q42.12-36.74,84.13-73.62c6-5.26,6-12.05,0-17.29q-42-36.9-84.12-73.64C187.21,129.52,184.69,128.15,182,128.36Z"/><path class="cls-3" d="M182,128.36c2.74-.21,5.26,1.16,7.52,3.14q42.08,36.8,84.12,73.64c6,5.24,6,12,0,17.29q-42,36.9-84.13,73.62c-5.25,4.58-11.84,4.17-15.91-.67-3.93-4.67-3.25-10.92,1.95-15.49q36.06-31.65,72.26-63.13c2.91-2.52,2.78-3.57,0-6-23.86-20.67-47.57-41.52-71.34-62.28-2.92-2.55-5.3-5.27-5.28-9.46A10.57,10.57,0,0,1,182,128.36Z"/></g></g></svg>