<?xml version="1.0" encoding="utf-8"?>
<!-- Generator: Adobe Illustrator 26.3.1, SVG Export Plug-In . SVG Version: 6.00 Build 0)  -->
<svg version="1.1" id="레이어_1" xmlns="http://www.w3.org/2000/svg" xmlns:xlink="http://www.w3.org/1999/xlink" x="0px"
	 y="0px" viewBox="0 0 1130.5 1046.2" style="enable-background:new 0 0 1130.5 1046.2;" xml:space="preserve">
<style type="text/css">
	.st0{clip-path:url(#SVGID_00000145772397855386133730000007096997797868734089_);}
	.st1{opacity:0.2;fill:url(#SVGID_00000167393004203987443190000007013106299019960714_);enable-background:new    ;}
	.st2{opacity:0.2;fill:url(#SVGID_00000017491919042987568070000004631631816297938313_);enable-background:new    ;}
	.st3{fill:#E9EEF5;}
	.st4{fill:url(#SVGID_00000102535154126108230760000008478611664564524197_);}
	.st5{fill:none;stroke:#D8D8D8;stroke-width:1.7808;stroke-miterlimit:10;}
</style>
<g>
	<g id="레이어_2_00000142171659985700029260000012186977264172961960_">
		<g id="OBJECTS">
			<g>
				<g>
					<defs>
						<rect id="SVGID_1_" x="-6.1" y="-0.2" width="1136.6" height="1046.4"/>
					</defs>
					<clipPath id="SVGID_00000078025327069313426570000002845505686644825532_">
						<use xlink:href="#SVGID_1_"  style="overflow:visible;"/>
					</clipPath>
					<g style="clip-path:url(#SVGID_00000078025327069313426570000002845505686644825532_);">
						
							<linearGradient id="SVGID_00000012453960780220295980000003912193858175879555_" gradientUnits="userSpaceOnUse" x1="101.903" y1="686.223" x2="875.5446" y2="686.223" gradientTransform="matrix(1 0 0 1 227.98 290.8)">
							<stop  offset="0" style="stop-color:#D1D5DE"/>
							<stop  offset="1" style="stop-color:#DBDBDB"/>
						</linearGradient>
						
							<path style="opacity:0.2;fill:url(#SVGID_00000012453960780220295980000003912193858175879555_);enable-background:new    ;" d="
							M1028.2,1141c-11.4-45.2-8.3-94.8-2.3-142.1c6.1-47.3,14.9-94.2,14.4-142.1c-0.8-78.3-27.9-155.3-72.3-204
							c-44.4-48.8-105-68-160.2-50.2c-34.9,11.3-67.7,36.2-103.5,38.3c-36.8,2.1-71.7-20.3-107.9-29.5
							c-85.9-21.8-178.1,37.9-226.1,138.5s-52.6,235.8-17.4,346.3s107.3,195,189.9,234.4s174.6,34.7,257.5-3.6
							c40.6-18.6,79.3-45.2,120.5-61.3c41.2-16.1,86.7-21.1,125.9,2.7l56.8-41.4C1068.8,1225.8,1039.6,1186.2,1028.2,1141z"/>
						
							<linearGradient id="SVGID_00000099622070419737972900000014586816042929860784_" gradientUnits="userSpaceOnUse" x1="-579.6023" y1="955.1354" x2="194.1908" y2="955.1354" gradientTransform="matrix(1 0 0 1 227.98 290.8)">
							<stop  offset="0" style="stop-color:#D1D5DE"/>
							<stop  offset="1" style="stop-color:#DBDBDB"/>
						</linearGradient>
						
							<path style="opacity:0.2;fill:url(#SVGID_00000099622070419737972900000014586816042929860784_);enable-background:new    ;" d="
							M346.7,1409.9c-11.4-45.2-8.3-94.8-2.3-142.1c6.1-47.3,14.9-94.2,14.4-142.1c-0.8-78.3-27.9-155.3-72.3-204
							c-44.4-48.8-105-68-160.2-50.2c-34.9,11.3-67.7,36.2-103.5,38.3c-36.8,2.1-71.7-20.3-107.9-29.5
							c-85.9-21.8-178.1,37.9-226.1,138.5s-52.6,235.8-17.4,346.3c35.2,110.5,107.3,195,189.9,234.4s174.6,34.7,257.5-3.6
							c40.6-18.6,79.4-45.2,120.5-61.3s86.7-21.1,125.9,2.7l57-41.4C387.5,1494.7,358.2,1455.1,346.7,1409.9z"/>
						<path class="st3" d="M1139,522.2v532H584.6c1.8-22.4,5.3-44.8,10.3-66.1c17.3-73,54.9-137.1,102.3-176.2
							c25.2-20.9,53.2-34.3,82.3-38.9c38-5.9,81.1,1.3,110.3-32.9c17.7-20.5,26.2-51.7,37.3-79.7c31.4-79.5,90.3-140.6,155.8-146.9
							C1102,511.5,1121,514.4,1139,522.2z"/>
						
							<linearGradient id="SVGID_00000109001307949441527940000003946277121636500359_" gradientUnits="userSpaceOnUse" x1="10.3647" y1="606.6482" x2="746.73" y2="606.6482" gradientTransform="matrix(1 0 0 1 227.98 290.8)">
							<stop  offset="0" style="stop-color:#D1D5DE"/>
							<stop  offset="1" style="stop-color:#DBDBDB"/>
						</linearGradient>
						<path style="fill:url(#SVGID_00000109001307949441527940000003946277121636500359_);" d="M974.7,1046.2H238.3
							c2.3-28.7,7.4-56.9,15-83.9c17.7-62.6,53.3-122.2,101.5-131.8c20.8-4.2,41.2,1.5,60.9,11.5c28.3,14.4,60.2,2.7,79.6-29.3
							c40.6-67.4,110.8-83.7,165.2-38.5c10,8.6,19.4,18.4,28.2,29.3c25.3,30.8,48,67,79.9,80.2c33.2,13.8,69.4,0,103.4,9.4
							c49.7,13.8,86.4,76.4,100.8,143.8C973.6,1039.9,974.3,1043.1,974.7,1046.2z"/>
						<ellipse class="st3" cx="899.4" cy="541.9" rx="17.7" ry="24.5"/>
						<path class="st3" d="M992.6,446.8c0,6.7-3.9,12.1-8.9,12.1c-4.8,0-8.8-5.4-8.8-12.3s3.9-12.1,8.9-12.1l0,0
							C988.7,434.5,992.6,440.2,992.6,446.8z"/>
						<path class="st5" d="M457.6,1197.9c-10.5-52.5-18-109.9-3.5-160.3c19.1-66.3,72-103.4,123.4-112
							c51.2-8.6,102.9,5.7,154.4,10.9c51.5,5.4,106.7,0.6,149.1-40c59-56.3,78.2-166.2,131.4-232.7c44.3-55.5,111.2-73.7,167.5-45.6
							"/>
						<path class="st5" d="M496.6,1197.9c-9.9-49.8-17-103.8-3.3-151.7c18-62.8,68.2-97.9,116.7-105.9c48.5-8,97.4,5.4,146.1,10.5
							s100.9,0.6,141.1-37.7c55.8-53.4,74-157.2,124.3-220.2c42-52.3,105.2-69.7,158.4-43.1"/>
						<path class="st5" d="M535.7,1197.9c-9.2-46.9-16.1-97.9-3-143.1c17-59.2,64.3-92.3,110-99.8c45.8-7.5,91.8,5,137.8,9.8
							c45.9,4.8,95.2,0.6,133.1-35.6c52.6-50.2,69.7-148.2,117.1-207.4c39.6-49.4,99.3-65.7,149.3-40.8"/>
						<path class="st5" d="M574.6,1197.9c-8.8-43.9-15.2-92.1-2.9-134.4c16.1-55.5,60.3-86.6,103.4-93.8c43-7.1,86.2,4.6,129.4,9.2
							c43.2,4.6,89.4,0.6,125-33.5c49.4-47.3,65.6-139.4,110-195c37.1-46.5,93.2-61.7,140.3-38.3"/>
						<path class="st5" d="M613.7,1197.9c-8.2-41.2-14.1-86-2.7-125.8c15-51.9,56.5-81.2,96.7-87.7c40.2-6.7,80.8,4.4,121.1,8.6
							c40.3,4.2,83.7,0.6,117-31.4c46.2-44.2,61.4-130.4,103.1-182.5c34.7-43.3,87.1-57.5,131.2-35.8"/>
						<path class="st5" d="M-17.3,417.6c-7.6,36.6,5.9,76.2,25.6,102.8C28,547.1,53.2,564.3,76.2,585s45.5,47.3,54.3,83.3
							c15.6,64.2-16.2,129.5-31.4,194c-22.9,97.5-5,211.2,45,286.7"/>
						<path class="st5" d="M-35.3,425.1c-7.6,36.6,5.9,76.2,25.6,102.8c19.7,26.8,44.9,43.9,67.9,64.7c23,20.7,45.5,47.3,54.3,83.3
							C128,740,96.2,805.3,81,869.8c-22.9,97.5-5,211.2,45,286.7"/>
						<path class="st5" d="M-53.4,432.8c-7.6,36.6,5.9,76.2,25.6,102.8c19.7,26.8,44.9,43.9,67.9,64.7
							c23.2,20.7,45.5,47.3,54.3,83.3c15.6,64.2-16.2,129.5-31.4,194c-22.9,97.5-5,211.2,45,286.7"/>
						<path class="st5" d="M-71.3,440.4c-7.6,36.6,5.9,76.2,25.6,102.8c19.7,26.8,44.9,43.9,67.9,64.7c23,20.7,45.5,47.3,54.3,83.3
							c15.6,64.2-16.2,129.5-31.4,194c-22.9,97.5-5.2,211.2,45,286.7"/>
					</g>
				</g>
			</g>
		</g>
	</g>
</g>
</svg>
