<?xml version="1.0" encoding="utf-8"?>
<!-- Generator: Adobe Illustrator 26.3.1, SVG Export Plug-In . SVG Version: 6.00 Build 0)  -->
<svg version="1.1" id="레이어_1" xmlns="http://www.w3.org/2000/svg" xmlns:xlink="http://www.w3.org/1999/xlink" x="0px"
	 y="0px" viewBox="0 0 1130.5 1046.2" style="enable-background:new 0 0 1130.5 1046.2;" xml:space="preserve">
<style type="text/css">
	.st0{clip-path:url(#SVGID_00000030467598829473214120000001891261770673942161_);}
	.st1{opacity:0.2;fill:url(#SVGID_00000078753466043133156760000000628523920503704742_);enable-background:new    ;}
	.st2{opacity:0.2;fill:url(#SVGID_00000072964180801193334890000015523478693633733303_);enable-background:new    ;}
	.st3{fill:#E9EEF5;}
	.st4{fill:url(#SVGID_00000142885292918751902140000014636548332398611637_);}
	.st5{fill:none;stroke:#D8D8D8;stroke-miterlimit:10;}
</style>
<g>
	<g id="레이어_2_00000142171659985700029260000012186977264172961960_">
		<g id="OBJECTS">
			<g>
				<defs>
					<rect id="SVGID_1_" x="216.7" y="238.3" width="750" height="500"/>
				</defs>
				<clipPath id="SVGID_00000017502423388188255450000002082749931879258292_">
					<use xlink:href="#SVGID_1_"  style="overflow:visible;"/>
				</clipPath>
				<g style="clip-path:url(#SVGID_00000017502423388188255450000002082749931879258292_);">
					
						<linearGradient id="SVGID_00000081638248510275865870000013068485036962521991_" gradientUnits="userSpaceOnUse" x1="210.3719" y1="609.5644" x2="720.9459" y2="609.5644" gradientTransform="matrix(1 0 0 -1 227.98 1314.8)">
						<stop  offset="0" style="stop-color:#D1D5DE"/>
						<stop  offset="1" style="stop-color:#DBDBDB"/>
					</linearGradient>
					
						<path style="opacity:0.2;fill:url(#SVGID_00000081638248510275865870000013068485036962521991_);enable-background:new    ;" d="
						M899.2,783.6c-7.5-21.6-5.5-45.3-1.5-67.9s9.8-45,9.5-67.9c-0.5-37.4-18.4-74.2-47.7-97.5c-29.3-23.3-69.3-32.5-105.7-24
						c-23,5.4-44.7,17.3-68.3,18.3c-24.3,1-47.3-9.7-71.2-14.1c-56.7-10.4-117.5,18.1-149.2,66.2s-34.7,112.7-11.5,165.5
						c23.2,52.8,70.8,93.2,125.3,112s115.2,16.6,169.9-1.7c26.8-8.9,52.3-21.6,79.5-29.3s57.2-10.1,83.1,1.3l37.5-19.8
						C926,824.1,906.7,805.2,899.2,783.6z"/>
					
						<linearGradient id="SVGID_00000033340925672159841200000004410979760227103413_" gradientUnits="userSpaceOnUse" x1="-239.2812" y1="481.0607" x2="271.3059" y2="481.0607" gradientTransform="matrix(1 0 0 -1 227.98 1314.8)">
						<stop  offset="0" style="stop-color:#D1D5DE"/>
						<stop  offset="1" style="stop-color:#DBDBDB"/>
					</linearGradient>
					
						<path style="opacity:0.2;fill:url(#SVGID_00000033340925672159841200000004410979760227103413_);enable-background:new    ;" d="
						M449.5,912.1c-7.5-21.6-5.5-45.3-1.5-67.9c4-22.6,9.8-45,9.5-67.9c-0.5-37.4-18.4-74.2-47.7-97.5
						c-29.3-23.3-69.3-32.5-105.7-24c-23,5.4-44.7,17.3-68.3,18.3c-24.3,1-47.3-9.7-71.2-14.1c-56.7-10.4-117.5,18.1-149.2,66.2
						S-19.3,837.9,3.9,890.7s70.8,93.2,125.3,112s115.2,16.6,169.9-1.7c26.8-8.9,52.4-21.6,79.5-29.3s57.2-10.1,83.1,1.3l37.6-19.8
						C476.4,952.6,457.1,933.7,449.5,912.1z"/>
					<path class="st3" d="M972.3,487.9v254.2H606.5c1.2-10.7,3.5-21.4,6.8-31.6c11.4-34.9,36.2-65.5,67.5-84.2
						c16.6-10,35.1-16.4,54.3-18.6c25.1-2.8,53.5,0.6,72.8-15.7c11.7-9.8,17.3-24.7,24.6-38.1c20.7-38,59.6-67.2,102.8-70.2
						C947.9,482.8,960.4,484.2,972.3,487.9z"/>
					
						<linearGradient id="SVGID_00000011720422230976758460000014644235477306047652_" gradientUnits="userSpaceOnUse" x1="150.0359" y1="647.5459" x2="635.9659" y2="647.5459" gradientTransform="matrix(1 0 0 -1 227.98 1314.8)">
						<stop  offset="0" style="stop-color:#D1D5DE"/>
						<stop  offset="1" style="stop-color:#DBDBDB"/>
					</linearGradient>
					<path style="fill:url(#SVGID_00000011720422230976758460000014644235477306047652_);" d="M863.9,738.3H378
						c1.5-13.7,4.9-27.2,9.9-40.1c11.7-29.9,35.2-58.4,67-63c13.7-2,27.2,0.7,40.2,5.5c18.7,6.9,39.7,1.3,52.5-14
						c26.8-32.2,73.1-40,109-18.4c6.6,4.1,12.8,8.8,18.6,14c16.7,14.7,31.7,32,52.7,38.3c21.9,6.6,45.8,0,68.2,4.5
						c32.8,6.6,57,36.5,66.5,68.7C863.2,735.3,863.6,736.8,863.9,738.3z"/>
					<circle class="st3" cx="814.2" cy="497.3" r="11.7"/>
					<path class="st3" d="M875.7,451.9c0,3.2-2.6,5.8-5.9,5.8c-3.2,0-5.8-2.6-5.8-5.9s2.6-5.8,5.9-5.8l0,0
						C873.1,446,875.7,448.7,875.7,451.9z"/>
					<path class="st5" d="M522.7,810.8c-6.9-25.1-11.9-52.5-2.3-76.6c12.6-31.7,47.5-49.4,81.4-53.5c33.8-4.1,67.9,2.7,101.9,5.2
						c34,2.6,70.4,0.3,98.4-19.1c38.9-26.9,51.6-79.4,86.7-111.2c29.2-26.5,73.4-35.2,110.5-21.8"/>
					<path class="st5" d="M548.4,810.8c-6.5-23.8-11.2-49.6-2.2-72.5c11.9-30,45-46.8,77-50.6c32-3.8,64.3,2.6,96.4,5
						s66.6,0.3,93.1-18c36.8-25.5,48.8-75.1,82-105.2c27.7-25,69.4-33.3,104.5-20.6"/>
					<path class="st5" d="M574.2,810.8c-6.1-22.4-10.6-46.8-2-68.4c11.2-28.3,42.4-44.1,72.6-47.7s60.6,2.4,90.9,4.7
						c30.3,2.3,62.8,0.3,87.8-17c34.7-24,46-70.8,77.3-99.1c26.1-23.6,65.5-31.4,98.5-19.5"/>
					<path class="st5" d="M599.9,810.8c-5.8-21-10-44-1.9-64.2c10.6-26.5,39.8-41.4,68.2-44.8c28.4-3.4,56.9,2.2,85.4,4.4
						c28.5,2.2,59,0.3,82.5-16c32.6-22.6,43.3-66.6,72.6-93.2c24.5-22.2,61.5-29.5,92.6-18.3"/>
					<path class="st5" d="M625.7,810.8c-5.4-19.7-9.3-41.1-1.8-60.1c9.9-24.8,37.3-38.8,63.8-41.9c26.5-3.2,53.3,2.1,79.9,4.1
						s55.2,0.3,77.2-15c30.5-21.1,40.5-62.3,68-87.2c22.9-20.7,57.5-27.5,86.6-17.1"/>
					<path class="st5" d="M209.3,437.9c-5,17.5,3.9,36.4,16.9,49.1c13,12.8,29.6,21,44.8,30.9c15.2,9.9,30,22.6,35.8,39.8
						c10.3,30.7-10.7,61.9-20.7,92.7c-15.1,46.6-3.3,100.9,29.7,137"/>
					<path class="st5" d="M197.4,441.5c-5,17.5,3.9,36.4,16.9,49.1c13,12.8,29.6,21,44.8,30.9c15.2,9.9,30,22.6,35.8,39.8
						c10.3,30.7-10.7,61.9-20.7,92.7c-15.1,46.6-3.3,100.9,29.7,137"/>
					<path class="st5" d="M185.5,445.2c-5,17.5,3.9,36.4,16.9,49.1c13,12.8,29.6,21,44.8,30.9c15.3,9.9,30,22.6,35.8,39.8
						c10.3,30.7-10.7,61.9-20.7,92.7c-15.1,46.6-3.3,100.9,29.7,137"/>
					<path class="st5" d="M173.7,448.8c-5,17.5,3.9,36.4,16.9,49.1c13,12.8,29.6,21,44.8,30.9c15.2,9.9,30,22.6,35.8,39.8
						c10.3,30.7-10.7,61.9-20.7,92.7c-15.1,46.6-3.4,100.9,29.7,137"/>
				</g>
			</g>
		</g>
	</g>
</g>
</svg>
