<?xml version="1.0" encoding="utf-8"?>
<!-- Generator: Adobe Illustrator 26.3.1, SVG Export Plug-In . SVG Version: 6.00 Build 0)  -->
<svg version="1.1" id="레이어_1" xmlns="http://www.w3.org/2000/svg" xmlns:xlink="http://www.w3.org/1999/xlink" x="0px"
	 y="0px" viewBox="0 0 261.9 383.9" style="enable-background:new 0 0 261.9 383.9;" xml:space="preserve">
<style type="text/css">
	.st0{fill:#FFFFFF;}
</style>
<g id="레이어_2_00000057861536784859029260000015463526802241604277_">
	<g id="레이어_1-2">
		<path class="st0" d="M91.9,383.9c-4.1-2.2-5.4-5.5-5.3-10.1c0.3-9.5-0.1-19,0.2-28.5c0.1-2.9-1-4.3-3.3-5.9
			c-26.7-18.9-47.4-42.8-57.8-74.2c-7.8-23.4-13.3-47.5-19-71.4c-2.4-9.8-4.5-19.7-6.3-29.6c-2.2-12.2,6-23.8,18.1-26
			c0.5-0.1,0.9-0.1,1.4-0.2c19.9-2.4,37.2,7,46.4,25c0.1,0.3,0.3,0.5,1,1.5V32.7c0-16.6,7.2-26.5,22.9-31.8c0.5-0.2,1-0.2,1.1-0.8
			h10.5c1.7,1.3,3.9,1.1,5.8,1.8c11.8,4.4,19.6,15.7,19.5,28.3c0.1,18.5,0,37,0,55.5v4.5c8.2-4.2,16.6-5.2,25.1-2.1
			s14.4,9.1,18,17.6c7.2-3.9,14.7-5.5,22.8-3.7c12.4,2.8,20.1,10.5,23.2,22.7c0.6,2.2,0.6,3.2,3.4,2c20.3-9,42.1,5.2,42.3,27.5
			c0.1,7,0,14,0,21c0,5.4-14.9,5.3-15-0.2c0-6.7,0-13.5,0-20.2c-0.1-9.1-6.4-15.8-14.9-15.8s-14.9,6.7-15,15.8
			c-0.1,10.8,0,21.5,0,32.2c0,5.5-2.9,8.9-7.4,9s-7.6-3.4-7.6-9.1c0-18.1,0-36.2,0-54.3c0-11.4-9.5-18.4-20.3-15.2
			c-6,1.7-9.6,7.4-9.6,15.3c0,16.2,0,32.5,0,48.7c0,1,0,2,0,3c0,4.1-3.4,7.5-7.5,7.5c-4.1,0-7.5-3.4-7.5-7.5c-0.1-1.1,0-2.2,0-3.4
			c0-21.4,0.1-42.7,0-64.1c0-10.7-9.9-17.9-19.8-14.5c-6.1,2.1-10.1,7.7-10.1,14.7c0,20.1,0,40.2,0,60.4c0.1,1.2,0,2.5-0.1,3.7
			c-0.5,4.1-4.2,7-8.3,6.5c-3.4-0.4-6.1-3.1-6.5-6.5c-0.1-1.4-0.1-2.7-0.1-4.1c0-48.5,0-97,0-145.4c0-9.3-6-16-14.5-16.2
			c-8.2-0.3-15.1,6.1-15.5,14.2c-0.1,1.2,0,2.5,0,3.8v195.7c0,1,0,2,0,3c-0.1,4.6-2.6,7.7-6.5,8.2s-7.4-2.1-8.4-6.7
			c-4.2-18.9-8.2-37.7-12.5-56.6c-3.3-14.5-11.6-21.9-26.5-23.7c-4.1-0.5-8-0.6-11.2,2.4c-1.7,1.3-2.5,3.6-2,5.7
			c6.8,32.1,14,64,23.5,95.4c8.5,28.5,26.5,50.1,49.6,68c4.8,3.8,10.8,5.8,17,5.6c33.9-0.3,67.8-0.2,101.8-0.1
			c2.2,0.1,4.4-0.6,6.2-1.9c12.2-8.1,23-17.5,28.8-31.6c3-7.4,4.6-15.3,4.7-23.3c0.2-9.4,0.1-89,0.1-98.4c0-5.4,15-5.2,15,0.2
			c-0.2,13.1,0.8,96.4-1,109.4c-3.1,21.9-14.6,39-32.6,51.1c-6.8,4.6-9.2,9.4-8.4,17.2c0.7,6.9-0.1,14,0.2,21
			c0.2,4.6-1.3,8-5.3,10.1H91.9z M153.2,344.9c-16.2,0-32.4,0.1-48.6-0.1c-2.4,0-3.1,0.6-3.1,3.1c0.2,6.1,0.2,12.2,0,18.4
			c0,2.1,0.6,2.7,2.7,2.7c32.7-0.1,65.3-0.1,98,0c2.1,0,2.7-0.6,2.7-2.7c-0.1-6.1-0.2-12.2,0-18.4c0.1-2.5-0.6-3.1-3.1-3
			C185.7,344.9,169.4,344.9,153.2,344.9L153.2,344.9z"/>
	</g>
</g>
</svg>
