<svg xmlns="http://www.w3.org/2000/svg" viewBox="0 0 191.58 191.58"><defs><style>.cls-1{fill:#653e00;}.cls-2{fill:#653e00;}</style></defs><g id="레이어_2" data-name="레이어 2"><g id="레이어_1-2" data-name="레이어 1"><path class="cls-1" d="M87.92,191.58c-2-.87-4.2-.75-6.31-1C42.77,185,10,154.78,2.28,116.16-5.22,78.62,5.82,46.84,34.89,22,54.24,5.45,77.23-1.6,102.65.3,145,3.47,179.35,33,189.18,74.46a94.32,94.32,0,0,1,2,12.72c0,.38-.22.9.38,1.11v15.34c-.5.16-.36.59-.39.93A92.78,92.78,0,0,1,176.05,148c-15.9,23.76-38,38-66.29,42.57-2.29.37-4.65.26-6.87,1ZM95.73,182A86.2,86.2,0,1,0,9.59,95.78,86.26,86.26,0,0,0,95.73,182Z"/><path class="cls-2" d="M110,57.5a4.72,4.72,0,0,1,4.59,3,4.61,4.61,0,0,1-1.34,5.42c-3.76,3.37-7.57,6.68-11.38,10C94.66,82.18,87.5,88.48,80.27,94.7c-1.08.94-.9,1.35.07,2.19q16.16,14.06,32.25,28.18a5.69,5.69,0,0,1,2.27,3.52,4.73,4.73,0,0,1-2.4,4.88,4.6,4.6,0,0,1-5.41-.55c-2.72-2.29-5.37-4.66-8-7q-14.85-13-29.7-26c-3.08-2.7-3-5.63.07-8.35l36.87-32.29C107.4,58.28,108.58,57.4,110,57.5Z"/></g></g></svg>