<svg xmlns="http://www.w3.org/2000/svg" viewBox="0 0 178.95 24.73"><defs><style>.cls-1{fill:#005b34;}</style></defs><g id="레이어_2" data-name="레이어 2"><g id="레이어_1-2" data-name="레이어 1"><path class="cls-1" d="M156.14,12.19V9.6A3.14,3.14,0,0,0,158.78,6a3.25,3.25,0,0,0-2.64-3.41V1.2h.05c3,0,5.86.43,6.38,3.79.48,3-1,4.95-4.22,5.52A7.77,7.77,0,0,1,162,14.79c.81,1.87,1.48,3.74,2.64,4l0,.53H163c-2.31,0-3.27,0-4.18-1.63s-1.44-3.7-2.64-5.48m17.62-3.5C176.35,10,179,11.52,179,14.4a4.23,4.23,0,0,1-2.17,3.85,11,11,0,0,1-5.95,1.34,21.78,21.78,0,0,1-5.18-.82V15.32h.48a5.31,5.31,0,0,0,4.12,2.49c1.49.19,4.28-.29,4.52-2.21.33-3.07-2.74-3.84-5.76-5.18-2.26-1-3.65-2.31-3.65-4.47a4,4,0,0,1,2.06-3.6,10.87,10.87,0,0,1,5.52-1.25,43.81,43.81,0,0,1,4.66.53V4.85h-.34c-1.34-2.69-5.42-3.27-7-1.39-2.06,2.45,1.3,4.08,3.46,5.23M156.14,1.2V2.59a8.24,8.24,0,0,0-2.69-.09V9.79a9.76,9.76,0,0,0,2.69-.19v2.59c-.1-.09-.15-.19-.24-.28-.24-.29-.43-.87-.82-.87h-1.63v6.77a.53.53,0,0,0,.34.53l1.44.43,0,.53h-8v-.53l1-.48c.19-.09.34-.19.34-.43V2.5a.39.39,0,0,0-.34-.44l-1-.33V1.2ZM118.4,19.73V18.39h.1c3.4,0,4.17-3.79,4.17-8s-1-8-4.27-8.07V1h.24c5.28,0,8.45,3.41,8.45,9,0,5.76-3.21,9.65-8.69,9.79m9.79-18.34h6.54v.53l-1,.48c-.2.1-.34.19-.34.38a6.57,6.57,0,0,0-.05,1v8.12c0,3.45.34,6.14,4.32,6.14,3.41,0,4-3.12,4-6V3.79a8.2,8.2,0,0,0,0-1c0-.19-.1-.28-.34-.38L140.44,2l-.05-.58h5v.53l-.63.53a.48.48,0,0,0-.29.43v.91c0,.39,0,.77,0,1.2v6.87c0,2.78-.53,4.51-1.68,5.86s-2.93,2-5.38,2-5.14-.62-6.29-1.82-1.73-3.07-1.73-5.62V2.88a.47.47,0,0,0-.29-.43l-.82-.53ZM118.4,1V2.3h-.14c-3.37,0-4.18,3.61-4.18,7.83s1,8.16,4.32,8.26v1.34h-.24c-5.38,0-8.45-3.6-8.45-9.22S113,1.1,118.4,1m-34,17.76V17.33a2.67,2.67,0,0,0,.86.19,3.69,3.69,0,0,0,2.5-.76c.43-.39.62.14,0,.62a5.81,5.81,0,0,1-3.36,1.34m0-4.46v-.91A7.27,7.27,0,0,0,86,11.62c.58-1.15.15-2.45-.62-2a3.22,3.22,0,0,0-1,.72V8.64c1.2-.86,2.4-1.2,3.12-.67,1.53,1.1-.34,3.89-2.11,5.43l-1,.86M101.35,1.2h6.78v.58c-.39.14-1.54.24-1.59.67V16.52a15,15,0,0,1-.43,3.6c-.58,2.73-3.65,4-6,4.61l-.15-.58c2.93-1.25,2.79-4.51,2.79-7.25V2.5c0-.48-1-.58-1.35-.72ZM94.49,9.36c.82.1.82,1.15.34,1.92-.29.43.09.58.57.15a2.7,2.7,0,0,0,.87-2.69C95.93,6.91,92.38,8,90.5,10s-1.44,3.55-.28,4.17a8.44,8.44,0,0,0,4,.63c1,0,1.44,1.05-.14,2s-3.22.82-3.8.29-1-1.34-1.34-.48.43,1.68,1.58,1.87,4,0,5.14-1.87,0-3-1.68-3.07-3.7-.53-3-2.21a3.63,3.63,0,0,1,3.51-2M62.9,8.69C65.49,10,68,11.52,68,14.4a4.24,4.24,0,0,1-2.16,3.85A10.88,10.88,0,0,1,60,19.59a21.86,21.86,0,0,1-5.19-.82V15.32h.48a5.2,5.2,0,0,0,4.13,2.49c1.49.19,4.27-.29,4.47-2.21.38-3.07-2.69-3.84-5.76-5.18-2.21-1-3.65-2.31-3.65-4.47a4,4,0,0,1,2.11-3.6A10.87,10.87,0,0,1,62.08,1.1a45.62,45.62,0,0,1,4.66.53V4.85H66.4c-1.34-2.69-5.47-3.27-7-1.39-2,2.45,1.35,4.08,3.51,5.23m21.51,0v1.68a6.7,6.7,0,0,0-1.35,2.16,6.52,6.52,0,0,0-.48,2.36s.92-.68,1.83-1.49v.91a21,21,0,0,1-1.73,1.34,3.55,3.55,0,0,0,1.73,1.73v1.39a5.89,5.89,0,0,1-1.25,0A2.56,2.56,0,0,1,81,16.47a9.81,9.81,0,0,1-1.78,1.68c-.48.33-3.41,1.63-4.22-.48s0-5,1.58-10.61S79.46,0,80.23,0s.91,1.1.38,2.06a45.81,45.81,0,0,0-3.5,7.88c-.86,3.07-1.2,7.1.53,7.3A5.21,5.21,0,0,0,80.9,16a7.48,7.48,0,0,1,.53-3.36,8.9,8.9,0,0,1,3-4M26,19.73V18.39h.1c3.41,0,4.18-3.79,4.18-8s-1-8-4.28-8.07V1h.24c5.28,0,8.45,3.41,8.45,9,0,5.76-3.21,9.65-8.69,9.79M36,1.39h6.48v.53l-1,.48c-.19.1-.33.19-.33.38v9.13c0,3.45.33,6.14,4.32,6.14,3.41,0,4-3.12,4-6V3.79a7.11,7.11,0,0,1,0-1c0-.19-.14-.28-.34-.38L48.2,2V1.39h4.95v.53l-.62.53a.47.47,0,0,0-.29.43,5.32,5.32,0,0,0-.05.91v8.07c0,2.78-.58,4.51-1.68,5.86s-2.93,2-5.38,2-5.18-.62-6.29-1.82-1.73-3.07-1.73-5.62V3.79a6.63,6.63,0,0,0,0-.91.42.42,0,0,0-.29-.43L36,1.92ZM26,1V2.3h-.14c-3.36,0-4.18,3.61-4.18,7.83s1,8.16,4.32,8.26v1.34h-.28c-5.33,0-8.41-3.6-8.41-9.22S20.6,1.1,26,1M5,19.3v-.53l1-.57c.2-.15.34-.2.34-.39V3H2L.53,5.76l-.48.1L0,1.44l.1-.1H16.9l.05.1V5.76l-.53.1L14.84,3H10.52V17.81c0,.19.14.29.33.39l1.15.57v.53Z"/></g></g></svg>