<?xml version="1.0" encoding="utf-8"?>
<!-- Generator: Adobe Illustrator 26.3.1, SVG Export Plug-In . SVG Version: 6.00 Build 0)  -->
<svg version="1.1" id="레이어_1" xmlns="http://www.w3.org/2000/svg" xmlns:xlink="http://www.w3.org/1999/xlink" x="0px"
	 y="0px" viewBox="0 0 178.9 24.7" style="enable-background:new 0 0 178.9 24.7;" xml:space="preserve">
<style type="text/css">
	.st0{fill:#005B34;}
</style>
<g id="레이어_2_00000078014119087268580720000014652284884993307053_">
	<g id="레이어_1-2">
		<path class="st0" d="M134,11.7V9.8c1.2-0.2,2.1-1.3,1.9-2.5c0,0,0,0,0,0c0.1-1.2-0.7-2.2-1.9-2.4v-1h0c2.1,0,4.1,0.3,4.5,2.7
			c0.3,2.1-0.7,3.5-3,3.9c1.2,0.7,2.1,1.7,2.6,3c0.6,1.3,1,2.6,1.9,2.8v0.4h-1.2c-1.6,0-2.3,0-3-1.2C135.3,14.4,134.9,13,134,11.7
			 M146.5,9.2c1.8,0.9,3.7,2,3.7,4c0,1.1-0.6,2.2-1.5,2.7c-1.3,0.7-2.7,1-4.2,0.9c-1.2,0-2.5-0.2-3.7-0.6v-2.4h0.3
			c0.6,1,1.7,1.7,2.9,1.8c1.1,0.1,3-0.2,3.2-1.6c0.2-2.2-1.9-2.7-4.1-3.7c-1.6-0.7-2.6-1.6-2.6-3.2c0-1.1,0.5-2,1.5-2.5
			c1.2-0.6,2.5-0.9,3.9-0.9c1.1,0.1,2.2,0.2,3.3,0.4v2.3H149c-0.9-1.9-3.8-2.3-5-1C142.6,7.2,145,8.4,146.5,9.2 M134,3.9v1
			c-0.6-0.1-1.3-0.1-1.9-0.1V10c0.6,0,1.3,0,1.9-0.1v1.8c-0.1-0.1-0.1-0.1-0.2-0.2c-0.2-0.2-0.3-0.6-0.6-0.6h-1.2v4.8
			c0,0.2,0.1,0.3,0.2,0.4l1,0.3v0.4h-5.7v-0.4l0.7-0.3c0.1-0.1,0.2-0.1,0.2-0.3V4.8c0-0.2-0.1-0.3-0.2-0.3c0,0,0,0,0,0l-0.7-0.2V3.9
			H134z M107.3,17v-0.9h0.1c2.4,0,3-2.7,3-5.7s-0.7-5.7-3-5.7V3.8h0.2c3.7,0,6,2.4,6,6.4C113.5,14.2,111.2,17,107.3,17 M114.3,4.1
			h4.6v0.4l-0.7,0.3c-0.1,0.1-0.2,0.1-0.2,0.3c0,0.2,0,0.5,0,0.7v5.7c0,2.4,0.2,4.3,3.1,4.3c2.4,0,2.8-2.2,2.8-4.2V5.7
			c0-0.2,0-0.5,0-0.7c0-0.1-0.1-0.2-0.2-0.3l-0.6-0.3l0-0.4h3.5v0.4L126,4.8c-0.1,0.1-0.2,0.2-0.2,0.3v0.6c0,0.3,0,0.5,0,0.8v4.9
			c0,2-0.4,3.2-1.2,4.1s-2.1,1.4-3.8,1.4s-3.6-0.4-4.5-1.3s-1.2-2.2-1.2-4V5.1c0-0.1-0.1-0.3-0.2-0.3l-0.6-0.4L114.3,4.1z
			 M107.3,3.8v0.9h-0.1c-2.4,0-3,2.6-3,5.5s0.7,5.8,3.1,5.8V17h-0.2c-3.8,0-6-2.5-6-6.5S103.5,3.8,107.3,3.8 M83.3,16.3v-1
			c0.2,0.1,0.4,0.1,0.6,0.1c0.6,0,1.3-0.1,1.8-0.5c0.3-0.3,0.4,0.1,0,0.4C85,15.9,84.2,16.2,83.3,16.3 M83.3,13.1v-0.6
			c0.4-0.3,0.8-0.8,1.1-1.2c0.4-0.8,0.1-1.7-0.4-1.4c-0.3,0.1-0.5,0.3-0.7,0.5V9.2c0.8-0.6,1.7-0.8,2.2-0.5c1.1,0.8-0.2,2.8-1.5,3.8
			L83.3,13.1 M95.3,3.9h4.8v0.4c-0.3,0.1-1.1,0.2-1.1,0.5v10c0,0.9-0.1,1.7-0.3,2.5c-0.4,1.9-2.6,2.8-4.2,3.3l-0.1-0.4
			c2.1-0.9,2-3.2,2-5.1V4.8c0-0.3-0.7-0.4-1-0.5L95.3,3.9z M90.4,9.7C91,9.7,91,10.5,90.7,11c-0.2,0.3,0.1,0.4,0.4,0.1
			c0.5-0.5,0.8-1.2,0.6-1.9c-0.2-1.3-2.8-0.5-4.1,0.9s-1,2.5-0.2,3c0.9,0.4,1.9,0.5,2.8,0.4c0.7,0,1,0.7-0.1,1.4s-2.3,0.6-2.7,0.2
			c-0.4-0.4-0.7-0.9-0.9-0.3s0.3,1.2,1.1,1.3c0.8,0.1,2.8,0,3.6-1.3s0-2.1-1.2-2.2s-2.6-0.4-2.1-1.6C88.4,10.1,89.4,9.6,90.4,9.7
			 M68.1,9.2c1.8,0.9,3.6,2,3.6,4c0,1.1-0.5,2.2-1.5,2.7c-1.3,0.7-2.7,1-4.1,0.9c-1.2,0-2.5-0.2-3.7-0.6v-2.4h0.3
			c0.6,1,1.7,1.7,2.9,1.8c1.1,0.1,3-0.2,3.2-1.6c0.3-2.2-1.9-2.7-4.1-3.7c-1.6-0.7-2.6-1.6-2.6-3.2c0-1.1,0.6-2,1.5-2.5
			c1.2-0.6,2.5-0.9,3.9-0.9c1.1,0.1,2.2,0.2,3.3,0.4v2.3h-0.2c-0.9-1.9-3.9-2.3-5-1C64.2,7.2,66.5,8.4,68.1,9.2 M83.3,9.2v1.2
			c-0.4,0.4-0.7,1-1,1.5C82.1,12.5,82,13,82,13.6c0,0,0.7-0.5,1.3-1.1v0.6c-0.4,0.3-0.8,0.7-1.2,0.9c0.3,0.5,0.7,1,1.2,1.2v1
			c-0.3,0-0.6,0-0.9,0c-0.8-0.1-1.5-0.8-1.5-1.6c-0.4,0.4-0.8,0.8-1.3,1.2c-0.3,0.2-2.4,1.2-3-0.3s0-3.5,1.1-7.5s2-5,2.6-5
			s0.6,0.8,0.3,1.5c-1,1.8-1.8,3.6-2.5,5.6c-0.6,2.2-0.8,5,0.4,5.2c0.8,0,1.7-0.3,2.3-0.9c-0.1-0.8,0.1-1.6,0.4-2.4
			C81.6,10.9,82.3,9.9,83.3,9.2 M42,17v-0.9H42c2.4,0,3-2.7,3-5.7s-0.7-5.7-3-5.7V3.8h0.2c3.7,0,6,2.4,6,6.4
			C48.1,14.2,45.8,17,42,17 M49,4h4.6v0.4l-0.7,0.3c-0.1,0.1-0.2,0.1-0.2,0.3v6.5c0,2.4,0.2,4.3,3.1,4.3c2.4,0,2.8-2.2,2.8-4.2V5.7
			c0-0.2,0-0.5,0-0.7c0-0.1-0.1-0.2-0.2-0.3l-0.7-0.3V4h3.5v0.4l-0.4,0.4c-0.1,0.1-0.2,0.2-0.2,0.3c0,0.2,0,0.4,0,0.6v5.7
			c0,2-0.4,3.2-1.2,4.1c-0.8,1-2.1,1.4-3.8,1.4c-1.7,0-3.7-0.4-4.5-1.3c-0.8-0.8-1.2-2.2-1.2-4v-6c0-0.2,0-0.4,0-0.6
			c0-0.1-0.1-0.3-0.2-0.3L49,4.4V4z M42,3.8v0.9h-0.1c-2.4,0-3,2.6-3,5.5s0.7,5.8,3.1,5.8V17h-0.2c-3.8,0-5.9-2.5-5.9-6.5
			S38.1,3.8,42,3.8 M27.1,16.7v-0.4l0.7-0.4c0.1-0.1,0.2-0.1,0.2-0.3V5.2H25l-1,2l-0.3,0.1l0-3.1L23.6,4h11.9l0,0.1v3.1l-0.4,0.1
			l-1.1-2H31v10.5c0,0.1,0.1,0.2,0.2,0.3l0.8,0.4v0.4H27.1z"/>
	</g>
</g>
</svg>
