<svg xmlns="http://www.w3.org/2000/svg" viewBox="0 0 60.54 50.44"><defs><style>.cls-1{fill:#005b34;}</style></defs><g id="레이어_2" data-name="레이어 2"><g id="레이어_1-2" data-name="레이어 1"><path class="cls-1" d="M43.07,40.85v-2a2.42,2.42,0,0,0,2.06-2.75,2.49,2.49,0,0,0-2.06-2.63V32.41h.08c2.3,0,4.47.34,4.86,2.9.36,2.35-.76,3.79-3.22,4.26a5.81,5.81,0,0,1,2.8,3.27c.6,1.43,1.12,2.87,2,3l0,.39H48.32c-1.78,0-2.51,0-3.21-1.22a43.65,43.65,0,0,0-2-4.21m0-28.26V.31h1.85V.73l-.46.39c-.14.11-.24.16-.24.34a5.24,5.24,0,0,0,0,.71V8.36a6.54,6.54,0,0,1-1.12,4.23M52.39,5.9c2,1,4,2.17,4,4.39a3.27,3.27,0,0,1-1.65,3,8.29,8.29,0,0,1-4.54,1,16.67,16.67,0,0,1-4-.66V11h.36a3.94,3.94,0,0,0,3.14,1.9c1.17.16,3.29-.23,3.47-1.69.26-2.35-2.09-2.93-4.44-4C47,6.5,45.94,5.49,45.94,3.81a3,3,0,0,1,1.6-2.74,7.94,7.94,0,0,1,4.23-1,32.56,32.56,0,0,1,3.55.41V3h-.23C54,.91,50.88.5,49.73,1.91c-1.59,1.88,1,3.13,2.66,4m4.24,32.24c2,1,3.91,2.16,3.91,4.38a3.31,3.31,0,0,1-1.64,3,8.62,8.62,0,0,1-4.55,1,18.34,18.34,0,0,1-4-.63V43.23h.37a4,4,0,0,0,3.16,1.9c1.15.16,3.26-.2,3.45-1.69.29-2.33-2.07-2.9-4.42-3.95-1.69-.73-2.79-1.77-2.79-3.45a3.05,3.05,0,0,1,1.59-2.74,8.08,8.08,0,0,1,4.23-1,33.35,33.35,0,0,1,3.58.41v2.49h-.26c-1-2.09-4.18-2.51-5.35-1.1-1.57,1.88,1,3.16,2.69,4M43.07.31V12.59a2.93,2.93,0,0,1-.18.26,5.18,5.18,0,0,1-4.13,1.54c-1.83,0-3.92-.47-4.78-1.38A6.08,6.08,0,0,1,32.65,8.7V1.46a.44.44,0,0,0-.24-.34l-.6-.39V.31h5V.73L36,1.1c-.13.08-.23.15-.23.31a6,6,0,0,0,0,.76V8.38c0,2.64.26,4.73,3.29,4.73,2.59,0,3.09-2.4,3.09-4.59V2.17c0-.29,0-.52,0-.76s-.1-.23-.26-.31L41.14.78l0-.47Zm0,32.1v1.08a5.67,5.67,0,0,0-2-.08V39a8.83,8.83,0,0,0,2-.13v2l-.16-.23c-.18-.24-.31-.66-.65-.66H41v5.2a.38.38,0,0,0,.26.39l1.1.32,0,.41H36.33v-.41l.76-.37c.16-.08.26-.16.26-.29v-.88c0-.32,0-.68,0-1.08V35a8.06,8.06,0,0,0,0-.89v-.73a.31.31,0,0,0-.23-.34l-.79-.24v-.42ZM29.49,46.6V45.32c2.17-.29,2.61-2.51,2.61-4.57V35.29c0-.34,0-.63,0-.89s0-.52,0-.76-.08-.23-.24-.28L31.08,33l0-.45h3.78V33l-.47.37c-.1.1-.23.18-.23.34v.73c0,.26,0,.54,0,.88v5.28a6.41,6.41,0,0,1-1.3,4.49,4.65,4.65,0,0,1-3.32,1.52m0-16.56V29a1.47,1.47,0,0,0,.65.15,3,3,0,0,0,1.91-.57c.31-.31.49.08,0,.49a4.69,4.69,0,0,1-2.56,1m0-3.42v-.68a6.9,6.9,0,0,0,1.2-1.34c.44-.88.13-1.85-.5-1.54a2.25,2.25,0,0,0-.7.55V22.33c.89-.68,1.83-.94,2.38-.52,1.14.84-.27,3-1.62,4.15l-.76.66m0-14.89V2.27a7.58,7.58,0,0,1,1.33,4.6,8.61,8.61,0,0,1-1.33,4.86m7.65,11.15c.65.08.65.86.29,1.44-.21.36,0,.47.44.15a2.1,2.1,0,0,0,.66-2.08c-.27-1.39-2.93-.53-4.39,1S33,26.07,33.9,26.56a6.35,6.35,0,0,0,3,.47c.76,0,1.1.81-.08,1.57a2.8,2.8,0,0,1-2.9.21c-.44-.39-.75-1.07-1-.39s.31,1.28,1.2,1.46A4.11,4.11,0,0,0,38,28.42c.89-1.41,0-2.27-1.28-2.35s-2.8-.39-2.22-1.7a2.66,2.66,0,0,1,2.61-1.49M29.49,2.27v9.46a6.46,6.46,0,0,1-5.33,2.64v-1h.08c2.61,0,3.21-2.9,3.21-6.14S26.67,1.1,24.16,1V0h.18a6.18,6.18,0,0,1,5.15,2.27m0,20.06v1.28a5.23,5.23,0,0,0-1.07,1.65,4.82,4.82,0,0,0-.34,1.83s.7-.53,1.41-1.15v.68c-.55.47-1,.78-1.33,1A2.65,2.65,0,0,0,29.49,29V30a4.54,4.54,0,0,1-1,0,2,2,0,0,1-1.7-1.7,9.07,9.07,0,0,1-1.35,1.31,4.16,4.16,0,0,1-1.31.47v-1.2h.1A3.67,3.67,0,0,0,26.77,28a6.2,6.2,0,0,1,.42-2.58,6.66,6.66,0,0,1,2.3-3.06m0,23V46.6l-.78,0a8.23,8.23,0,0,1-4.55-1.15V32.57h2.53V33l-.73.37c-.16,0-.26.13-.26.28v.76c0,.26,0,.55,0,.89v5.35c0,2.64.27,4.7,3.35,4.7l.47,0M24.16,22.44a41.56,41.56,0,0,1,2.4-5.15c.39-.76.26-1.59-.31-1.59s-1.18.68-2.09,3.16ZM14.21.29h2.95l.05.08V3.68l-.39.08L15.59,1.52H14.21Zm10-.29V1h-.1c-2.56,0-3.19,2.74-3.19,6s.76,6.27,3.29,6.35v1l-.21,0c-4.1,0-6.48-2.77-6.48-7C17.47,2.9,20,.08,24.16,0m0,18.86v3.58c-.1.31-.21.6-.29.89-.65,2.27-.91,5.25.29,5.56v1.2c-.76.13-1.59.05-1.93-.84-.6-1.59,0-3.81,1.2-8.15.26-.88.49-1.61.73-2.24m0,13.71v12.9a2.26,2.26,0,0,1-.29-.23,6.12,6.12,0,0,1-1.3-4.31v-6.5a5.4,5.4,0,0,0,0-.73c0-.16-.1-.24-.23-.34L21.73,33v-.42Zm-9.95,14v-1a.08.08,0,0,0,.08,0c2.61,0,3.21-2.93,3.21-6.17s-.78-6.11-3.29-6.16V32.23h.18c4.05,0,6.48,2.61,6.48,6.9s-2.48,7.39-6.66,7.49M8,14.05v-.42l.74-.44c.15-.08.26-.13.26-.29l0-11.38H5.75L4.65,3.68l-.39.08,0-3.39,0-.08h9.93V1.52H12.28l0,11.38c0,.16.11.21.24.29l.88.44v.42Zm6.17,18.18v1.05H14.1c-2.55,0-3.18,2.74-3.18,6s.75,6.27,3.29,6.32v1H14c-4.1,0-6.48-2.76-6.48-7s2.54-7.23,6.69-7.34m-13.06.21H6.32v.42c-.26.1-1.18.18-1.2.52V44.14a12.64,12.64,0,0,1-.31,2.77C4.34,49,2,50,.1,50.44L0,50c2.3-1,2.19-3.44,2.19-5.56V35.31c0-.34,0-.62,0-.88v-1c0-.39-.71-.44-1-.57Z"/></g></g></svg>