<?xml version="1.0" encoding="utf-8"?>
<!-- Generator: Adobe Illustrator 26.4.1, SVG Export Plug-In . SVG Version: 6.00 Build 0)  -->
<svg version="1.1" id="_레이어_2" xmlns="http://www.w3.org/2000/svg" xmlns:xlink="http://www.w3.org/1999/xlink" x="0px"
	 y="0px" viewBox="0 0 220.3 66.6" style="enable-background:new 0 0 220.3 66.6;" xml:space="preserve">
<style type="text/css">
	.st0{fill:#003668;}
	.st1{fill:#E6002D;}
	.st2{fill:#FFFFFF;}
	.st3{font-family:'NotoSansKR-Bold-KSCpc-EUC-H';}
	.st4{font-size:28px;}
	.st5{fill:#757575;}
	.st6{font-family:'NotoSansKR-Regular-KSCpc-EUC-H';}
	.st7{font-size:18px;}
</style>
<g id="_레이어_1-2">
	
		<image style="overflow:visible;opacity:0.9;" width="239" height="85" xlink:href="1185342624F1C41F.png"  transform="matrix(1 0 0 1 -4 2.6)">
	</image>
	<g>
		<g>
			<g>
				<path class="st0" d="M36.8,29.8c-4.2-2.8-9.5-1.7-12.2,2.6c-2.3,3.5-5.8,4-7.2,4C13,36.3,9.9,33.2,9,30l0,0v-0.1v-0.1
					c-0.4-1.4-0.4-2-0.4-3.4c0-7.7,7.9-16.3,19.3-16.3S46.2,18.9,48,23.9c0-0.1-0.1-0.2-0.1-0.3C44.5,13.9,35.4,7,24.6,7
					C11,7,0,18,0,31.6c0,12.1,8.8,22.5,20.9,22.5c9.7,0,16.2-5.4,19.2-12.9C41.7,37.1,40.5,32.3,36.8,29.8L36.8,29.8z"/>
				<path class="st1" d="M48.1,24.4C46.7,19.5,39.9,10,27.9,10C16.5,10,8.5,18.6,8.5,26.3c0,1.4,0.1,2.1,0.4,3.4
					c-0.1-0.6-0.2-1.2-0.2-1.8c0-8,8-13.6,16.3-13.6c11.2,0,20.3,9.1,20.3,20.3c0,8.8-5,16.4-12.4,20l0,0
					c9.5-3.4,16.2-12.5,16.2-23.1C49.2,29.1,48.8,26.8,48.1,24.4L48.1,24.4z"/>
				<text transform="matrix(1 0 0 1 58.51 31.95)" class="st2 st3 st4">납세자권익24</text>
				<text transform="matrix(1 0 0 1 56.18 54.71)" class="st5 st6 st7">T</text>
				<text transform="matrix(1 0 0 1 65.5 54.71)" class="st5 st6 st7">ax</text>
				<text transform="matrix(1 0 0 1 84.62 54.71)" class="st5 st6 st7">p</text>
				<text transform="matrix(1 0 0 1 95.49 54.71)" class="st5 st6 st7">a</text>
				<text transform="matrix(1 0 0 1 105.64 54.71)" class="st5 st6 st7">y</text>
				<text transform="matrix(1 0 0 1 114.95 54.71)" class="st5 st6 st7">er Ad</text>
				<text transform="matrix(1 0 0 1 158.02 54.71)" class="st5 st6 st7">v</text>
				<text transform="matrix(1 0 0 1 167.33 54.71)" class="st5 st6 st7">o</text>
				<text transform="matrix(1 0 0 1 178.24 54.71)" class="st5 st6 st7">c</text>
				<text transform="matrix(1 0 0 1 187.2 54.71)" class="st5 st6 st7">at</text>
				<text transform="matrix(1 0 0 1 203.6 54.71)" class="st5 st6 st7">e</text>
			</g>
		</g>
	</g>
</g>
</svg>
