<?xml version="1.0" encoding="UTF-8"?><svg id="_레이어_2" xmlns="http://www.w3.org/2000/svg" xmlns:xlink="http://www.w3.org/1999/xlink" viewBox="0 0 239 85"><defs><style>.cls-1{font-family:NotoSansKR-Bold-KSCpc-EUC-H, 'Noto Sans KR';font-size:28px;}.cls-1,.cls-2,.cls-3{isolation:isolate;}.cls-4{fill:#003668;}.cls-5{fill:#e6002d;}.cls-2{fill:#757575;font-family:NotoSansKR-Regular-KSCpc-EUC-H, 'Noto Sans KR';font-size:18px;}.cls-6{letter-spacing:-.02em;}.cls-3{opacity:.9;}</style></defs><g id="_레이어_2-2"><g id="_레이어_1-2"><image class="cls-3" width="239" height="85" xlink:href="../정/image/1185342624F1C41F.png"/><g><path class="cls-4" d="M44.87,26.9c-4.2-2.8-9.5-1.7-12.2,2.6-2.3,3.5-5.8,4-7.2,4-4.4-.1-7.5-3.2-8.4-6.4h0v-.2c-.4-1.4-.4-2-.4-3.4,0-7.7,7.9-16.3,19.3-16.3s18.3,8.8,20.1,13.8c0-.1-.1-.2-.1-.3-3.4-9.7-12.5-16.6-23.3-16.6-13.6,0-24.6,11-24.6,24.6,0,12.1,8.8,22.5,20.9,22.5,9.7,0,16.2-5.4,19.2-12.9,1.6-4.1,.4-8.9-3.3-11.4h0Z"/><path class="cls-5" d="M56.17,21.5c-1.4-4.9-8.2-14.4-20.2-14.4S16.57,15.7,16.57,23.4c0,1.4,.1,2.1,.4,3.4-.1-.6-.2-1.2-.2-1.8,0-8,8-13.6,16.3-13.6,11.2,0,20.3,9.1,20.3,20.3,0,8.8-5,16.4-12.4,20h0c9.5-3.4,16.2-12.5,16.2-23.1,.1-2.4-.3-4.7-1-7.1h0Z"/><text class="cls-1" transform="translate(66.58 29.05)"><tspan x="0" y="0">납세자권익24</tspan></text><text class="cls-2" transform="translate(64.25 51.81)"><tspan x="0" y="0">T</tspan></text><text class="cls-2" transform="translate(73.57 51.81)"><tspan x="0" y="0">ax</tspan></text><text class="cls-2" transform="translate(92.69 51.81)"><tspan x="0" y="0">p</tspan></text><text class="cls-2" transform="translate(103.56 51.81)"><tspan x="0" y="0">a</tspan></text><text class="cls-2" transform="translate(113.71 51.81)"><tspan x="0" y="0">y</tspan></text><text class="cls-2" transform="translate(123.02 51.81)"><tspan x="0" y="0">er Ad</tspan></text><text class="cls-2" transform="translate(166.09 51.81)"><tspan x="0" y="0">v</tspan></text><text class="cls-2" transform="translate(175.4 51.81)"><tspan x="0" y="0">o</tspan></text><text class="cls-2" transform="translate(186.31 51.81)"><tspan x="0" y="0">c</tspan></text><text class="cls-2" transform="translate(195.27 51.81)"><tspan class="cls-6" x="0" y="0">a</tspan><tspan x="9.88" y="0">t</tspan></text><text class="cls-2" transform="translate(211.67 51.81)"><tspan x="0" y="0">e</tspan></text></g></g></g></svg>